<svg width="294" height="84" viewBox="0 0 294 84" fill="none" xmlns="http://www.w3.org/2000/svg">
<path fill-rule="evenodd" clip-rule="evenodd" d="M92.1513 4.16885C91.5339 4.16885 88.7454 7.86816 83.7859 15.2668C78.8264 22.6654 73.3055 31.4933 67.223 41.7505C61.1407 52.0076 58.1 58.2852 58.1009 60.5832C58.0861 60.8939 58.1144 61.2051 58.185 61.508C58.4647 62.0124 58.829 61.7883 59.2779 60.8355C61.9119 54.6139 66.6622 45.9261 73.5286 34.7721C80.3951 23.6181 86.7989 14.1456 92.7399 6.35474C93.3564 5.51399 93.6647 4.89721 93.6647 4.50442C93.6647 4.22455 93.3836 4.08411 92.8239 4.08411L92.1513 4.16885ZM58.4373 11.9878C57.4835 11.9878 52.0747 19.6667 42.2107 35.0243H41.454C36.8584 35.0545 32.2737 35.4762 27.7497 36.2848C19.6221 37.7432 13.877 40.1534 10.5144 43.5154C8.21546 45.8142 7.06646 48.1684 7.0674 50.5777C7.0674 53.0447 8.2725 55.2026 10.6827 57.0515L11.4392 57.3043C11.8871 57.3043 11.9432 57.1922 11.6073 56.9679C10.4854 56.072 9.92488 55.1192 9.92582 54.1095C9.92676 53.0998 10.4032 52.0068 11.355 50.8306C14.4934 47.1876 20.9952 44.4972 30.8605 42.7594C32.3739 42.4794 34.756 42.1151 38.007 41.6663C27.7497 58.4813 22.6211 68.2901 22.6212 71.0926C22.6212 71.6523 22.7474 71.9334 22.9996 71.9334C23.2518 71.9334 23.5171 71.6247 23.7982 71.0086C26.5438 64.5059 32.0647 54.6691 40.361 41.4982C43.724 41.1619 46.6106 40.9938 49.0208 40.9938C51.431 40.9938 53.4768 41.0779 55.1583 41.246C60.7624 41.7505 63.8452 42.7033 64.4065 44.1044C64.5181 44.3857 64.6299 44.5249 64.7429 44.5249C64.8559 44.5249 64.911 44.4131 64.911 44.1886C64.911 40.5459 60.7072 37.8555 52.2997 36.1174C49.7179 35.6125 47.1061 35.2755 44.4807 35.1084C49.6369 27.2054 54.4852 20.2271 59.0257 14.1737C59.6419 13.333 59.9502 12.7164 59.9506 12.324C59.9506 12.0442 59.6984 11.9041 59.1939 11.9037L58.4373 11.9878ZM105.645 44.4408C106.066 43.9363 106.276 43.4879 106.276 43.0955C106.299 42.8052 106.24 42.5143 106.108 42.2549C105.379 41.0226 104.174 40.406 102.493 40.4052C102.043 39.06 100.992 37.8969 99.3398 36.916C97.7965 35.9671 96.023 35.4583 94.2113 35.4448C92.3657 35.4585 90.5344 35.7708 88.7885 36.3696C84.6399 37.6031 81.1647 39.705 78.3631 42.6752C74.6638 46.6557 72.8141 50.7193 72.8141 54.8662C72.8049 55.5666 72.9554 56.26 73.254 56.8937C73.5527 57.5273 73.9917 58.0847 74.5377 58.5235C75.6973 59.5081 77.1787 60.0317 78.6995 59.9946C80.3243 59.9946 82.5803 59.1399 85.4674 57.4304C88.3544 55.7209 91.0589 53.2967 93.5808 50.1578C92.5719 52.5686 92.0674 54.3622 92.0674 55.5387C92.0633 56.1121 92.1768 56.6803 92.401 57.2081C92.6251 57.7359 92.9551 58.2121 93.3705 58.6074C93.7925 59.0342 94.2974 59.37 94.8541 59.5941C95.4108 59.8183 96.0075 59.926 96.6075 59.9107C100.979 59.9107 107.986 55.3706 117.626 46.2905C117.809 46.144 117.929 45.9336 117.962 45.7019V45.3649C117.794 44.9735 117.43 45.0576 116.869 45.6172C112.105 50.1022 107.761 53.4652 103.838 55.7062C101.875 56.7716 100.46 57.3041 99.592 57.3037C98.7239 57.3033 98.2896 56.7988 98.2889 55.7903C98.2889 54.7814 98.7794 53.5484 99.7603 52.0911C100.741 50.6338 101.554 49.4848 102.198 48.6439C102.842 47.8033 103.473 47.0186 104.09 46.2899C104.708 45.5612 105.226 44.9448 105.645 44.4408ZM100.727 39.7756C100.727 40.9816 99.4099 42.9574 96.7755 45.7029C95.9899 46.4885 95.0371 47.4134 93.9169 48.4774C92.7968 49.5415 92.1522 50.158 91.9833 50.3271C89.0118 53.2985 86.6157 55.2883 84.7948 56.2964C82.974 57.3045 81.6708 57.8089 80.8853 57.8098C79.9317 57.8098 79.4553 57.2212 79.4561 56.0442C79.4561 53.8029 81.5019 50.2718 85.5935 45.4507C88.171 42.424 90.8895 40.2941 93.7488 39.0609C95.374 38.3333 96.7752 37.969 97.9525 37.9681C99.8022 37.9674 100.727 38.5699 100.727 39.7756Z" fill="#232323"/>
<path fill-rule="evenodd" clip-rule="evenodd" d="M127.614 52.7427C127.177 53.9128 126.949 55.1509 126.942 56.4C126.942 57.6061 127.474 58.545 128.539 59.2167C130.276 60.2807 132.686 60.0285 135.77 58.46C138.403 57.2278 142.439 54.0889 147.876 49.0435C147.999 48.9384 148.099 48.8099 148.171 48.6655C148.244 48.5211 148.286 48.3638 148.297 48.2027C148.297 47.475 147.988 47.419 147.372 48.0346C143.728 51.3976 140.757 53.8918 138.46 55.5172C136.834 56.5261 135.685 56.9745 135.013 56.8625C134.842 56.852 134.679 56.7902 134.544 56.6852C134.409 56.5802 134.308 56.4368 134.256 56.2739C134.143 55.9376 134.241 55.4191 134.55 54.7186C134.86 54.018 135.995 52.3225 137.955 49.6321C139.917 46.9417 141.164 45.0079 141.697 43.8309C142.23 42.6538 142.496 41.715 142.496 41.0142C142.506 40.4944 142.478 39.9746 142.411 39.4589C141.907 37.1048 140.282 35.9278 137.535 35.9278C134.732 35.9278 131.873 37.5532 128.959 40.8042C127.838 42.0377 126.184 44.0835 123.999 46.9415C125.008 44.3078 125.512 41.8275 125.512 39.5009C125.512 37.1742 124.644 35.6188 122.906 34.8347C122.667 34.7319 122.41 34.6749 122.149 34.6666C121.7 34.6666 121.477 34.8912 121.477 35.3392C121.448 35.4741 121.461 35.6144 121.514 35.7419C121.566 35.8694 121.656 35.9781 121.771 36.0539C122.023 36.2509 122.163 36.6713 122.191 37.315C122.213 37.9937 122.084 38.6687 121.813 39.2914C121.084 40.5814 119.935 42.1507 118.366 43.9996C117.877 44.5465 117.357 45.0657 116.81 45.5549C116.109 46.2006 115.633 46.635 115.381 46.8582C115.13 47.0814 114.611 47.5438 113.826 48.2454C113.042 48.9468 112.481 49.4513 112.144 49.7588C111.99 49.8814 111.872 50.0447 111.806 50.2304C111.739 50.416 111.725 50.6167 111.766 50.8097C111.85 51.2026 112.172 51.1746 112.733 50.7255C114.877 48.9581 116.926 47.0778 118.87 45.0926C116.56 48.5879 114.062 51.9558 111.388 55.1817C110.099 56.8632 109.286 57.9561 108.95 58.4606C110.351 59.6376 111.781 60.2262 113.237 60.2262H113.574C114.583 60.2262 115.746 59.4835 117.063 57.9981C118.38 56.5127 120.51 53.6682 123.452 49.4644C126.395 45.2602 128.903 42.2614 130.977 40.4678C133.218 38.5065 134.858 37.5257 135.896 37.5253C136.934 37.5248 137.452 37.7771 137.451 38.2819C137.451 38.7864 137.059 39.487 136.274 40.3837C131.509 45.7645 128.623 49.8842 127.614 52.7427Z" fill="#232323"/>
<path fill-rule="evenodd" clip-rule="evenodd" d="M160.706 52.7427C160.269 53.9128 160.041 55.1509 160.034 56.4C160.034 57.6061 160.566 58.545 161.631 59.2167C163.368 60.2807 165.778 60.0285 168.862 58.46C171.495 57.2278 175.531 54.0889 180.968 49.0435C181.091 48.9384 181.191 48.8099 181.264 48.6655C181.336 48.5211 181.378 48.3638 181.389 48.2027C181.389 47.475 181.081 47.419 180.464 48.0346C176.82 51.3976 173.849 53.8918 171.552 55.5172C169.926 56.5261 168.777 56.9745 168.105 56.8625C167.934 56.852 167.771 56.7902 167.636 56.6852C167.501 56.5802 167.4 56.4368 167.348 56.2739C167.235 55.9376 167.333 55.4191 167.642 54.7186C167.952 54.018 169.087 52.3225 171.048 49.6321C173.009 46.9417 174.256 45.0079 174.789 43.8309C175.322 42.6538 175.588 41.715 175.588 41.0142C175.598 40.4944 175.57 39.9746 175.503 39.4589C174.999 37.1048 173.374 35.9278 170.627 35.9278C167.824 35.9278 164.965 37.5532 162.052 40.8042C160.93 42.0377 159.276 44.0835 157.091 46.9415C158.1 44.3078 158.604 41.8275 158.604 39.5009C158.604 37.1742 157.736 35.6188 155.998 34.8347C155.759 34.7319 155.502 34.6749 155.241 34.6666C154.792 34.6666 154.569 34.8912 154.569 35.3392C154.54 35.4741 154.553 35.6144 154.606 35.7419C154.658 35.8694 154.748 35.9781 154.863 36.0539C155.115 36.2509 155.255 36.6713 155.283 37.315C155.305 37.9937 155.176 38.6687 154.905 39.2914C154.176 40.5814 153.027 42.1507 151.458 43.9996C150.969 44.5465 150.45 45.0657 149.903 45.5549C149.201 46.2006 148.725 46.635 148.473 46.8582C148.222 47.0814 147.703 47.5438 146.918 48.2454C146.134 48.9468 145.573 49.4513 145.236 49.7588C145.082 49.8814 144.964 50.0447 144.898 50.2304C144.831 50.416 144.817 50.6167 144.858 50.8097C144.942 51.2026 145.264 51.1746 145.825 50.7255C147.969 48.9581 150.018 47.0778 151.962 45.0926C149.652 48.5879 147.154 51.9558 144.48 55.1817C143.191 56.8632 142.378 57.9561 142.042 58.4606C143.443 59.6376 144.873 60.2262 146.329 60.2262H146.666C147.675 60.2262 148.838 59.4835 150.155 57.9981C151.472 56.5127 153.602 53.6682 156.545 49.4644C159.487 45.2602 161.995 42.2614 164.069 40.4678C166.31 38.5065 167.95 37.5257 168.988 37.5253C170.026 37.5248 170.544 37.7771 170.543 38.2819C170.543 38.7864 170.151 39.487 169.366 40.3837C164.601 45.7645 161.715 49.8842 160.706 52.7427Z" fill="#232323"/>
<path fill-rule="evenodd" clip-rule="evenodd" d="M210.1 43.6337C210.52 43.1292 210.732 42.6813 210.732 42.2884C210.754 41.9979 210.696 41.7068 210.562 41.4478C209.834 40.2154 208.629 39.5989 206.948 39.5981C206.498 38.2529 205.447 37.0898 203.795 36.1089C202.251 35.16 200.478 34.6512 198.666 34.6377C196.821 34.6514 194.989 34.9637 193.243 35.5625C189.095 36.796 185.62 38.8979 182.818 41.8681C179.119 45.8485 177.269 49.9122 177.269 54.0591C177.26 54.7595 177.41 55.4529 177.709 56.0865C178.008 56.7202 178.447 57.2776 178.993 57.7163C180.152 58.7007 181.634 59.2242 183.154 59.1869C184.779 59.1869 187.035 58.3322 189.922 56.6227C192.81 54.9132 195.514 52.489 198.036 49.3501C197.027 51.7609 196.522 53.5545 196.522 54.731C196.518 55.3044 196.632 55.8726 196.856 56.4004C197.08 56.9282 197.41 57.4044 197.825 57.7997C198.247 58.2264 198.752 58.5622 199.309 58.7864C199.866 59.0105 200.462 59.1183 201.062 59.103C205.434 59.103 212.441 54.5629 222.082 45.4828C222.264 45.3358 222.383 45.1256 222.417 44.8942V44.5578C222.249 44.1664 221.885 44.2504 221.325 44.8101C216.559 49.2951 212.215 52.6581 208.293 54.8991C206.33 55.9645 204.915 56.497 204.047 56.4966C203.179 56.4962 202.745 55.9917 202.744 54.9832C202.744 53.9743 203.234 52.7412 204.215 51.284C205.196 49.8267 206.009 48.6776 206.653 47.8368C207.297 46.9961 207.928 46.2115 208.545 45.4828C209.162 44.7541 209.681 44.1377 210.1 43.6337ZM205.182 38.9685C205.182 40.1745 203.865 42.1503 201.23 44.8958C200.445 45.6814 199.492 46.6062 198.372 47.6703C197.252 48.7343 196.607 49.3509 196.438 49.52C193.467 52.4914 191.071 54.4812 189.25 55.4893C187.429 56.4974 186.126 57.0018 185.34 57.0026C184.387 57.0026 183.91 56.4141 183.911 55.2371C183.911 52.996 185.957 49.4648 190.049 44.6436C192.626 41.6169 195.344 39.4869 198.204 38.2538C199.829 37.5262 201.23 37.1619 202.408 37.161C204.257 37.1603 205.182 37.7628 205.182 38.9685Z" fill="#232323"/>
<path fill-rule="evenodd" clip-rule="evenodd" d="M201.516 4.21858C202.134 4.21858 204.922 7.91789 209.882 15.3165C214.842 22.7151 220.363 31.543 226.444 41.8002C232.526 52.0575 235.567 58.3352 235.567 60.6332C235.581 60.9439 235.553 61.2551 235.482 61.5579C235.204 62.0624 234.84 61.8382 234.39 60.8854C231.755 54.6637 227.005 45.9759 220.139 34.822C213.273 23.6681 206.869 14.1957 200.928 6.40467C200.311 5.56392 200.003 4.94735 200.003 4.55495C200.003 4.27508 200.284 4.13464 200.844 4.13464L201.516 4.21858ZM235.23 12.0376C236.185 12.0376 241.594 19.7165 251.457 35.0742H252.214C256.809 35.1046 261.394 35.5265 265.919 36.3354C274.046 37.7937 279.791 40.2038 283.153 43.5658C285.453 45.8649 286.602 48.219 286.601 50.6281C286.601 53.0952 285.396 55.2532 282.985 57.102L282.228 57.3542C281.781 57.3542 281.725 57.2421 282.061 57.0179C283.183 56.122 283.743 55.1691 283.742 54.1592C283.74 53.1494 283.264 52.0564 282.313 50.8803C279.174 47.2376 272.671 44.5472 262.807 42.8091C261.294 42.5294 258.911 42.1651 255.66 41.7163C265.919 58.5313 271.047 68.34 271.046 71.1425C271.046 71.702 270.921 71.9833 270.668 71.9833C270.416 71.9833 270.15 71.6746 269.869 71.0584C267.123 64.5558 261.603 54.719 253.307 41.548C249.944 41.2117 247.057 41.0435 244.647 41.0435C242.237 41.0435 240.191 41.1276 238.509 41.2957C232.905 41.8002 229.823 42.7531 229.261 44.1544C229.15 44.4354 229.037 44.5747 228.924 44.5747C228.811 44.5747 228.757 44.4631 228.757 44.2385C228.757 40.5956 232.96 37.9052 241.368 36.1673C243.95 35.6625 246.562 35.3254 249.187 35.1584C244.031 27.2553 239.183 20.2771 234.643 14.2237C234.025 13.3829 233.716 12.7663 233.716 12.3739C233.716 12.0941 233.969 11.954 234.473 11.9536L235.23 12.0376Z" fill="#232323"/>
</svg>
