<svg xmlns="http://www.w3.org/2000/svg" width="1386" height="337" viewBox="0 0 1386 337">
  <defs>
    <style>
      .cls-1 {
        fill: #232323;
        fill-rule: evenodd;
      }
    </style>
  </defs>
  <path id="Ha" class="cls-1" d="M422,0.837q-4.59,0-41.458,55t-82.084,131.25q-45.215,76.25-45.208,93.333a16.682,16.682,0,0,0,.417,4.583q2.079,3.75,5.416-3.333,19.581-46.25,70.625-129.167T424.917,11.67Q429.5,5.42,429.5,2.5c0-1.387-1.393-2.083-4.167-2.083ZM254.917,39.587q-7.09,0-80.417,114.166h-3.75A400.974,400.974,0,0,0,102.833,160q-60.419,10.841-85.416,35.834-17.09,17.089-17.083,35,0,18.339,17.917,32.083L22,264.17q3.33,0,.833-1.667-8.34-6.66-8.333-14.166t7.083-16.25q23.33-27.081,96.667-40,11.25-2.081,35.417-5.417-76.251,125-76.25,145.833c0,2.774.625,4.167,1.875,4.167s2.565-1.53,3.958-4.583q20.41-48.34,82.083-146.25,25-2.5,42.917-2.5t30.417,1.25q41.66,3.75,45.833,14.166c0.553,1.394,1.107,2.084,1.667,2.084s0.833-.554.833-1.667q0-27.079-62.5-40a301.729,301.729,0,0,0-38.75-5Q224.08,95.42,257.833,50.42q4.581-6.25,4.584-9.167,0-2.08-3.75-2.083ZM488.873,200.42Q492,196.67,492,193.753a7.829,7.829,0,0,0-.833-4.166q-5.42-9.161-17.917-9.167-3.339-10-15.625-17.292a49.224,49.224,0,0,0-25.416-7.291,84.779,84.779,0,0,0-26.875,4.583q-30.84,9.17-51.667,31.25-27.5,29.59-27.5,60.417a22.867,22.867,0,0,0,8.542,18.125,30.709,30.709,0,0,0,20.625,7.291q12.079,0,33.541-12.708t40.209-36.042q-7.5,17.921-7.5,26.667a20.786,20.786,0,0,0,6.458,15.208,21.778,21.778,0,0,0,16.042,6.459q32.5,0,104.166-67.5a4.583,4.583,0,0,0,1.667-2.917V205q-1.249-2.91-5.417,1.25-35.42,33.341-64.583,50-14.589,7.92-21.042,7.917t-6.458-7.5q0-7.5,7.292-18.333t12.083-17.084q4.785-6.249,9.375-11.666T488.873,200.42ZM464.5,177.3q0,8.965-19.583,29.375-5.84,5.84-14.167,13.75t-9.583,9.167q-22.089,22.089-35.625,29.583t-19.375,7.5q-7.089,0-7.083-8.75,0-16.661,30.416-52.5,19.161-22.5,40.417-31.667,12.081-5.409,20.833-5.416Q464.5,168.337,464.5,177.3Z"/>
  <path id="n" class="cls-1" d="M597.75,241.563a52.689,52.689,0,0,0-3.333,18.125q0,8.966,7.916,13.959,12.911,7.91,35.834-3.75,19.579-9.16,60-46.667a6,6,0,0,0,2.083-4.167q0-5.409-4.583-.833-27.09,25-44.167,37.083-12.09,7.5-17.083,6.667a4.208,4.208,0,0,1-3.75-2.917q-0.84-2.5,1.458-7.708T649,226.147q14.58-20,18.542-28.75t3.958-13.959a52,52,0,0,0-.417-7.708q-3.75-17.5-24.166-17.5-20.841,0-42.5,24.167-8.34,9.17-24.584,30.416,7.5-19.579,7.5-36.875t-12.916-23.125a10.331,10.331,0,0,0-3.75-.833c-2.227,0-3.334,1.113-3.334,3.333a3.4,3.4,0,0,0,1.459,3.542q1.875,1.465,2.083,6.25A22.777,22.777,0,0,1,569,174.9q-5.42,9.589-17.083,23.333a97.956,97.956,0,0,1-7.709,7.708q-5.214,4.8-7.083,6.459t-7.708,6.875q-5.831,5.214-8.334,7.5a5.254,5.254,0,0,0-1.875,5.208q0.625,2.921,4.792-.417a388.07,388.07,0,0,0,30.417-27.916,576.917,576.917,0,0,1-37.084,50q-9.579,12.5-12.083,16.25,10.42,8.75,21.25,8.75h1.667q7.5,0,17.291-11.042t31.667-42.292Q599,194.063,614.417,180.73q16.659-14.58,24.375-14.583t7.708,3.75q0,3.75-5.833,10.416-35.421,40-42.917,61.25h0Z"/>
  <path id="n_copiar" data-name="n copiar" class="cls-1" d="M761.75,241.563a52.689,52.689,0,0,0-3.333,18.125q0,8.966,7.916,13.959,12.911,7.91,35.834-3.75,19.579-9.16,60-46.667a6,6,0,0,0,2.083-4.167q0-5.409-4.583-.833-27.09,25-44.167,37.083-12.09,7.5-17.083,6.667a4.208,4.208,0,0,1-3.75-2.917q-0.84-2.5,1.458-7.708T813,226.147q14.58-20,18.542-28.75t3.958-13.959a52,52,0,0,0-.417-7.708q-3.75-17.5-24.166-17.5-20.841,0-42.5,24.167-8.34,9.17-24.584,30.416,7.5-19.579,7.5-36.875t-12.916-23.125a10.331,10.331,0,0,0-3.75-.833c-2.227,0-3.334,1.113-3.334,3.333a3.4,3.4,0,0,0,1.459,3.542q1.875,1.465,2.083,6.25A22.777,22.777,0,0,1,733,174.9q-5.42,9.589-17.083,23.333a97.956,97.956,0,0,1-7.709,7.708q-5.214,4.8-7.083,6.459t-7.708,6.875q-5.831,5.214-8.334,7.5a5.254,5.254,0,0,0-1.875,5.208q0.625,2.921,4.792-.417a388.07,388.07,0,0,0,30.417-27.916,576.917,576.917,0,0,1-37.084,50q-9.579,12.5-12.083,16.25,10.42,8.75,21.25,8.75h1.667q7.5,0,17.291-11.042t31.667-42.292Q763,194.063,778.417,180.73q16.659-14.58,24.375-14.583t7.708,3.75q0,3.75-5.833,10.416-35.421,40-42.917,61.25h0Z"/>
  <path id="a" class="cls-1" d="M1006.54,196.42c2.08-2.5,3.13-4.72,3.13-6.667a7.762,7.762,0,0,0-.84-4.166q-5.415-9.161-17.913-9.167-3.34-10-15.625-17.292a49.23,49.23,0,0,0-25.417-7.291A84.784,84.784,0,0,0,923,156.42q-30.84,9.17-51.667,31.25-27.5,29.59-27.5,60.417a22.867,22.867,0,0,0,8.542,18.125A30.709,30.709,0,0,0,873,273.5q12.08,0,33.542-12.708t40.208-36.042q-7.5,17.921-7.5,26.667a20.786,20.786,0,0,0,6.458,15.208,21.778,21.778,0,0,0,16.042,6.459q32.5,0,104.17-67.5a4.6,4.6,0,0,0,1.66-2.917V201q-1.245-2.91-5.41,1.25-35.43,33.341-64.587,50-14.589,7.92-21.041,7.917t-6.459-7.5q0-7.5,7.292-18.333t12.083-17.084q4.785-6.249,9.375-11.666T1006.54,196.42ZM982.167,173.3q0,8.965-19.584,29.375-5.839,5.84-14.166,13.75t-9.584,9.167q-22.089,22.089-35.625,29.583t-19.375,7.5q-7.089,0-7.083-8.75,0-16.66,30.417-52.5,19.16-22.5,40.416-31.667,12.081-5.409,20.834-5.416Q982.166,164.337,982.167,173.3Z"/>
  <path id="H" class="cls-1" d="M964,1.083q4.59,0,41.46,55t82.08,131.25q45.21,76.251,45.21,93.334a16.649,16.649,0,0,1-.42,4.583q-2.07,3.75-5.41-3.333-19.59-46.251-70.63-129.167T961.083,11.917Q956.5,5.667,956.5,2.75c0-1.387,1.393-2.083,4.167-2.083Zm167.08,38.75q7.1,0,80.42,114.167h3.75a400.959,400.959,0,0,1,67.92,6.25q60.42,10.841,85.41,35.833,17.1,17.091,17.09,35,0,18.34-17.92,32.084l-3.75,1.25q-3.33,0-.83-1.667,8.34-6.66,8.33-14.167t-7.08-16.25q-23.34-27.079-96.67-40-11.25-2.079-35.42-5.416,76.26,125,76.25,145.833c0,2.773-.62,4.167-1.87,4.167s-2.57-1.53-3.96-4.584q-20.415-48.339-82.08-146.25-25.005-2.5-42.92-2.5t-30.42,1.25q-41.655,3.75-45.83,14.167c-0.55,1.393-1.11,2.083-1.67,2.083s-0.83-.553-0.83-1.666q0-27.081,62.5-40a301.8,301.8,0,0,1,38.75-5q-38.325-58.75-72.08-103.75-4.59-6.25-4.59-9.167,0-2.08,3.75-2.083Z"/>
</svg>
