<svg id="Camada_1" data-name="Camada 1" xmlns="http://www.w3.org/2000/svg" viewBox="0 0 79.8 86.68"><defs><style>.cls-1{fill:#7cd2e3;}.cls-2{fill:#a6e0ec;}</style></defs><path class="cls-1" d="M317.28,203.58a108.22,108.22,0,0,1-19.86,2.33s-13.19-66.28,56.84-71.65a5.52,5.52,0,0,1,5.9,4.64,74,74,0,0,1,.85,10.22C361.27,167,355.29,195.25,317.28,203.58Z" transform="translate(-288.83 -126.64)"/><path class="cls-2" d="M317.28,203.58c.62-17.8,7.54-46,43.73-54.46C361.27,167,355.29,195.25,317.28,203.58Z" transform="translate(-288.83 -126.64)"/><path d="M301.6,213.32c24.53-1.46,42.75-9.31,54.16-23.41a7.6,7.6,0,1,0-11.82-9.57c-8.11,10-21.47,15.91-39.77,17.55-1.82-31,13.43-52.49,48.74-55.88a66.53,66.53,0,0,1,.2,14.39,7.61,7.61,0,1,0,15.14,1.5,81.8,81.8,0,0,0-.57-20.16,13.06,13.06,0,0,0-14-11.06c-58.53,4.48-64.85,48.3-64.85,66.94a85.55,85.55,0,0,0,.49,9.24" transform="translate(-288.83 -126.64)"/><path d="M308.55,206q-1.41-1.29-2.85-2.55a27.8,27.8,0,0,1-4.33-1.67c-2.85-1.53-5.23-3.71-7.75-5.69a36.12,36.12,0,0,0-4.79.38c.16,2,.37,3.88.66,5.77a13.06,13.06,0,0,0,14,11.06c1.76-.13,3.47-.3,5.14-.51C308.41,210.47,308.61,208.14,308.55,206Z" transform="translate(-288.83 -126.64)"/></svg>