<svg id="Camada_1" data-name="Camada 1" xmlns="http://www.w3.org/2000/svg" viewBox="0 0 511.81 192.24"><path d="M73,192.46a51.23,51.23,0,0,0,37.79-61.73A42.5,42.5,0,0,0,59.62,99.38C29.8,106.55,23,146,46.88,160.68a29.67,29.67,0,0,0,20.64,4c14.07-1.18,18.26-19.63,6.39-26.89A14.53,14.53,0,0,0,52.4,146c-9.36-8.74-4.83-28.09,10.76-31.84a27.35,27.35,0,0,1,33,20.17A36,36,0,0,1,69.5,177.73c-32.08,7.72-58.86-18.37-53.51-48.5,4.13-23.29,29.39-47.81,59.85-41.93,12.38,2.4,23.66,9.58,34,17,98.82,70.7,199.35,66.62,292.47,0,10.35-7.4,21.62-14.58,34-17a48,48,0,0,1,36.88,7.9c25.4,17.46,32.62,51.38,10.46,72.25-10.84,10.19-25.78,13.94-41,10.28a36,36,0,0,1-26.61-43.45A27.33,27.33,0,0,1,449,114.11c15.64,3.76,20.07,23.06,10.82,31.78a14.54,14.54,0,0,0-21.52-8.22c-11.35,7-8.12,24.11,4.77,26.67a29.87,29.87,0,0,0,35.68-22.17,35.52,35.52,0,0,0-26.2-42.79,42.5,42.5,0,0,0-51.21,31.35,51.24,51.24,0,0,0,37.79,61.73c20.35,4.9,40.79-.67,54.93-14,28.49-26.82,22-72.23-12.26-95.76a62.67,62.67,0,0,0-48.34-10.29c-27.54,5.32-37.48,21.87-77,42.27,45.42-53,1.74-125.22-58.07-110.84a51.16,51.16,0,0,0-37.8,61.73A42.51,42.51,0,0,0,311.8,96.94,35.51,35.51,0,0,0,338,54.15c-5.79-24.08-36.56-29.24-44.86-15.67A14.55,14.55,0,1,0,318,53.68a14.31,14.31,0,0,0,1.38-3c5.74,5.71,5.78,15.41,1.52,22.36-10.44,17-40.14,11.42-45.53-11a35.82,35.82,0,0,1,4.3-27.24c18.31-29.89,69.61-20.25,78.92,18.45,10.16,42.27-32.08,86.32-102.52,87.3-70.72-1-112.53-45.2-102.4-87.3C163,14.45,214.26,5,232.53,34.8A35.82,35.82,0,0,1,236.83,62a27.35,27.35,0,0,1-32.94,20.18c-15.11-3.64-20.23-22.4-11.08-31.5a14.54,14.54,0,0,0,21.4,7.81c11.77-7.21,7.75-25.2-5.87-26.85a29.88,29.88,0,0,0-34.19,22.47,35.51,35.51,0,0,0,26.2,42.79,42.51,42.51,0,0,0,51.21-31.35,51.15,51.15,0,0,0-37.8-61.73A62.15,62.15,0,0,0,138.89,49.7c-5.56,23.12.66,46.15,16.8,65-38-19.63-49.95-37-77-42.27C40.13,65,6.72,94.73,1.07,126.58-6.27,168,30.94,202.59,73,192.46Z" transform="translate(-0.14 -2)"/><path d="M387.54,137.18A7.58,7.58,0,0,0,377,135.25a222.14,222.14,0,0,1-31.64,18.21,7.57,7.57,0,1,0,6.42,13.72,236.46,236.46,0,0,0,33.83-19.46A7.59,7.59,0,0,0,387.54,137.18Z" transform="translate(-0.14 -2)"/><path d="M322.52,178.43a7.57,7.57,0,1,0-4.41-14.49,207.49,207.49,0,0,1-60.5,8.88c-71.37,0-126.86-35.14-127.7-35.68a7.58,7.58,0,0,0-8.23,12.72c2.41,1.56,59.75,38.11,135.93,38.11A222.44,222.44,0,0,0,322.52,178.43Z" transform="translate(-0.14 -2)"/></svg>