<?xml version="1.0" encoding="utf-8"?>
<!-- Generator: Adobe Illustrator 25.2.1, SVG Export Plug-In . SVG Version: 6.00 Build 0)  -->
<svg version="1.1" xmlns="http://www.w3.org/2000/svg" xmlns:xlink="http://www.w3.org/1999/xlink" x="0px" y="0px"
	 viewBox="0 0 1920 1080" style="enable-background:new 0 0 1920 1080;" xml:space="preserve">
<style type="text/css">
	.st0{fill:url(#SVGID_1_);}
	.st1{opacity:0.1;fill:#4249EE;enable-background:new    ;}
	.st2{fill:#FFFFFF;}
	.st3{fill:#7176F2;}
	.st4{fill:#4249EE;}
</style>
<g id="Resto_2">
	
		<linearGradient id="SVGID_1_" gradientUnits="userSpaceOnUse" x1="290.9015" y1="540.0898" x2="1630.8573" y2="540.0898" gradientTransform="matrix(1 0 0 -1 0 1081)">
		<stop  offset="0" style="stop-color:#E8E9FD;stop-opacity:0.8"/>
		<stop  offset="1" style="stop-color:#B9BBF9"/>
	</linearGradient>
	<path class="st0" d="M1292.2,326.3c-0.5,0-1,0-1.5,0c-83.8-0.1-163.3-36.2-218.4-99.4C990.3,132.8,869.3,73.5,734.4,74.1
		c-244.7,1.1-446.6,206.7-443.5,451.4c3.1,243.4,201.4,439.7,445.5,439.7c68.9,0,134.2-15.7,192.5-43.6
		c50.2-24.1,110.1-17.8,154.3,16.1c57.2,43.8,128.7,69.9,206.3,70c186.8,0.3,340.2-151.8,341.3-338.7
		C1631.9,480.5,1480.5,327.5,1292.2,326.3L1292.2,326.3z"/>
	<path class="st1" d="M1483,252.1c0-115.1-93.3-208.4-208.3-208.4c-87.8,0-162.8,54.3-193.5,131.1H454.3
		c-24.5,0-44.3,19.9-44.3,44.3v578c0,24.5,19.9,44.3,44.3,44.3h807.2c24.5,0,44.3-19.9,44.3-44.3v-339
		C1406.1,443,1483,356.5,1483,252.1L1483,252.1z"/>
</g>
<g id="Resto_1">
	<path class="st2" d="M990.9,1066.9h-266l34.7-137.4l18.5-73.4h159.6l18.5,73.4L990.9,1066.9z"/>
	<path class="st2" d="M1261.5,896.4H454.3c-24.5,0-44.3-19.8-44.3-44.3v-578c0-24.5,19.9-44.3,44.3-44.3h807.2
		c24.5,0,44.3,19.9,44.3,44.3v578C1305.9,876.6,1286,896.4,1261.5,896.4z"/>
	<path class="st3" d="M1261.5,229.8H971.3v666.7h290.2c24.5,0,44.3-19.8,44.3-44.3v-578C1305.9,249.6,1286,229.8,1261.5,229.8z"/>
	<path class="st2" d="M1305.9,342.7v-68.6c0-24.5-19.8-44.3-44.3-44.3H454.3c-24.5,0-44.3,19.9-44.3,44.3v68.6H1305.9z"/>
	<path class="st2" d="M410,778.2v73.8c0,24.5,19.9,44.3,44.3,44.3h807.2c24.5,0,44.3-19.9,44.3-44.3v-73.8H410z"/>
	<path class="st4" d="M499.3,299.5c-7.2,0-13.1-5.9-13.1-13.1v-0.3c0-7.2,5.9-13.1,13.1-13.1c7.2,0,13.1,5.9,13.1,13.1v0.3
		C512.4,293.6,506.5,299.5,499.3,299.5z"/>
	<path class="st4" d="M544.6,299.5c-7.2,0-13.1-5.9-13.1-13.1v-0.3c0-7.2,5.9-13.1,13.1-13.1c7.2,0,13.1,5.9,13.1,13.1v0.3
		C557.7,293.6,551.8,299.5,544.6,299.5z"/>
	<path class="st4" d="M589.9,299.5c-7.2,0-13.1-5.9-13.1-13.1v-0.3c0-7.2,5.9-13.1,13.1-13.1c7.2,0,13.1,5.9,13.1,13.1v0.3
		C603,293.6,597.1,299.5,589.9,299.5z"/>
	<path class="st2" d="M1372.3,442.6v353.8c0,20.9-23.2,33.4-40.6,21.8l-42.6-28.3c-8.8-5.8-20.2-5.8-28.9,0l-42.6,28.3
		c-17.4,11.5-40.6-0.9-40.6-21.8V442.6H1372.3z"/>
	<path class="st2" d="M1421.8,454.4c81.4-81.4,81.4-213.3,0-294.6c-81.4-81.4-213.3-81.4-294.6,0c-81.4,81.4-81.4,213.3,0,294.6
		C1208.5,535.8,1340.4,535.8,1421.8,454.4z"/>
	<path class="st3" d="M1382.9,415.6c59.9-59.9,59.9-157,0-216.9c-59.9-59.9-157-59.9-217,0c-59.9,59.9-59.9,157,0,216.9
		C1225.9,475.5,1323,475.5,1382.9,415.6z"/>
	<path class="st4" d="M1274.6,703.2c7.2,0,13.1-5.9,13.1-13.1v-162c116-6.8,208.3-103.3,208.3-221c0-122.1-99.3-221.4-221.4-221.4
		c-89.9,0-167.4,53.9-202.1,131.1H454.3c-31.7,0-57.4,25.8-57.4,57.4v68.6c0,7.2,5.9,13.1,13.1,13.1h648.7
		c13.8,60.9,52.6,112.3,105.2,142.8v266.5H423V416.5c0-7.2-5.9-13.1-13.1-13.1s-13.1,5.9-13.1,13.1v435.6
		c0,31.7,25.8,57.4,57.4,57.4h296.8l-36.4,144.3h-34.9c-7.2,0-13.1,5.9-13.1,13.1c0,7.2,5.9,13.1,13.1,13.1H1036
		c7.2,0,13.1-5.9,13.1-13.1c0-7.2-5.9-13.1-13.1-13.1h-34.9l-36.4-144.3h296.8c31.7,0,57.4-25.8,57.4-57.4v-26.6l5.5,3.7
		c12.1,8,27.5,8.7,40.3,1.9c12.8-6.8,20.7-20.1,20.7-34.6V563.1c0-7.2-5.9-13.1-13.1-13.1c-7.2,0-13.1,5.9-13.1,13.1v233.3
		c0,7.1-4.8,10.4-6.9,11.5c-2.1,1.1-7.5,3.3-13.4-0.6l-42.6-28.2c-13.2-8.7-30.2-8.7-43.4,0l-42.6,28.2c-5.9,3.9-11.3,1.7-13.4,0.6
		c-2.1-1.1-6.9-4.5-6.9-11.5V511.6c22.3,9.2,46.3,14.9,71.5,16.4v162C1261.5,697.3,1267.4,703.2,1274.6,703.2L1274.6,703.2z
		 M974.1,1053.8H741.7l36.4-144.3h159.6L974.1,1053.8z M1203.1,835.7c7.6,0,15.1-2.2,21.7-6.5l42.6-28.2c4.4-2.9,10.1-2.9,14.5,0
		l10.9,7.3v43.9c0,17.2-14,31.2-31.2,31.2H454.3c-17.2,0-31.3-14-31.3-31.2v-60.8h740.8v5.1c0,14.5,7.9,27.7,20.7,34.6
		C1190.3,834.1,1196.7,835.7,1203.1,835.7L1203.1,835.7z M423,329.6v-55.6c0-17.2,14-31.3,31.3-31.3h608.4
		c-6.2,20.3-9.5,41.9-9.5,64.2c0,7.6,0.4,15.2,1.1,22.6H423z M1079.4,307c0-24.7,4.7-48.4,13.1-70.2c0.9-1.4,1.6-3,1.9-4.7
		c29.4-70.6,99.2-120.3,180.3-120.3c107.7,0,195.3,87.6,195.3,195.3s-87.6,195.3-195.3,195.3S1079.4,414.7,1079.4,307L1079.4,307z"
		/>
	<path class="st4" d="M1067.3,591.1c-3.3,0-6.7-1.3-9.3-3.8c-5.1-5.1-5.1-13.4,0-18.5l6-6l-6-6c-5.1-5.1-5.1-13.4,0-18.5
		c5.1-5.1,13.4-5.1,18.5,0l15.3,15.3c5.1,5.1,5.1,13.4,0,18.5l-15.3,15.3C1074,589.8,1070.6,591.1,1067.3,591.1L1067.3,591.1z"/>
	<path class="st2" d="M941.2,442.7h60.3c4.3,0,7.9,3.5,7.9,7.9v225c0,4.3-3.5,7.9-7.9,7.9h-60.3c-4.3,0-7.9-3.5-7.9-7.9v-225
		C933.3,446.2,936.8,442.7,941.2,442.7L941.2,442.7z"/>
	<path class="st4" d="M1001.5,696.5h-60.3c-11.6,0-20.9-9.4-20.9-21v-225c0-11.6,9.4-20.9,20.9-20.9h60.3c11.6,0,20.9,9.4,20.9,20.9
		v225C1022.4,687.1,1013,696.5,1001.5,696.5z M946.4,670.4h49.9V455.8h-49.9V670.4z"/>
</g>
<g id="Check_3">
	<path class="st4" d="M524.9,784.4c-3.5,0-6.8-1.4-9.3-3.8l-18.3-18.3c-5.1-5.1-5.1-13.4,0-18.5c5.1-5.1,13.4-5.1,18.5,0l9,9
		l32.1-32.1c5.1-5.1,13.4-5.1,18.5,0c5.1,5.1,5.1,13.4,0,18.5l-41.4,41.4C531.7,783,528.4,784.4,524.9,784.4z"/>
</g>
<g id="Linha_8">
	<path class="st4" d="M823.7,743.6h-32.9c-7.4,0-13.4-6-13.4-13.4c0-7.4,6-13.4,13.4-13.4h32.9c7.4,0,13.4,6,13.4,13.4
		C837.1,737.6,831.1,743.6,823.7,743.6z"/>
</g>
<g id="Linha_7">
	<path class="st4" d="M724.6,743.6h-78.5c-7.4,0-13.4-6-13.4-13.4c0-7.4,6-13.4,13.4-13.4h78.5c7.4,0,13.4,6,13.4,13.4
		C738,737.6,732,743.6,724.6,743.6z"/>
</g>
<g id="Check_2">
	<path class="st4" d="M524.9,630.3c-3.5,0-6.8-1.4-9.3-3.8l-18.3-18.3c-5.1-5.1-5.1-13.4,0-18.5c5.1-5.1,13.4-5.1,18.5,0l9,9
		l32.1-32.1c5.1-5.1,13.4-5.1,18.5,0c5.1,5.1,5.1,13.4,0,18.5l-41.4,41.4C531.7,628.9,528.4,630.3,524.9,630.3z"/>
</g>
<g id="Linha_6">
	<path class="st4" d="M823.7,642.7H646.1c-7.4,0-13.4-6-13.4-13.4c0-7.4,6-13.4,13.4-13.4h177.6c7.4,0,13.4,6,13.4,13.4
		C837.1,636.7,831.1,642.7,823.7,642.7z"/>
</g>
<g id="Linha_5">
	<path class="st4" d="M823.7,589.6h-32.9c-7.4,0-13.4-6-13.4-13.4c0-7.4,6-13.4,13.4-13.4h32.9c7.4,0,13.4,6,13.4,13.4
		C837.1,583.6,831.1,589.6,823.7,589.6z"/>
</g>
<g id="Linha_4">
	<path class="st4" d="M724.6,589.6h-78.5c-7.4,0-13.4-6-13.4-13.4c0-7.4,6-13.4,13.4-13.4h78.5c7.4,0,13.4,6,13.4,13.4
		C738,583.6,732,589.6,724.6,589.6z"/>
</g>
<g id="Check_1">
	<path class="st4" d="M524.9,476.3c-3.5,0-6.8-1.4-9.3-3.8l-18.3-18.3c-5.1-5.1-5.1-13.4,0-18.5c5.1-5.1,13.4-5.1,18.5,0l9,9
		l32.1-32.1c5.1-5.1,13.4-5.1,18.5,0c5.1,5.1,5.1,13.4,0,18.5l-41.4,41.4C531.7,474.9,528.4,476.3,524.9,476.3z"/>
</g>
<g id="Linha_3">
	<path class="st4" d="M823.7,488.7H646.1c-7.4,0-13.4-6-13.4-13.4c0-7.4,6-13.4,13.4-13.4h177.6c7.4,0,13.4,6,13.4,13.4
		C837.1,482.7,831.1,488.7,823.7,488.7z"/>
</g>
<g id="Linha_2">
	<path class="st4" d="M823.7,435.5h-32.9c-7.4,0-13.4-6-13.4-13.4c0-7.4,6-13.4,13.4-13.4h32.9c7.4,0,13.4,6,13.4,13.4
		C837.1,429.5,831.1,435.5,823.7,435.5z"/>
</g>
<g id="Linha_1">
	<path class="st4" d="M724.6,435.5h-78.5c-7.4,0-13.4-6-13.4-13.4c0-7.4,6-13.4,13.4-13.4h78.5c7.4,0,13.4,6,13.4,13.4
		C738,429.5,732,435.5,724.6,435.5z"/>
</g>
<g id="Brilho_4">
	<path class="st3" d="M990.9,122.7c-3.3,0-6.7-1.3-9.2-3.8l-28.8-28.8c-2.5-2.5-3.8-5.8-3.8-9.3s1.4-6.8,3.8-9.3l28.8-28.8
		c2.5-2.5,5.8-3.8,9.2-3.8c3.5,0,6.8,1.4,9.3,3.8l28.8,28.8c5.1,5.1,5.1,13.4,0,18.5l-28.8,28.8
		C997.6,121.4,994.3,122.7,990.9,122.7L990.9,122.7z M980.6,80.8l10.3,10.3l10.3-10.3l-10.3-10.3L980.6,80.8z"/>
</g>
<g id="Brilho_3">
	<path class="st3" d="M579.4,1080c-3.5,0-6.8-1.4-9.3-3.8l-28.8-28.8c-5.1-5.1-5.1-13.4,0-18.5l28.8-28.8c2.5-2.5,5.8-3.8,9.3-3.8
		c3.5,0,6.8,1.4,9.3,3.8l28.8,28.8c2.5,2.5,3.8,5.8,3.8,9.3c0,3.5-1.4,6.8-3.8,9.3l-28.8,28.8C586.2,1078.6,582.8,1080,579.4,1080
		L579.4,1080z M569,1038.1l10.3,10.3l10.3-10.3l-10.3-10.3L569,1038.1z"/>
</g>
<g id="Brilho_2">
	<path class="st3" d="M1483,551.5c-7.2,0-13.1-5.9-13.1-13.1c0-8.7-7.1-15.7-15.8-15.7c-7.2,0-13.1-5.9-13.1-13.1
		c0-7.2,5.9-13.1,13.1-13.1c8.7,0,15.8-7.1,15.8-15.7c0-7.2,5.9-13.1,13.1-13.1c7.2,0,13.1,5.9,13.1,13.1c0,8.7,7.1,15.7,15.8,15.7
		c7.2,0,13.1,5.9,13.1,13.1c0,7.2-5.9,13.1-13.1,13.1c-8.7,0-15.8,7.1-15.8,15.7C1496.1,545.7,1490.2,551.5,1483,551.5z"/>
</g>
<g id="Brilho_1">
	<path class="st3" d="M871.9,85.6c-7.2,0-13.1-5.9-13.1-13.1c0-8.7-7.1-15.7-15.7-15.7c-7.2,0-13.1-5.9-13.1-13.1
		c0-7.2,5.9-13.1,13.1-13.1c8.7,0,15.7-7.1,15.7-15.7c0-7.2,5.9-13.1,13.1-13.1c7.2,0,13.1,5.9,13.1,13.1c0,8.7,7.1,15.7,15.7,15.7
		c7.2,0,13.1,5.9,13.1,13.1c0,7.2-5.9,13.1-13.1,13.1c-8.7,0-15.7,7.1-15.7,15.7C885,79.8,879.1,85.6,871.9,85.6z"/>
</g>
</svg>
