<?xml version="1.0" encoding="utf-8"?>
<!-- Generator: Adobe Illustrator 25.2.1, SVG Export Plug-In . SVG Version: 6.00 Build 0)  -->
<svg version="1.1" xmlns="http://www.w3.org/2000/svg" xmlns:xlink="http://www.w3.org/1999/xlink" x="0px" y="0px"
	 viewBox="0 0 1920 1080" style="enable-background:new 0 0 1920 1080;" xml:space="preserve">
<style type="text/css">
	.st0{fill:url(#SVGID_1_);}
	.st1{opacity:0.1;fill:#4249EE;stroke:#4249EE;enable-background:new    ;}
	.st2{fill:#FFFFFF;}
	.st3{fill:#4249EE;stroke:#4249EE;}
	.st4{fill:#7176F2;}
	.st5{fill:#4249EE;stroke:#4249EE;stroke-width:10;stroke-miterlimit:10;}
</style>
<g id="Resto_3">
	
		<linearGradient id="SVGID_1_" gradientUnits="userSpaceOnUse" x1="72.5491" y1="501.2365" x2="1794.4519" y2="432.9704" gradientTransform="matrix(1 0 0 -1 0 1082)">
		<stop  offset="0" style="stop-color:#D0D1FB;stop-opacity:0.8"/>
		<stop  offset="1" style="stop-color:#B9BBF9"/>
	</linearGradient>
	<path class="st0" d="M1662.2,280c-108-111.1-276.6-126.5-401.4-46c-35.5,22.9-78.5,30.6-119.7,21.4
		c-97.6-21.7-199.7-6.9-286.6,40.3c-58.5,31.7-129.6,26.2-184.2-11.8c-36.2-25.3-78.3-43.4-124.5-51.9
		c-171.4-31.6-338,82.1-371,253.2c-33.7,175,82.3,343.2,257.2,374.4c42.7,7.6,85,6.3,124.9-2.5c64.7-14.4,132.4,9.7,174.1,61.1
		c26.4,32.5,58.2,61.5,95.1,85.6c190.9,124.5,446.5,70.8,571-120.1c0.1-0.2,0.3-0.4,0.4-0.6c22.8-35.1,58.3-60.1,99.3-68.4
		c59.8-12.1,116.9-41.4,163.1-88.1C1781.7,603.8,1782.7,404,1662.2,280L1662.2,280z"/>
	<path class="st1" d="M1470.5,517.7v3.2h3.2h151.5c15.3,0,27.8,12.4,27.8,27.8v217.6H268V455.8c0-15.3,12.4-27.8,27.8-27.8h240.5
		h3.2v-3.2v-245c0-23.9,19.4-43.2,43.2-43.2h844.5c23.9,0,43.2,19.4,43.2,43.2V517.7z"/>
</g>
<g id="Resto_2">
	<path class="st2" d="M1144.2,1065H865.8l36.5-144.4l19.2-76.2h167l19.2,76.2L1144.2,1065z"/>
	<path class="st2" d="M1427.3,886.6H582.7c-25.6,0-46.4-20.8-46.4-46.4V235.6c0-25.6,20.8-46.4,46.4-46.4h844.5
		c25.6,0,46.4,20.8,46.4,46.4v604.7C1473.6,865.9,1452.9,886.6,1427.3,886.6z"/>
</g>
<g id="Linha_3">
	<path class="st3" d="M1234.6,671.2h-51.1c-6.8,0-12.3-5.5-12.3-12.3c0-6.8,5.5-12.3,12.3-12.3h51.1c6.8,0,12.3,5.5,12.3,12.3
		C1246.9,665.7,1241.3,671.2,1234.6,671.2z"/>
</g>
<g id="Linha_2">
	<path class="st3" d="M1070.7,671.2H741.4c-6.8,0-12.3-5.5-12.3-12.3c0-6.8,5.5-12.3,12.3-12.3h329.3c6.8,0,12.3,5.5,12.3,12.3
		C1083,665.7,1077.5,671.2,1070.7,671.2z"/>
</g>
<g id="Linha_1">
	<path class="st3" d="M1070.7,609.3H741.4c-6.8,0-12.3-5.5-12.3-12.3c0-6.8,5.5-12.3,12.3-12.3h329.3c6.8,0,12.3,5.5,12.3,12.3
		C1083,603.8,1077.5,609.3,1070.7,609.3z"/>
</g>
<g id="Tela_4">
	<path class="st4" d="M1346.6,540.2H663.4c-5.1,0-9.3-4.2-9.3-9.3V307.4h701.8v223.5C1355.9,536,1351.7,540.2,1346.6,540.2
		L1346.6,540.2z"/>
</g>
<g id="Resto_1">
	<path class="st2" d="M1473.6,307.4v-71.8c0-25.6-20.8-46.4-46.4-46.4H582.7c-25.6,0-46.4,20.8-46.4,46.4v71.8H1473.6z"/>
	<path class="st2" d="M536.3,763v77.3c0,25.6,20.8,46.4,46.4,46.4h844.5c25.6,0,46.4-20.8,46.4-46.4V763H536.3z"/>
	<path class="st4" d="M1625.2,1065h-228.8c-17.1,0-30.9-13.8-30.9-30.9V604.3c0-17.1,13.8-30.9,30.9-30.9h228.8
		c17.1,0,30.9,13.8,30.9,30.9v429.8C1656.1,1051.2,1642.3,1065,1625.2,1065z"/>
	<path class="st2" d="M1365.4,873.4v160.7c0,17.1,13.8,30.9,30.9,30.9h228.8c17.1,0,30.9-13.8,30.9-30.9V873.4H1365.4z"/>
	<path class="st2" d="M1569.6,617.3l14.3-44h-146.4l14.3,44c2.1,6.4,8,10.7,14.7,10.7h88.3C1561.6,628,1567.5,623.7,1569.6,617.3
		L1569.6,617.3z"/>
	<path class="st2" d="M710.2,1065H295.8c-17.1,0-30.9-13.8-30.9-30.9V511.5c0-17.1,13.8-30.9,30.9-30.9h414.4
		c17.1,0,30.9,13.8,30.9,30.9v522.6C741.1,1051.2,727.3,1065,710.2,1065z"/>
	<path class="st2" d="M741.1,581.6v-70.1c0-17.1-13.8-30.9-30.9-30.9H295.8c-17.1,0-30.9,13.8-30.9,30.9v70.1H741.1z"/>
	<path class="st3" d="M617.5,248.1c0-6.8,5.5-12.3,12.3-12.3c6.8,0,12.3,5.5,12.3,12.3v0.4c0,6.8-5.5,12.3-12.3,12.3
		c-6.8,0-12.3-5.5-12.3-12.3V248.1z"/>
	<path class="st3" d="M664.9,248.1c0-6.8,5.5-12.3,12.3-12.3c6.8,0,12.3,5.5,12.3,12.3v0.4c0,6.8-5.5,12.3-12.3,12.3
		c-6.8,0-12.3-5.5-12.3-12.3V248.1z"/>
	<path class="st3" d="M712.3,248.1c0-6.8,5.5-12.3,12.3-12.3c6.8,0,12.3,5.5,12.3,12.3v0.4c0,6.8-5.5,12.3-12.3,12.3
		c-6.8,0-12.3-5.5-12.3-12.3V248.1z"/>
	<path class="st3" d="M1485.9,557.9v3.2h3.2h136.1c23.8,0,43.2,19.4,43.2,43.2v429.8c0,23.8-19.4,43.2-43.2,43.2h-228.8
		c-23.8,0-43.2-19.4-43.2-43.2v-132v-3.2h-3.2h-231h-4l1,3.9l37.2,147.5l0.6,2.4h2.5h35.1c6.8,0,12.3,5.5,12.3,12.3
		c0,6.8-5.5,12.3-12.3,12.3H818.7c-6.8,0-12.3-5.5-12.3-12.3c0-6.8,5.5-12.3,12.3-12.3h35.1h2.5l0.6-2.4l37.2-147.5l1-3.9h-4H756.6
		h-3.2v3.2v132c0,23.8-19.4,43.2-43.2,43.2H295.8c-23.8,0-43.2-19.4-43.2-43.2V511.5c0-23.8,19.4-43.2,43.2-43.2h414.4
		c23.8,0,43.2,19.4,43.2,43.2v236.1v3.2h3.2h608.8c6.8,0,12.3,5.5,12.3,12.3v271.1c0,10.3,8.3,18.6,18.6,18.6h228.8
		c10.3,0,18.6-8.3,18.6-18.6V604.3c0-10.3-8.3-18.6-18.6-18.6h-30h-2.3l-0.7,2.2l-10.8,33.3c0,0,0,0,0,0
		c-3.7,11.5-14.3,19.2-26.4,19.2h-88.3c-12.1,0-22.7-7.7-26.4-19.2c0,0,0,0,0,0l-10.8-33.3l-0.7-2.2h-2.3h-30
		c-10.3,0-18.6,8.3-18.6,18.6v73.6c0,6.8-5.5,12.3-12.3,12.3s-12.3-5.5-12.3-12.3v-73.6c0-23.8,19.4-43.2,43.2-43.2h61.8h3.2v-3.2
		v-235v-3.2h-3.2H551.8h-3.2v3.2v72.6c0,6.8-5.5,12.3-12.3,12.3c-6.8,0-12.3-5.5-12.3-12.3V235.6c0-32.4,26.3-58.7,58.7-58.7h844.5
		c32.4,0,58.7,26.3,58.7,58.7V557.9z M548.6,291.9v3.2h3.2h906.4h3.2v-3.2v-56.4c0-18.8-15.3-34.1-34.1-34.1H582.7
		c-18.8,0-34.1,15.3-34.1,34.1V291.9z M1554.9,615.7h2.3l0.7-2.2l7.7-23.7l1.3-4.1h-4.3h-103.8h-4.3l1.3,4.1l7.7,23.7l0.7,2.2h2.3
		H1554.9z M725.6,569.3h3.2v-3.2v-54.6c0-10.3-8.3-18.6-18.6-18.6H295.8c-10.3,0-18.6,8.3-18.6,18.6v54.6v3.2h3.2H725.6z
		 M280.3,593.9h-3.2v3.2v437.1c0,10.3,8.3,18.6,18.6,18.6h414.4c10.3,0,18.6-8.3,18.6-18.6V597v-3.2h-3.2H280.3z M1124.3,1052.7h4
		l-1-3.9l-37.2-147.5l-0.6-2.4h-2.5H922.9h-2.5l-0.6,2.4l-37.2,147.5l-1,3.9h4H1124.3z M753.4,871.2v3.2h3.2h593.4h3.2v-3.2v-92.7
		v-3.2h-3.2H756.6h-3.2v3.2V871.2z"/>
	<path class="st3" d="M358.1,531.2c0,6.8-5.5,12.3-12.3,12.3c-6.8,0-12.3-5.5-12.3-12.3v-0.4c0-6.8,5.5-12.3,12.3-12.3
		c6.8,0,12.3,5.5,12.3,12.3V531.2z"/>
	<path class="st3" d="M405.5,531.2c0,6.8-5.5,12.3-12.3,12.3c-6.8,0-12.3-5.5-12.3-12.3v-0.4c0-6.8,5.5-12.3,12.3-12.3
		c6.8,0,12.3,5.5,12.3,12.3V531.2z"/>
	<path class="st3" d="M452.9,531.2c0,6.8-5.5,12.3-12.3,12.3s-12.3-5.5-12.3-12.3v-0.4c0-6.8,5.5-12.3,12.3-12.3s12.3,5.5,12.3,12.3
		V531.2z"/>
	<path class="st3" d="M1007.2,406.1l-2.2-2.2l-2.2,2.2l-7.1,7.1l2.2,2.2l-2.2-2.2c-4.8,4.8-12.6,4.8-17.4,0
		c-4.8-4.8-4.8-12.6,0-17.4l0,0l18-18l0,0c4.8-4.8,12.6-4.8,17.4,0v0l18,18l0,0c4.8,4.8,4.8,12.6,0,17.4v0c-2.4,2.4-5.6,3.6-8.7,3.6
		c-3.2,0-6.3-1.2-8.7-3.6c0,0,0,0,0,0L1007.2,406.1z"/>
	<path class="st2" d="M1479.9,992.9h-43.3c-5.1,0-9.3-4.2-9.3-9.3V718.3c0-5.1,4.2-9.3,9.3-9.3h43.3c5.1,0,9.3,4.2,9.3,9.3v265.4
		C1489.1,988.8,1485,992.9,1479.9,992.9z"/>
	<path class="st3" d="M1292.3,466.4c7.8,0,14.1,6.3,14.1,14.1c0,7.8-6.3,14.1-14.1,14.1c-7.8,0-14.1-6.3-14.1-14.1
		C1278.2,472.7,1284.5,466.4,1292.3,466.4z"/>
	<path class="st3" d="M1292.3,414.1c7.8,0,14.1,6.3,14.1,14.1c0,7.8-6.3,14.1-14.1,14.1c-7.8,0-14.1-6.3-14.1-14.1
		C1278.2,420.4,1284.5,414.1,1292.3,414.1z"/>
	<path class="st3" d="M1292.3,361.8c7.8,0,14.1,6.3,14.1,14.1c0,7.8-6.3,14.1-14.1,14.1c-7.8,0-14.1-6.3-14.1-14.1
		C1278.2,368.1,1284.5,361.8,1292.3,361.8z"/>
</g>
<g id="Tela_3">
	<path class="st4" d="M659.1,1002.7H504.5c-5.1,0-9.3-4.2-9.3-9.3V818.6c0-5.1,4.2-9.3,9.3-9.3h154.6c5.1,0,9.3,4.2,9.3,9.3v174.8
		C668.4,998.6,664.2,1002.7,659.1,1002.7z"/>
</g>
<g id="Tela_2">
	<path class="st4" d="M659.1,766.2H504.5c-5.1,0-9.3-4.2-9.3-9.3v-95.8c0-5.1,4.2-9.3,9.3-9.3h154.6c5.1,0,9.3,4.1,9.3,9.3V757
		C668.4,762.1,664.2,766.2,659.1,766.2z"/>
</g>
<g id="Tela_1">
	<path class="st4" d="M442.7,1002.7h-95.8c-5.1,0-9.3-4.1-9.3-9.3V661.1c0-5.1,4.2-9.3,9.3-9.3h95.8c5.1,0,9.3,4.1,9.3,9.3v332.4
		C452,998.6,447.8,1002.7,442.7,1002.7z"/>
</g>
<g id="Tela_5">
	<path class="st5" d="M1479.9,992.9h-43.3c-5.1,0-9.3-4.2-9.3-9.3V718.3c0-5.1,4.2-9.3,9.3-9.3h43.3c5.1,0,9.3,4.2,9.3,9.3v265.4
		C1489.1,988.8,1485,992.9,1479.9,992.9z"/>
</g>
<g id="Brilho_4">
	<path class="st4" d="M1399.2,101.9c-8.5,0-15.5-6.9-15.5-15.5c0-10.2-8.3-18.5-18.6-18.5c-8.5,0-15.5-6.9-15.5-15.5
		c0-8.5,6.9-15.5,15.5-15.5c10.2,0,18.6-8.3,18.6-18.5c0-8.5,6.9-15.5,15.5-15.5c8.5,0,15.5,6.9,15.5,15.5
		c0,10.2,8.3,18.5,18.6,18.5c8.5,0,15.5,6.9,15.5,15.5c0,8.5-6.9,15.5-15.5,15.5c-10.2,0-18.6,8.3-18.6,18.5
		C1414.6,95,1407.7,101.9,1399.2,101.9z"/>
</g>
<g id="Brilho_3">
	<path class="st4" d="M1583.9,502.6c-8.5,0-15.5-6.9-15.5-15.5c0-10.2-8.3-18.5-18.6-18.5c-8.5,0-15.5-6.9-15.5-15.5
		c0-8.5,6.9-15.5,15.5-15.5c10.2,0,18.6-8.3,18.6-18.5c0-8.5,6.9-15.5,15.5-15.5s15.5,6.9,15.5,15.5c0,10.2,8.3,18.5,18.5,18.5
		c8.5,0,15.5,6.9,15.5,15.5c0,8.5-6.9,15.5-15.5,15.5c-10.2,0-18.5,8.3-18.5,18.5C1599.4,495.7,1592.5,502.6,1583.9,502.6z"/>
</g>
<g id="Brilho_2">
	<path class="st4" d="M1540.6,170.5c-4,0-7.9-1.5-10.9-4.5l-34-34c-6-6-6-15.8,0-21.9l34-34c6-6,15.8-6,21.9,0l34,34
		c6,6,6,15.8,0,21.9l-34,34C1548.6,168.9,1544.6,170.5,1540.6,170.5L1540.6,170.5z M1528.5,121l12.1,12.1l12.1-12.1l-12.1-12.1
		L1528.5,121z"/>
</g>
<g id="Brilho_1">
	<path class="st4" d="M394.8,394.4c-4,0-7.9-1.5-10.9-4.5l-34-34c-6-6-6-15.8,0-21.9l34-34c6-6,15.8-6,21.9,0l34,34
		c6,6,6,15.8,0,21.9l-34,34C402.7,392.9,398.7,394.4,394.8,394.4L394.8,394.4z M382.6,344.9l12.1,12.1l12.1-12.1l-12.1-12.1
		L382.6,344.9z"/>
</g>
</svg>
