<svg width="213" height="171" viewBox="0 0 213 171" fill="none" xmlns="http://www.w3.org/2000/svg">
<path d="M158.808 51.4718C158.728 51.4714 158.648 51.471 158.568 51.471C145.272 51.4503 132.674 45.7248 123.935 35.7042C110.916 20.7767 91.7256 11.3721 70.3409 11.4671C31.527 11.6394 -0.495999 44.2497 0.0058187 83.0607C0.505146 121.656 31.9474 152.79 70.6617 152.79C81.5959 152.79 91.9489 150.305 101.189 145.87C109.156 142.046 118.649 143.054 125.665 148.427C134.739 155.378 146.082 159.515 158.391 159.536C188.019 159.585 212.342 135.454 212.514 105.826C212.688 75.9198 188.672 51.6478 158.808 51.4718V51.4718Z" fill="url(#paint0_linear)"/>
<path opacity="0.1" d="M189.06 39.6926C189.06 21.4429 174.266 6.64816 156.016 6.64816C142.098 6.64816 130.199 15.2567 125.329 27.4356H25.914C22.0302 27.4356 18.8819 30.5839 18.8819 34.4673V126.134C18.8819 130.017 22.0302 133.166 25.914 133.166H153.941C157.824 133.166 160.973 130.017 160.973 126.134V72.3656C176.871 69.9739 189.06 56.2576 189.06 39.6926V39.6926Z" fill="#E93E3E"/>
<path d="M111.021 168.926H68.8329L74.3313 147.129L77.2696 135.485H102.585L105.523 147.129L111.021 168.926Z" fill="white"/>
<path d="M153.941 141.882H25.914C22.0302 141.882 18.8819 138.734 18.8819 134.85V43.1841C18.8819 39.3003 22.0302 36.1525 25.914 36.1525H153.941C157.824 36.1525 160.973 39.3008 160.973 43.1841V134.85C160.973 138.734 157.824 141.882 153.941 141.882Z" fill="white"/>
<path d="M153.941 36.1521H107.914V141.882H153.941C157.824 141.882 160.973 138.734 160.973 134.85V43.1842C160.973 39.3004 157.824 36.1521 153.941 36.1521Z" fill="#EE6E6E"/>
<path d="M68.7786 117.648H56.3344C55.1601 117.648 54.208 116.696 54.208 115.521C54.208 114.347 55.1597 113.395 56.3344 113.395H68.7786C69.9528 113.395 70.9049 114.347 70.9049 115.521C70.9049 116.696 69.9528 117.648 68.7786 117.648Z" fill="#E93E3E"/>
<path d="M84.5034 117.648H79.2831C78.1089 117.648 77.1567 116.696 77.1567 115.521C77.1567 114.347 78.1085 113.395 79.2831 113.395H84.5034C85.6777 113.395 86.6298 114.347 86.6298 115.521C86.6298 116.696 85.6781 117.648 84.5034 117.648Z" fill="#E93E3E"/>
<path d="M84.5034 126.082H56.3344C55.1601 126.082 54.208 125.13 54.208 123.956C54.208 122.781 55.1597 121.829 56.3344 121.829H84.5034C85.6777 121.829 86.6298 122.781 86.6298 123.956C86.6298 125.13 85.6781 126.082 84.5034 126.082Z" fill="#F49F9F"/>
<path d="M37.1109 124.111C36.5605 124.111 36.0325 123.892 35.6436 123.503L32.7473 120.607C31.9366 119.796 31.9366 118.482 32.7473 117.672C33.5571 116.862 34.872 116.862 35.6818 117.672L37.1105 119.101L42.2075 114.004C43.0173 113.193 44.3323 113.193 45.1421 114.004C45.9527 114.814 45.9527 116.128 45.1421 116.939L38.5777 123.503C38.1892 123.892 37.6613 124.111 37.1109 124.111Z" fill="#E93E3E"/>
<path d="M160.973 54.0702V43.1842C160.973 39.3004 157.824 36.1521 153.941 36.1521H25.914C22.0306 36.1521 18.8819 39.3004 18.8819 43.1842V54.0702H160.973Z" fill="white"/>
<path d="M18.8819 123.139V134.85C18.8819 138.734 22.0302 141.882 25.914 141.882H153.941C157.824 141.882 160.973 138.733 160.973 134.85V123.139H18.8819Z" fill="white"/>
<path d="M33.0474 47.2136C31.9009 47.2136 30.972 46.2843 30.972 45.1383V45.0843C30.972 43.9383 31.9009 43.009 33.0474 43.009C34.1938 43.009 35.1227 43.9383 35.1227 45.0843V45.1383C35.1227 46.2843 34.1938 47.2136 33.0474 47.2136Z" fill="#E93E3E"/>
<path d="M40.2351 47.2136C39.0887 47.2136 38.1598 46.2843 38.1598 45.1383V45.0843C38.1598 43.9383 39.0887 43.009 40.2351 43.009C41.3815 43.009 42.3104 43.9383 42.3104 45.0843V45.1383C42.3104 46.2843 41.3815 47.2136 40.2351 47.2136Z" fill="#E93E3E"/>
<path d="M47.4237 47.2136C46.2773 47.2136 45.3483 46.2843 45.3483 45.1383V45.0843C45.3483 43.9383 46.2773 43.009 47.4237 43.009C48.5701 43.009 49.499 43.9383 49.499 45.0843V45.1383C49.499 46.2843 48.5697 47.2136 47.4237 47.2136Z" fill="#E93E3E"/>
<path d="M171.513 69.9088V126.022C171.513 129.334 167.828 131.314 165.067 129.484L158.31 125.001C156.92 124.079 155.114 124.079 153.724 125.001L146.962 129.484C144.206 131.314 140.52 129.334 140.52 126.022V69.9088H171.513Z" fill="white"/>
<path d="M179.354 71.7809C192.257 58.8781 192.257 37.9587 179.354 25.056C166.452 12.1533 145.532 12.1533 132.63 25.056C119.727 37.9587 119.727 58.8781 132.63 71.7809C145.532 84.6836 166.452 84.6836 179.354 71.7809Z" fill="white"/>
<path d="M173.196 65.6221C182.697 56.1208 182.697 40.7161 173.196 31.2147C163.694 21.7134 148.29 21.7134 138.788 31.2147C129.287 40.7161 129.287 56.1208 138.788 65.6221C148.29 75.1235 163.694 75.1235 173.196 65.6221Z" fill="#EE6E6E"/>
<path d="M156.016 111.237C157.162 111.237 158.091 110.308 158.091 109.162V83.462C176.493 82.3837 191.135 67.0768 191.135 48.409C191.135 29.044 175.381 13.2892 156.016 13.2892C141.755 13.2892 129.461 21.8384 123.967 34.0767H25.9136C20.8917 34.0767 16.8066 38.1622 16.8066 43.1837V54.0702C16.8066 55.2162 17.7355 56.1455 18.8819 56.1455H121.766C123.947 65.8033 130.114 73.9611 138.445 78.7971V121.063H20.9572V65.7626C20.9572 64.6166 20.0283 63.6873 18.8819 63.6873C17.7355 63.6873 16.8066 64.6166 16.8066 65.7626V134.85C16.8066 139.872 20.8921 143.957 25.9136 143.957H72.9915L67.215 166.849H61.6825C60.5361 166.849 59.6072 167.778 59.6072 168.924C59.6072 170.07 60.5361 171 61.6825 171H118.172C119.319 171 120.247 170.07 120.247 168.924C120.247 167.778 119.319 166.849 118.172 166.849H112.64L106.863 143.957H153.941C158.963 143.957 163.048 139.872 163.048 134.85V130.634L163.921 131.213C165.836 132.482 168.283 132.595 170.306 131.509C172.33 130.422 173.587 128.321 173.587 126.024V89.0169C173.587 87.8709 172.658 86.9415 171.512 86.9415C170.365 86.9415 169.436 87.8709 169.436 89.0169V126.024C169.436 127.144 168.671 127.676 168.343 127.852C168.014 128.029 167.149 128.373 166.214 127.753L159.457 123.272C157.367 121.887 154.665 121.887 152.576 123.272L145.817 127.753C144.885 128.372 144.018 128.029 143.69 127.852C143.361 127.676 142.596 127.144 142.596 126.024V80.8579C146.126 82.3235 149.944 83.2279 153.941 83.462V109.162C153.941 110.308 154.87 111.237 156.016 111.237V111.237ZM108.359 166.849H71.4956L77.2721 143.958H102.583L108.359 166.849ZM144.671 132.251C145.873 132.251 147.071 131.903 148.111 131.213L154.869 126.732C155.566 126.271 156.466 126.271 157.163 126.732L158.897 127.883V134.851C158.897 137.584 156.674 139.807 153.941 139.807H25.9136C23.1804 139.807 20.9572 137.584 20.9572 134.851V125.215H138.445V126.024C138.445 128.322 139.702 130.424 141.726 131.51C142.65 132.005 143.662 132.251 144.671 132.251V132.251ZM20.9572 51.9948V43.1837C20.9572 40.4509 23.1804 38.2274 25.9136 38.2274H122.407C121.428 41.4521 120.896 44.8689 120.896 48.409C120.896 49.6194 120.958 50.8156 121.078 51.9948H20.9572ZM125.047 48.409C125.047 44.485 125.788 40.7332 127.125 37.2752C127.27 37.0507 127.372 36.7971 127.422 36.524C132.092 25.3296 143.148 17.4399 156.016 17.4399C173.092 17.4399 186.984 31.3327 186.984 48.409C186.984 65.4854 173.092 79.3777 156.016 79.3777C138.94 79.3777 125.047 65.4854 125.047 48.409V48.409Z" fill="#E93E3E"/>
<path d="M68.7786 68.7856H56.3344C55.1602 68.7856 54.208 67.8334 54.208 66.6592C54.208 65.4849 55.1597 64.5328 56.3344 64.5328H68.7786C69.9528 64.5328 70.905 65.4849 70.905 66.6592C70.9045 67.8334 69.9528 68.7856 68.7786 68.7856Z" fill="#E93E3E"/>
<path d="M84.5034 68.7856H79.2831C78.1089 68.7856 77.1567 67.8334 77.1567 66.6592C77.1567 65.4849 78.1085 64.5328 79.2831 64.5328H84.5034C85.6777 64.5328 86.6298 65.4849 86.6298 66.6592C86.6298 67.8334 85.6781 68.7856 84.5034 68.7856Z" fill="#E93E3E"/>
<path d="M84.5034 77.2194H56.3344C55.1602 77.2194 54.208 76.2672 54.208 75.093C54.208 73.9188 55.1597 72.9666 56.3344 72.9666H84.5034C85.6777 72.9666 86.6298 73.9188 86.6298 75.093C86.6298 76.2672 85.6781 77.2194 84.5034 77.2194Z" fill="#E93E3E"/>
<path d="M37.1109 75.2482C36.5605 75.2482 36.0325 75.0295 35.6436 74.6405L32.7473 71.7442C31.9366 70.9336 31.9366 69.6195 32.7473 68.8092C33.5571 67.999 34.872 67.999 35.6818 68.8092L37.1105 70.2379L42.2075 65.1409C43.0173 64.3306 44.3323 64.3306 45.1421 65.1409C45.9527 65.9515 45.9527 67.2656 45.1421 68.0758L38.5777 74.6405C38.1892 75.0295 37.6613 75.2482 37.1109 75.2482Z" fill="#E93E3E"/>
<path d="M68.7786 93.2165H56.3344C55.1602 93.2165 54.208 92.2644 54.208 91.0901C54.208 89.9159 55.1597 88.9637 56.3344 88.9637H68.7786C69.9528 88.9637 70.905 89.9159 70.905 91.0901C70.9045 92.2648 69.9528 93.2165 68.7786 93.2165Z" fill="#E93E3E"/>
<path d="M84.5034 93.2165H79.2831C78.1089 93.2165 77.1567 92.2644 77.1567 91.0901C77.1567 89.9159 78.1085 88.9637 79.2831 88.9637H84.5034C85.6777 88.9637 86.6298 89.9159 86.6298 91.0901C86.6298 92.2648 85.6781 93.2165 84.5034 93.2165Z" fill="#E93E3E"/>
<path d="M84.5034 101.651H56.3344C55.1602 101.651 54.208 100.699 54.208 99.5243C54.208 98.3501 55.1597 97.3979 56.3344 97.3979H84.5034C85.6777 97.3979 86.6298 98.3501 86.6298 99.5243C86.6298 100.699 85.6781 101.651 84.5034 101.651Z" fill="#E93E3E"/>
<path d="M37.1109 99.6796C36.5605 99.6796 36.0325 99.4609 35.6436 99.0719L32.7473 96.1756C31.9366 95.3649 31.9366 94.0508 32.7473 93.2406C33.5571 92.4304 34.872 92.4304 35.6818 93.2406L37.1105 94.6693L42.2075 89.5722C43.0173 88.762 44.3323 88.762 45.1421 89.5722C45.9527 90.3829 45.9527 91.697 45.1421 92.5072L38.5777 99.0719C38.1892 99.4609 37.6613 99.6796 37.1109 99.6796Z" fill="#E93E3E"/>
<path d="M123.131 93.4639C122.6 93.4639 122.068 93.2614 121.663 92.8563C120.853 92.0456 120.853 90.7319 121.663 89.9213L122.62 88.9646L121.663 88.0074C120.853 87.1968 120.853 85.8827 121.663 85.0725C122.474 84.2623 123.788 84.2618 124.598 85.0725L127.022 87.4969C127.832 88.3075 127.832 89.6212 127.022 90.4314L124.598 92.8554C124.193 93.2614 123.662 93.4639 123.131 93.4639V93.4639Z" fill="#E93E3E"/>
<path d="M103.133 69.9275H112.696C113.385 69.9275 113.943 70.4857 113.943 71.1747V106.859C113.943 107.548 113.385 108.107 112.696 108.107H103.133C102.444 108.107 101.886 107.548 101.886 106.859V71.1747C101.886 70.4857 102.444 69.9275 103.133 69.9275V69.9275Z" fill="white"/>
<path d="M112.696 110.182H103.133C101.301 110.182 99.8107 108.692 99.8107 106.859V71.1747C99.8107 69.3426 101.301 67.8521 103.133 67.8521H112.696C114.528 67.8521 116.018 69.3426 116.018 71.1747V106.859C116.018 108.692 114.528 110.182 112.696 110.182ZM103.961 106.031H111.868V72.0028H103.961V106.031Z" fill="#E93E3E"/>
<path d="M111.021 19.1766C110.49 19.1766 109.959 18.974 109.554 18.5689L104.98 13.9957C104.591 13.6064 104.372 13.0788 104.372 12.528C104.372 11.9772 104.591 11.4497 104.98 11.0603L109.554 6.48711C109.943 6.09778 110.471 5.87946 111.021 5.87946C111.572 5.87946 112.1 6.0982 112.489 6.48711L117.062 11.0603C117.872 11.871 117.872 13.1851 117.062 13.9953L112.489 18.5685C112.084 18.9736 111.553 19.1766 111.021 19.1766V19.1766ZM109.383 12.528L111.021 14.1663L112.659 12.528L111.021 10.8897L109.383 12.528Z" fill="#EE6E6E"/>
<path d="M45.7505 171C45.2002 171 44.6722 170.781 44.2833 170.392L39.7101 165.819C38.8994 165.008 38.8994 163.694 39.7101 162.884L44.2833 158.311C44.6726 157.922 45.2002 157.703 45.7505 157.703C46.3009 157.703 46.8289 157.922 47.2178 158.311L51.7915 162.884C52.1808 163.273 52.3995 163.801 52.3995 164.352C52.3995 164.903 52.1812 165.43 51.7915 165.82L47.2178 170.393C46.8289 170.781 46.3013 171 45.7505 171V171ZM44.1127 164.351L45.7505 165.99L47.3888 164.351L45.7505 162.713L44.1127 164.351Z" fill="#EE6E6E"/>
<path d="M189.06 87.1831C187.914 87.1831 186.985 86.2538 186.985 85.1078C186.985 83.7306 185.864 82.6103 184.487 82.6103C183.341 82.6103 182.412 81.681 182.412 80.535C182.412 79.389 183.341 78.4596 184.487 78.4596C185.864 78.4596 186.985 77.3394 186.985 75.9622C186.985 74.8161 187.914 73.8868 189.06 73.8868C190.207 73.8868 191.135 74.8161 191.135 75.9622C191.135 77.3394 192.256 78.4596 193.633 78.4596C194.78 78.4596 195.709 79.389 195.709 80.535C195.709 81.681 194.78 82.6103 193.633 82.6103C192.256 82.6103 191.135 83.7306 191.135 85.1078C191.135 86.2538 190.207 87.1831 189.06 87.1831Z" fill="#EE6E6E"/>
<path d="M92.1448 13.2963C90.9984 13.2963 90.0695 12.367 90.0695 11.221C90.0695 9.84377 88.9492 8.7235 87.5716 8.7235C86.4252 8.7235 85.4963 7.79416 85.4963 6.64816C85.4963 5.50215 86.4252 4.57281 87.5716 4.57281C88.9488 4.57281 90.0695 3.45254 90.0695 2.07534C90.0695 0.929339 90.9984 0 92.1448 0C93.2913 0 94.2202 0.929339 94.2202 2.07534C94.2202 3.45254 95.3405 4.57281 96.7177 4.57281C97.8641 4.57281 98.793 5.50215 98.793 6.64816C98.793 7.79416 97.8641 8.7235 96.7177 8.7235C95.3409 8.7235 94.2202 9.84377 94.2202 11.221C94.2202 12.367 93.2913 13.2963 92.1448 13.2963Z" fill="#EE6E6E"/>
<defs>
<linearGradient id="paint0_linear" x1="7.74113e-06" y1="85.5013" x2="212.515" y2="85.5013" gradientUnits="userSpaceOnUse">
<stop stop-color="#F9CFCF" stop-opacity="0.8"/>
<stop offset="1" stop-color="#F49F9F"/>
</linearGradient>
</defs>
</svg>
