<svg width="37" height="37" viewBox="0 0 37 37" fill="none" xmlns="http://www.w3.org/2000/svg">
<circle cx="18" cy="18" r="16" fill="#232323"/>
<g filter="url(#filter0_d)">
<path d="M19.4454 22.048C16.6714 21.1305 14.6643 18.5128 14.6643 15.4353C14.6643 13.8947 15.1576 12.4346 16.0908 11.213C16.2129 11.0531 16.2105 10.8307 16.085 10.6735C15.9595 10.5163 15.7431 10.4646 15.5602 10.5483C14.1393 11.1982 12.9344 12.2343 12.076 13.5444C11.1947 14.8893 10.729 16.4536 10.729 18.0681C10.729 22.6256 14.4368 26.3334 18.9942 26.3334C20.6089 26.3334 22.1731 25.8676 23.518 24.9864C24.8281 24.1279 25.8642 22.9231 26.5141 21.5021C26.5977 21.3191 26.5461 21.1028 26.3889 20.9773C26.2317 20.8518 26.0093 20.8494 25.8494 20.9715C24.6278 21.9047 23.1677 22.398 21.6271 22.398C21.201 22.398 20.7836 22.3595 20.3783 22.2859" fill="#EDE21B"/>
</g>
<path d="M24.4926 24.0579C23.1477 24.9391 21.5835 25.4049 19.9689 25.4049C15.4114 25.4049 11.7036 21.6971 11.7036 17.1396C11.7036 15.5251 12.1694 13.9608 13.0506 12.6159C13.27 12.281 13.5122 11.9642 13.7747 11.667C13.21 12.1608 12.7117 12.7317 12.2953 13.3673C11.414 14.7123 10.9482 16.2765 10.9482 17.8911C10.9482 22.4486 14.6561 26.1563 19.2135 26.1563C20.8281 26.1563 22.3924 25.6905 23.7373 24.8093C24.361 24.4007 24.9223 23.9134 25.4097 23.3618C25.1218 23.6135 24.8156 23.8463 24.4926 24.0579Z" fill="#EAC71C"/>
<path d="M21.3169 15.1097C20.4761 15.1097 19.7944 14.4281 19.7944 13.5873C19.7944 14.4281 19.1128 15.1097 18.272 15.1097C19.1129 15.1097 19.7944 15.7914 19.7944 16.6322C19.7944 15.7914 20.4761 15.1097 21.3169 15.1097Z" fill="#F29F26"/>
<path d="M22.3489 18.8141C22.6847 18.8141 22.957 18.5418 22.957 18.206C22.957 17.8702 22.6847 17.5979 22.3489 17.5979C22.013 17.5979 21.7408 17.8702 21.7408 18.206C21.7408 18.5418 22.013 18.8141 22.3489 18.8141Z" fill="#F29F26"/>
<path d="M11.3309 25.872C11.6668 25.872 11.939 25.5998 11.939 25.2639C11.939 24.9281 11.6668 24.6558 11.3309 24.6558C10.9951 24.6558 10.7229 24.9281 10.7229 25.2639C10.7229 25.5998 10.9951 25.872 11.3309 25.872Z" fill="#F29F26"/>
<path d="M18.9938 26.6219C14.2775 26.6219 10.4405 22.7849 10.4405 18.0686C10.4405 16.3978 10.9226 14.7789 11.8346 13.387C12.7229 12.0313 13.9696 10.9593 15.44 10.2868C15.7435 10.1479 16.1012 10.233 16.3097 10.4942C16.518 10.7552 16.522 11.1229 16.3193 11.3882C15.4248 12.5592 14.9519 13.9589 14.9519 15.4356C14.9519 18.3206 16.7939 20.8681 19.5354 21.7749C19.6864 21.8249 19.7684 21.9878 19.7184 22.1389C19.6684 22.2899 19.5056 22.3718 19.3544 22.3219C17.9186 21.847 16.6833 20.9482 15.7821 19.7227C14.8621 18.4717 14.3758 16.9892 14.3758 15.4356C14.3758 13.8313 14.8895 12.3108 15.8614 11.0385C15.9033 10.9836 15.9025 10.9076 15.8594 10.8536C15.8163 10.7996 15.7425 10.7819 15.6797 10.8107C14.3081 11.438 13.1451 12.438 12.3165 13.7027C11.4662 15.0005 11.0166 16.5102 11.0166 18.0686C11.0166 22.4672 14.5952 26.0458 18.9938 26.0458C20.5521 26.0458 22.0618 25.5963 23.3597 24.7459C24.6244 23.9172 25.6244 22.7543 26.2517 21.3828C26.2804 21.32 26.2628 21.246 26.2088 21.2029C26.1548 21.1599 26.0788 21.159 26.0238 21.201C24.7517 22.1728 23.2311 22.6866 21.6268 22.6866C21.1905 22.6866 20.7529 22.6473 20.3265 22.5698C20.1699 22.5413 20.066 22.3914 20.0945 22.2349C20.123 22.0783 20.2728 21.9744 20.4294 22.0029C20.822 22.0742 21.2249 22.1104 21.6268 22.1104C23.1037 22.1104 24.5033 21.6376 25.6742 20.7431C25.9397 20.5404 26.3073 20.5444 26.5683 20.7526C26.8293 20.9611 26.9146 21.3187 26.7757 21.6225C26.1031 23.0928 25.0311 24.3395 23.6755 25.2278C22.2835 26.1398 20.6646 26.6219 18.9938 26.6219Z" fill="#231F20"/>
<path d="M19.794 16.9204C19.6349 16.9204 19.506 16.7915 19.506 16.6324C19.506 15.9518 18.9522 15.398 18.2716 15.398C18.1125 15.398 17.9835 15.269 17.9835 15.11C17.9835 14.9509 18.1125 14.8219 18.2716 14.8219C18.9522 14.8219 19.506 14.2681 19.506 13.5875C19.506 13.4284 19.6349 13.2994 19.794 13.2994C19.9531 13.2994 20.0821 13.4284 20.0821 13.5875C20.0821 14.2681 20.6358 14.8219 21.3164 14.8219C21.4755 14.8219 21.6045 14.9509 21.6045 15.11C21.6045 15.269 21.4755 15.398 21.3164 15.398C20.6358 15.398 20.0821 15.9518 20.0821 16.6324C20.0821 16.7915 19.9531 16.9204 19.794 16.9204ZM19.2505 15.11C19.4681 15.2503 19.6537 15.4359 19.794 15.6535C19.9344 15.4359 20.12 15.2504 20.3376 15.11C20.12 14.9696 19.9344 14.784 19.794 14.5664C19.6537 14.784 19.4681 14.9696 19.2505 15.11Z" fill="#231F20"/>
<path d="M22.349 19.1021C21.8548 19.1021 21.4528 18.7001 21.4528 18.206C21.4528 17.7119 21.8548 17.3098 22.349 17.3098C22.8431 17.3098 23.2451 17.7119 23.2451 18.206C23.2451 18.7001 22.8431 19.1021 22.349 19.1021ZM22.349 17.886C22.1725 17.886 22.029 18.0295 22.029 18.206C22.029 18.3824 22.1725 18.526 22.349 18.526C22.5254 18.526 22.669 18.3825 22.669 18.206C22.669 18.0296 22.5254 17.886 22.349 17.886Z" fill="#231F20"/>
<path d="M11.3307 26.1602C10.8366 26.1602 10.4345 25.7581 10.4345 25.264C10.4345 24.7699 10.8366 24.3679 11.3307 24.3679C11.8248 24.3679 12.2268 24.7699 12.2268 25.264C12.2268 25.7581 11.8248 26.1602 11.3307 26.1602ZM11.3307 24.944C11.1542 24.944 11.0107 25.0875 11.0107 25.264C11.0107 25.4405 11.1542 25.584 11.3307 25.584C11.5072 25.584 11.6507 25.4405 11.6507 25.264C11.6507 25.0875 11.5072 24.944 11.3307 24.944Z" fill="#231F20"/>
<path d="M19.7942 18.9287C19.9937 18.9287 20.1553 18.767 20.1553 18.5675C20.1553 18.3681 19.9937 18.2064 19.7942 18.2064C19.5947 18.2064 19.433 18.3681 19.433 18.5675C19.433 18.767 19.5947 18.9287 19.7942 18.9287Z" fill="#231F20"/>
<path d="M10.3611 23.2651C10.5606 23.2651 10.7223 23.1034 10.7223 22.9039C10.7223 22.7045 10.5606 22.5428 10.3611 22.5428C10.1617 22.5428 10 22.7045 10 22.9039C10 23.1034 10.1617 23.2651 10.3611 23.2651Z" fill="#231F20"/>
<path d="M22.11 13.3463C22.3094 13.3463 22.4711 13.1846 22.4711 12.9852C22.4711 12.7857 22.3094 12.624 22.11 12.624C21.9105 12.624 21.7488 12.7857 21.7488 12.9852C21.7488 13.1846 21.9105 13.3463 22.11 13.3463Z" fill="#231F20"/>
<defs>
<filter id="filter0_d" x="0.728989" y="0.508545" width="35.8248" height="35.8248" filterUnits="userSpaceOnUse" color-interpolation-filters="sRGB">
<feFlood flood-opacity="0" result="BackgroundImageFix"/>
<feColorMatrix in="SourceAlpha" type="matrix" values="0 0 0 0 0 0 0 0 0 0 0 0 0 0 0 0 0 0 127 0"/>
<feOffset/>
<feGaussianBlur stdDeviation="5"/>
<feColorMatrix type="matrix" values="0 0 0 0 0.929412 0 0 0 0 0.886275 0 0 0 0 0.105882 0 0 0 1 0"/>
<feBlend mode="normal" in2="BackgroundImageFix" result="effect1_dropShadow"/>
<feBlend mode="normal" in="SourceGraphic" in2="effect1_dropShadow" result="shape"/>
</filter>
</defs>
</svg>
