<svg width="471" height="321" viewBox="0 0 471 321" fill="none" xmlns="http://www.w3.org/2000/svg">
<g filter="url(#filter0_i)">
<path d="M444.252 83.0276C412.155 50.009 362.064 45.4541 325.001 69.362C314.456 76.1636 301.688 78.4442 289.439 75.7245C260.446 69.2867 230.118 73.6836 204.286 87.7038C186.92 97.1286 165.768 95.49 149.562 84.1859C138.805 76.6825 126.313 71.3056 112.586 68.776C61.6654 59.3916 12.1585 93.1652 2.36993 144.009C-7.64093 196.005 26.8281 245.974 78.7864 255.23C91.4812 257.492 104.034 257.11 115.883 254.481C135.113 250.213 155.205 257.348 167.615 272.645C175.448 282.301 184.894 290.918 195.865 298.078C252.566 335.075 328.523 319.103 365.521 262.403C365.56 262.343 365.599 262.282 365.638 262.223C372.414 251.799 382.953 244.367 395.141 241.906C412.917 238.318 429.862 229.594 443.598 215.733C479.763 179.239 480.064 119.867 444.252 83.0276Z" fill="url(#paint0_linear)"/>
<path opacity="0.1" d="M442.444 228.409V162.835C442.444 157.761 438.33 153.647 433.256 153.647H388.237V53.3C388.237 45.6892 382.066 39.5186 374.455 39.5186H123.546C115.935 39.5186 109.764 45.6882 109.764 53.3V126.085H38.3012C33.2274 126.085 29.1133 130.198 29.1133 135.273V228.409H442.444Z" fill="#E93E3E"/>
<path d="M290.347 316.262H207.654L218.483 273.368L224.196 250.727H273.805L279.518 273.368L290.347 316.262Z" fill="white"/>
<path d="M374.456 263.264H123.546C115.936 263.264 109.765 257.095 109.765 249.483V69.8332C109.765 62.2224 115.935 56.0518 123.546 56.0518H374.456C382.067 56.0518 388.238 62.2215 388.238 69.8332V249.483C388.238 257.094 382.067 263.264 374.456 263.264Z" fill="white"/>
<path d="M350.497 160.327H147.506C145.984 160.327 144.75 159.093 144.75 157.571V91.1683H353.252V157.572C353.252 159.093 352.019 160.327 350.497 160.327Z" fill="#EE6E6E"/>
<path d="M268.523 181.816H170.684C168.147 181.816 166.091 179.76 166.091 177.224C166.091 174.688 168.147 172.631 170.684 172.631H268.523C271.06 172.631 273.116 174.688 273.116 177.224C273.116 179.76 271.059 181.816 268.523 181.816Z" fill="#E93E3E"/>
<path d="M268.523 200.186H170.684C168.147 200.186 166.091 198.13 166.091 195.594C166.091 193.058 168.147 191.001 170.684 191.001H268.523C271.06 191.001 273.116 193.058 273.116 195.594C273.116 198.13 271.059 200.186 268.523 200.186Z" fill="#E93E3E"/>
<path d="M317.204 200.186H302.031C299.494 200.186 297.438 198.13 297.438 195.594C297.438 193.058 299.494 191.001 302.031 191.001H317.204C319.741 191.001 321.797 193.058 321.797 195.594C321.797 198.13 319.74 200.186 317.204 200.186Z" fill="#E93E3E"/>
<path d="M388.238 91.1684V69.8332C388.238 62.2224 382.067 56.0518 374.456 56.0518H123.546C115.936 56.0518 109.765 62.2215 109.765 69.8332V91.1684H388.238Z" fill="white"/>
<path d="M109.765 226.531V249.483C109.765 257.094 115.936 263.264 123.546 263.264H374.456C382.067 263.264 388.238 257.095 388.238 249.483V226.531H109.765Z" fill="white"/>
<path d="M433.256 316.262H365.268C360.194 316.262 356.08 312.149 356.08 307.075V179.368C356.08 174.295 360.194 170.181 365.268 170.181H433.256C438.329 170.181 442.443 174.294 442.443 179.368V307.075C442.443 312.148 438.33 316.262 433.256 316.262Z" fill="#EE6E6E"/>
<path d="M356.081 259.332V307.075C356.081 312.149 360.195 316.263 365.268 316.263H433.256C438.33 316.263 442.444 312.149 442.444 307.075V259.332H356.081Z" fill="white"/>
<path d="M416.753 183.241L421.006 170.181H377.519L381.772 183.241C382.389 185.132 384.151 186.412 386.14 186.412H412.384C414.374 186.412 416.136 185.132 416.753 183.241Z" fill="white"/>
<path d="M161.414 316.263H38.3012C33.2274 316.263 29.1133 312.149 29.1133 307.075V151.806C29.1133 146.732 33.2264 142.618 38.3012 142.618H161.414C166.488 142.618 170.602 146.731 170.602 151.806V307.075C170.601 312.149 166.488 316.263 161.414 316.263Z" fill="white"/>
<path d="M170.601 172.631V151.806C170.601 146.732 166.488 142.618 161.413 142.618H38.3012C33.2274 142.618 29.1133 146.731 29.1133 151.806V172.631H170.601Z" fill="white"/>
<path d="M81.9461 297.756H53.4723C51.9503 297.756 50.7167 296.523 50.7167 295.001V196.261C50.7167 194.739 51.9503 193.505 53.4723 193.505H81.9461C83.4681 193.505 84.7017 194.739 84.7017 196.261V295.001C84.7017 296.523 83.4681 297.756 81.9461 297.756Z" fill="#EE6E6E"/>
<path d="M146.242 227.49H100.316C98.7944 227.49 97.5608 226.257 97.5608 224.735V196.261C97.5608 194.739 98.7944 193.505 100.316 193.505H146.242C147.764 193.505 148.997 194.739 148.997 196.261V224.735C148.997 226.257 147.764 227.49 146.242 227.49Z" fill="#EE6E6E"/>
<path d="M146.242 297.756H100.316C98.7944 297.756 97.5608 296.523 97.5608 295.001V243.057C97.5608 241.535 98.7944 240.302 100.316 240.302H146.242C147.764 240.302 148.997 241.535 148.997 243.057V295.001C148.997 296.523 147.764 297.756 146.242 297.756Z" fill="#EE6E6E"/>
<path d="M137.525 68.9642C134.988 68.9642 132.933 71.0208 132.933 73.5568V73.6624C132.933 76.1984 134.988 78.255 137.525 78.255C140.062 78.255 142.118 76.1984 142.118 73.6624V73.5568C142.118 71.0208 140.062 68.9642 137.525 68.9642Z" fill="#E93E3E"/>
<path d="M151.613 68.9642C149.076 68.9642 147.021 71.0208 147.021 73.5568V73.6624C147.021 76.1984 149.076 78.255 151.613 78.255C154.15 78.255 156.206 76.1984 156.206 73.6624V73.5568C156.206 71.0208 154.15 68.9642 151.613 68.9642Z" fill="#E93E3E"/>
<path d="M165.701 68.9642C163.164 68.9642 161.108 71.0208 161.108 73.5568V73.6624C161.108 76.1984 163.164 78.255 165.701 78.255C168.237 78.255 170.293 76.1984 170.293 73.6624V73.5568C170.293 71.0208 168.237 68.9642 165.701 68.9642Z" fill="#E93E3E"/>
<path d="M433.256 165.588H392.829V69.8332C392.829 59.702 384.586 51.4593 374.455 51.4593H123.545C113.414 51.4593 105.172 59.702 105.172 69.8332V117.322C105.172 119.858 107.227 121.915 109.764 121.915C112.301 121.915 114.357 119.858 114.357 117.322V95.761H383.644V165.588H365.268C357.67 165.588 351.488 171.77 351.488 179.368V201.235C351.488 203.771 353.544 205.827 356.08 205.827C358.617 205.827 360.673 203.771 360.673 201.235V179.368C360.673 176.834 362.734 174.773 365.268 174.773H374.184L377.405 184.664C378.641 188.456 382.151 191.005 386.14 191.005H412.384C416.373 191.005 419.883 188.457 421.119 184.664L424.34 174.774H433.256C435.79 174.774 437.851 176.835 437.851 179.369V307.076C437.851 309.609 435.79 311.67 433.256 311.67H365.268C362.734 311.67 360.673 309.609 360.673 307.076V226.532C360.673 223.996 358.617 221.94 356.08 221.94H175.193V151.807C175.193 144.209 169.012 138.027 161.413 138.027H38.3012C30.7033 138.027 24.5208 144.209 24.5208 151.807V307.076C24.5208 314.673 30.7023 320.855 38.3012 320.855H161.413C169.011 320.855 175.193 314.673 175.193 307.076V267.858H215.136L204.08 311.671H193.646C191.109 311.671 189.054 313.727 189.054 316.263C189.054 318.799 191.109 320.856 193.646 320.856H304.355C306.892 320.856 308.948 318.799 308.948 316.263C308.948 313.727 306.892 311.671 304.355 311.671H293.922L282.867 267.858H351.489V307.076C351.489 314.673 357.67 320.855 365.269 320.855H433.257C440.854 320.855 447.037 314.673 447.037 307.076V179.368C447.036 171.771 440.854 165.588 433.256 165.588ZM114.358 86.5758V69.8332C114.358 64.7667 118.479 60.6444 123.546 60.6444H374.456C379.524 60.6444 383.645 64.7667 383.645 69.8332V86.5758H114.358ZM412.384 181.82H386.138L383.843 174.774H414.68L412.384 181.82ZM38.3012 147.21H161.413C163.947 147.21 166.008 149.272 166.008 151.805V168.038H33.7059V151.805C33.7059 149.272 35.767 147.21 38.3012 147.21ZM166.008 307.075C166.008 309.608 163.947 311.669 161.413 311.669H38.3012C35.767 311.669 33.7059 309.608 33.7059 307.075V177.224H166.008V307.075ZM284.449 311.67H213.552L224.607 267.857H273.394L284.449 311.67ZM175.193 258.672V231.124H351.489V258.672H175.193Z" fill="#E93E3E"/>
<path d="M53.1544 162.27C55.6914 162.27 57.747 160.214 57.747 157.678V157.572C57.747 155.036 55.6914 152.98 53.1544 152.98C50.6175 152.98 48.5619 155.036 48.5619 157.572V157.678C48.5619 160.214 50.6175 162.27 53.1544 162.27Z" fill="#E93E3E"/>
<path d="M67.2416 162.27C69.7785 162.27 71.8342 160.214 71.8342 157.678V157.572C71.8342 155.036 69.7785 152.98 67.2416 152.98C64.7047 152.98 62.649 155.036 62.649 157.572V157.678C62.649 160.214 64.7047 162.27 67.2416 162.27Z" fill="#E93E3E"/>
<path d="M81.3288 162.27C83.8658 162.27 85.9214 160.214 85.9214 157.678V157.572C85.9214 155.036 83.8658 152.98 81.3288 152.98C78.7919 152.98 76.7363 155.036 76.7363 157.572V157.678C76.7363 160.214 78.7919 162.27 81.3288 162.27Z" fill="#E93E3E"/>
<path d="M246.89 123.271L249.001 121.16L251.113 123.271C252.01 124.168 253.185 124.616 254.36 124.616C255.535 124.616 256.711 124.168 257.608 123.27C259.401 121.476 259.401 118.569 257.607 116.776L252.248 111.418C250.456 109.625 247.546 109.625 245.754 111.418L240.396 116.776C238.602 118.569 238.602 121.476 240.395 123.27C242.189 125.065 245.098 125.065 246.89 123.271Z" fill="#E93E3E"/>
<path d="M390.088 294.847H377.229C375.707 294.847 374.474 293.614 374.474 292.092V213.253C374.474 211.731 375.707 210.498 377.229 210.498H390.088C391.61 210.498 392.844 211.731 392.844 213.253V292.092C392.844 293.614 391.61 294.847 390.088 294.847Z" stroke="#E93E3E" stroke-width="10" stroke-miterlimit="10"/>
<path d="M366.112 30.1204C363.575 30.1204 361.519 28.0639 361.519 25.5278C361.519 22.4885 359.047 20.0168 356.008 20.0168C353.471 20.0168 351.415 17.9602 351.415 15.4242C351.415 12.8882 353.471 10.8317 356.008 10.8317C359.047 10.8317 361.519 8.35994 361.519 5.32059C361.519 2.78457 363.575 0.728027 366.112 0.728027C368.648 0.728027 370.704 2.78457 370.704 5.32059C370.704 8.35994 373.176 10.8317 376.215 10.8317C378.752 10.8317 380.808 12.8882 380.808 15.4242C380.808 17.9602 378.752 20.0168 376.215 20.0168C373.176 20.0168 370.704 22.4885 370.704 25.5278C370.704 28.0648 368.648 30.1204 366.112 30.1204Z" fill="#EE6E6E"/>
<path d="M421.006 149.17C418.47 149.17 416.414 147.113 416.414 144.577C416.414 141.538 413.941 139.066 410.902 139.066C408.365 139.066 406.309 137.009 406.309 134.473C406.309 131.937 408.365 129.881 410.902 129.881C413.941 129.881 416.414 127.409 416.414 124.37C416.414 121.834 418.47 119.777 421.006 119.777C423.543 119.777 425.599 121.834 425.599 124.37C425.599 127.409 428.071 129.881 431.109 129.881C433.646 129.881 435.702 131.937 435.702 134.473C435.702 137.009 433.646 139.066 431.109 139.066C428.071 139.066 425.599 141.538 425.599 144.577C425.599 147.113 423.543 149.17 421.006 149.17Z" fill="#EE6E6E"/>
<path d="M408.146 50.4893C406.972 50.4893 405.795 50.0411 404.899 49.1447L394.796 39.041C393.002 37.2472 393.002 34.3392 394.796 32.5462L404.899 22.4426C406.691 20.6497 409.601 20.6497 411.393 22.4426L421.497 32.5462C423.291 34.3401 423.291 37.2481 421.497 39.041L411.393 49.1447C410.498 50.0411 409.321 50.4893 408.146 50.4893ZM404.537 35.7932L408.146 39.402L411.755 35.7932L408.146 32.1843L404.537 35.7932Z" fill="#EE6E6E"/>
<path d="M67.7101 117.012C66.5353 117.012 65.3587 116.563 64.4632 115.667L54.3595 105.563C52.5657 103.769 52.5657 100.861 54.3595 99.0684L64.4632 88.9648C66.2552 87.1719 69.165 87.1719 70.9571 88.9648L81.0607 99.0684C82.8545 100.862 82.8545 103.77 81.0607 105.563L70.9571 115.667C70.0606 116.563 68.8849 117.012 67.7101 117.012ZM64.1013 102.315L67.7101 105.924L71.3189 102.315L67.7101 98.7066L64.1013 102.315Z" fill="#EE6E6E"/>
<path d="M334.365 137.468C337.2 137.468 339.499 139.767 339.499 142.602C339.499 145.438 337.2 147.737 334.365 147.737C331.53 147.737 329.231 145.438 329.231 142.602C329.231 139.767 331.53 137.468 334.365 137.468Z" fill="#E93E3E"/>
<path d="M334.365 121.936C337.2 121.936 339.499 124.235 339.499 127.07C339.499 129.906 337.2 132.205 334.365 132.205C331.53 132.205 329.231 129.906 329.231 127.07C329.231 124.235 331.53 121.936 334.365 121.936Z" fill="#E93E3E"/>
<path d="M334.365 106.404C337.2 106.404 339.499 108.703 339.499 111.538C339.499 114.374 337.2 116.673 334.365 116.673C331.53 116.673 329.231 114.374 329.231 111.538C329.231 108.703 331.53 106.404 334.365 106.404Z" fill="#E93E3E"/>
</g>
<defs>
<filter id="filter0_i" x="0.639526" y="0.728027" width="470.278" height="320.128" filterUnits="userSpaceOnUse" color-interpolation-filters="sRGB">
<feFlood flood-opacity="0" result="BackgroundImageFix"/>
<feBlend mode="normal" in="SourceGraphic" in2="BackgroundImageFix" result="shape"/>
<feColorMatrix in="SourceAlpha" type="matrix" values="0 0 0 0 0 0 0 0 0 0 0 0 0 0 0 0 0 0 127 0" result="hardAlpha"/>
<feOffset/>
<feGaussianBlur stdDeviation="50"/>
<feComposite in2="hardAlpha" operator="arithmetic" k2="-1" k3="1"/>
<feColorMatrix type="matrix" values="0 0 0 0 0.137255 0 0 0 0 0.137255 0 0 0 0 0.137255 0 0 0 0.4 0"/>
<feBlend mode="normal" in2="shape" result="effect1_innerShadow"/>
</filter>
<linearGradient id="paint0_linear" x1="-28.0236" y1="172.39" x2="483.55" y2="192.672" gradientUnits="userSpaceOnUse">
<stop stop-color="#F9CFCF" stop-opacity="0.8"/>
<stop offset="1" stop-color="#F49F9F"/>
</linearGradient>
</defs>
</svg>
