<svg width="42" height="42" viewBox="0 0 42 42" fill="none" xmlns="http://www.w3.org/2000/svg">
<circle cx="21" cy="21" r="21" fill="#4E4E4E"/>
<path d="M27.7107 21.0516C27.7107 24.7294 24.7294 27.7107 21.0513 27.7107C17.3735 27.7107 14.3921 24.7294 14.3921 21.0516C14.3921 17.3734 17.3735 14.3921 21.0513 14.3921C24.7294 14.3921 27.7107 17.3734 27.7107 21.0516Z" fill="#B8B8B8"/>
<path d="M27.2661 23.4472C26.3047 25.9409 23.8848 27.7103 21.0517 27.7103C18.2186 27.7103 15.7987 25.9409 14.8365 23.4472C15.7987 20.9535 18.2186 19.1844 21.0517 19.1844C23.8848 19.1844 26.3047 20.9535 27.2661 23.4472Z" fill="#B8B8B8"/>
<path d="M27.1311 25.081C27.9258 23.8843 28.3456 22.4907 28.3456 21.0512C28.3456 17.0286 25.0731 13.7565 21.0509 13.7565C17.0287 13.7565 13.7565 17.0286 13.7565 21.0512C13.7565 25.0734 17.0287 28.3456 21.0509 28.3456C22.4425 28.3456 23.7973 27.9505 24.9692 27.2028C25.265 27.0142 25.3517 26.6211 25.1628 26.3257C24.9742 26.0299 24.5815 25.9429 24.2857 26.1318C23.3186 26.7488 22.2 27.0754 21.0509 27.0754C17.7291 27.0754 15.027 24.373 15.027 21.0512C15.027 17.7294 17.7291 15.027 21.0509 15.027C24.3727 15.027 27.0751 17.7294 27.0751 21.0512C27.0751 22.2399 26.7284 23.3903 26.0726 24.3783C25.8784 24.6704 25.9582 25.0648 26.2503 25.2587C26.5428 25.4529 26.9368 25.3731 27.1311 25.081Z" fill="#B8B8B8"/>
<path d="M21.0515 12.7047C21.4026 12.7047 21.6868 12.4202 21.6868 12.0695V10.6352C21.6868 10.2842 21.4026 10 21.0515 10C20.7008 10 20.4163 10.2842 20.4163 10.6352V12.0695C20.4163 12.4202 20.7008 12.7047 21.0515 12.7047Z" fill="#B8B8B8"/>
<path d="M20.4163 30.0326V31.4668C20.4163 31.8179 20.7008 32.1021 21.0515 32.1021C21.4026 32.1021 21.6868 31.8179 21.6868 31.4668V30.0326C21.6868 29.6815 21.4026 29.3973 21.0515 29.3973C20.7008 29.3973 20.4163 29.6819 20.4163 30.0326Z" fill="#B8B8B8"/>
<path d="M16.01 13.5906C16.1278 13.7944 16.3412 13.9082 16.5609 13.9082C16.6684 13.9082 16.7779 13.8808 16.8778 13.8232C17.1815 13.6475 17.2858 13.2591 17.1104 12.9553L16.3931 11.7133C16.2178 11.4093 15.829 11.3054 15.5253 11.4807C15.2215 11.6561 15.1173 12.0445 15.293 12.3486L16.01 13.5906Z" fill="#B8B8B8"/>
<path d="M25.2252 28.2791C24.9211 28.4545 24.8172 28.8432 24.9926 29.1469L25.7099 30.3893C25.8273 30.5931 26.0407 30.7069 26.2604 30.7069C26.3683 30.7069 26.4775 30.6795 26.5774 30.6216C26.8811 30.4462 26.9853 30.0578 26.81 29.7541L26.0927 28.5117C25.9173 28.208 25.5289 28.1038 25.2252 28.2791Z" fill="#B8B8B8"/>
<path d="M11.713 16.3932L12.9554 17.1105C13.0553 17.1684 13.1645 17.1959 13.2723 17.1959C13.492 17.1959 13.7054 17.0817 13.8232 16.8779C13.9985 16.5742 13.8943 16.1857 13.5906 16.0104L12.3482 15.2931C12.0445 15.1177 11.6561 15.2216 11.4807 15.5257C11.305 15.8294 11.4093 16.2178 11.713 16.3932Z" fill="#B8B8B8"/>
<path d="M28.5119 26.0924L29.754 26.8093C29.8542 26.8672 29.9634 26.8947 30.0713 26.8947C30.2906 26.8947 30.504 26.7806 30.6218 26.5771C30.7971 26.273 30.6933 25.8846 30.3892 25.7092L29.1472 24.992C28.8434 24.8166 28.4547 24.9205 28.2793 25.2245C28.104 25.5283 28.2082 25.917 28.5119 26.0924Z" fill="#B8B8B8"/>
<path d="M29.3974 21.051C29.3974 21.4017 29.6816 21.6863 30.0327 21.6863H31.467C31.8177 21.6863 32.1022 21.4017 32.1022 21.051C32.1022 20.7 31.8177 20.4158 31.467 20.4158H30.0327C29.6816 20.4158 29.3974 20.7 29.3974 21.051Z" fill="#B8B8B8"/>
<path d="M10.6352 21.6863H12.0698C12.4205 21.6863 12.7051 21.4017 12.7051 21.051C12.7051 20.7 12.4205 20.4158 12.0698 20.4158H10.6352C10.2845 20.4158 10 20.7 10 21.051C10 21.4017 10.2845 21.6863 10.6352 21.6863Z" fill="#B8B8B8"/>
<path d="M28.8302 17.1959C28.9377 17.1959 29.0473 17.1684 29.1472 17.1105L30.3892 16.3932C30.6933 16.2178 30.7971 15.8294 30.6218 15.5257C30.4464 15.2216 30.0577 15.1177 29.754 15.2931L28.5119 16.0104C28.2082 16.1857 28.104 16.5742 28.2793 16.8779C28.3971 17.0817 28.6105 17.1959 28.8302 17.1959Z" fill="#B8B8B8"/>
<path d="M12.9561 24.992L11.7137 25.7092C11.41 25.8846 11.3058 26.273 11.4811 26.5771C11.5989 26.7806 11.8123 26.8947 12.032 26.8947C12.1395 26.8947 12.249 26.8672 12.349 26.8093L13.5913 26.0924C13.895 25.917 13.9989 25.5283 13.8236 25.2245C13.6482 24.9205 13.2598 24.8166 12.9561 24.992Z" fill="#B8B8B8"/>
<path d="M25.2252 13.8232C25.3251 13.8808 25.4343 13.9082 25.5421 13.9082C25.7615 13.9082 25.9752 13.7944 26.0927 13.5906L26.81 12.3486C26.9853 12.0448 26.8811 11.6561 26.5774 11.4807C26.2737 11.3054 25.8852 11.4093 25.7099 11.7133L24.9926 12.9553C24.8172 13.2591 24.9211 13.6475 25.2252 13.8232Z" fill="#B8B8B8"/>
<path d="M16.01 28.5117L15.293 29.7541C15.1173 30.0578 15.2215 30.4462 15.5253 30.6216C15.6255 30.6795 15.7347 30.7069 15.8426 30.7069C16.0619 30.7069 16.2757 30.5931 16.3931 30.3893L17.1104 29.1469C17.2858 28.8432 17.1815 28.4548 16.8778 28.2791C16.5741 28.1038 16.1853 28.208 16.01 28.5117Z" fill="#B8B8B8"/>
</svg>
