<svg width="32" height="32" viewBox="0 0 32 32" fill="none" xmlns="http://www.w3.org/2000/svg">
<circle cx="16" cy="16" r="16" fill="#4E4E4E"/>
<path d="M21.4939 16.4202C21.4939 19.2223 19.2224 21.4938 16.42 21.4938C13.6179 21.4938 11.3464 19.2223 11.3464 16.4202C11.3464 13.6178 13.6179 11.3463 16.42 11.3463C19.2224 11.3463 21.4939 13.6178 21.4939 16.4202Z" fill="#B8B8B8"/>
<path d="M21.1552 18.2455C20.4226 20.1454 18.5789 21.4935 16.4203 21.4935C14.2618 21.4935 12.418 20.1454 11.685 18.2455C12.418 16.3456 14.2618 14.9977 16.4203 14.9977C18.5789 14.9977 20.4226 16.3456 21.1552 18.2455Z" fill="#B8B8B8"/>
<path d="M21.0522 19.4903C21.6577 18.5785 21.9776 17.5167 21.9776 16.4199C21.9776 13.3551 19.4843 10.8621 16.4197 10.8621C13.3552 10.8621 10.8621 13.3551 10.8621 16.4199C10.8621 19.4845 13.3552 21.9776 16.4197 21.9776C17.48 21.9776 18.5123 21.6766 19.4051 21.1069C19.6305 20.9632 19.6965 20.6637 19.5526 20.4386C19.4089 20.2132 19.1097 20.1469 18.8843 20.2909C18.1475 20.761 17.2952 21.0098 16.4197 21.0098C13.8888 21.0098 11.8301 18.9508 11.8301 16.4199C11.8301 13.889 13.8888 11.8301 16.4197 11.8301C18.9506 11.8301 21.0096 13.889 21.0096 16.4199C21.0096 17.3257 20.7454 18.2021 20.2458 18.9549C20.0979 19.1774 20.1586 19.4779 20.3812 19.6256C20.604 19.7736 20.9043 19.7129 21.0522 19.4903Z" fill="#B8B8B8"/>
<path d="M16.4202 10.0608C16.6877 10.0608 16.9042 9.84397 16.9042 9.57676V8.48399C16.9042 8.21654 16.6877 8 16.4202 8C16.153 8 15.9362 8.21654 15.9362 8.48399V9.57676C15.9362 9.84397 16.153 10.0608 16.4202 10.0608Z" fill="#B8B8B8"/>
<path d="M15.9362 23.2629V24.3557C15.9362 24.6232 16.153 24.8397 16.4202 24.8397C16.6877 24.8397 16.9042 24.6232 16.9042 24.3557V23.2629C16.9042 22.9955 16.6877 22.7789 16.4202 22.7789C16.153 22.7789 15.9362 22.9957 15.9362 23.2629Z" fill="#B8B8B8"/>
<path d="M12.579 10.7357C12.6688 10.891 12.8314 10.9777 12.9987 10.9777C13.0807 10.9777 13.1641 10.9568 13.2402 10.9129C13.4716 10.7791 13.5511 10.4832 13.4175 10.2517L12.8709 9.30543C12.7373 9.07377 12.4411 8.99462 12.2097 9.12822C11.9783 9.26182 11.8989 9.55776 12.0328 9.78943L12.579 10.7357Z" fill="#B8B8B8"/>
<path d="M19.6001 21.9269C19.3685 22.0605 19.2893 22.3567 19.4229 22.5881L19.9694 23.5346C20.0589 23.6899 20.2215 23.7766 20.3889 23.7766C20.4711 23.7766 20.5543 23.7557 20.6304 23.7116C20.8618 23.578 20.9412 23.2821 20.8076 23.0506L20.2611 22.1041C20.1275 21.8727 19.8315 21.7933 19.6001 21.9269Z" fill="#B8B8B8"/>
<path d="M9.30514 12.871L10.2517 13.4175C10.3278 13.4616 10.411 13.4825 10.4932 13.4825C10.6606 13.4825 10.8232 13.3956 10.9129 13.2403C11.0465 13.0089 10.9671 12.7129 10.7357 12.5793L9.78913 12.0328C9.55772 11.8992 9.26178 11.9784 9.12818 12.21C8.99432 12.4414 9.07373 12.7374 9.30514 12.871Z" fill="#B8B8B8"/>
<path d="M22.1043 20.2609L23.0506 20.8071C23.127 20.8513 23.2102 20.8722 23.2924 20.8722C23.4595 20.8722 23.6221 20.7852 23.7118 20.6302C23.8454 20.3985 23.7663 20.1026 23.5346 19.969L22.5883 19.4225C22.3569 19.2889 22.0607 19.368 21.9271 19.5997C21.7935 19.8311 21.8729 20.1273 22.1043 20.2609Z" fill="#B8B8B8"/>
<path d="M22.779 16.4198C22.779 16.6871 22.9955 16.9038 23.263 16.9038H24.3558C24.623 16.9038 24.8398 16.6871 24.8398 16.4198C24.8398 16.1524 24.623 15.9359 24.3558 15.9359H23.263C22.9955 15.9359 22.779 16.1524 22.779 16.4198Z" fill="#B8B8B8"/>
<path d="M8.48399 16.9038H9.57702C9.84422 16.9038 10.061 16.6871 10.061 16.4198C10.061 16.1524 9.84422 15.9359 9.57702 15.9359H8.48399C8.21679 15.9359 8 16.1524 8 16.4198C8 16.6871 8.21679 16.9038 8.48399 16.9038Z" fill="#B8B8B8"/>
<path d="M22.3468 13.4825C22.4288 13.4825 22.5122 13.4616 22.5883 13.4175L23.5346 12.871C23.7663 12.7374 23.8454 12.4414 23.7118 12.21C23.5782 11.9784 23.282 11.8992 23.0506 12.0328L22.1043 12.5793C21.8729 12.7129 21.7935 13.0089 21.9271 13.2403C22.0169 13.3956 22.1794 13.4825 22.3468 13.4825Z" fill="#B8B8B8"/>
<path d="M10.2522 19.4225L9.30568 19.969C9.07427 20.1026 8.99487 20.3985 9.12847 20.6302C9.21821 20.7852 9.3808 20.8722 9.54818 20.8722C9.63011 20.8722 9.71355 20.8513 9.78968 20.8071L10.7362 20.2609C10.9677 20.1273 11.0468 19.8311 10.9132 19.5997C10.7796 19.368 10.4837 19.2889 10.2522 19.4225Z" fill="#B8B8B8"/>
<path d="M19.6001 10.9129C19.6763 10.9568 19.7595 10.9777 19.8416 10.9777C20.0088 10.9777 20.1716 10.891 20.2611 10.7357L20.8076 9.78943C20.9412 9.55802 20.8618 9.26182 20.6304 9.12822C20.399 8.99462 20.103 9.07377 19.9694 9.30543L19.4229 10.2517C19.2893 10.4832 19.3685 10.7791 19.6001 10.9129Z" fill="#B8B8B8"/>
<path d="M12.579 22.1041L12.0328 23.0506C11.8989 23.2821 11.9783 23.578 12.2097 23.7116C12.2861 23.7557 12.3693 23.7766 12.4515 23.7766C12.6186 23.7766 12.7815 23.6899 12.8709 23.5346L13.4175 22.5881C13.5511 22.3567 13.4716 22.0607 13.2402 21.9269C13.0088 21.7933 12.7126 21.8727 12.579 22.1041Z" fill="#B8B8B8"/>
</svg>
