<svg width="32" height="32" viewBox="0 0 32 32" fill="none" xmlns="http://www.w3.org/2000/svg">
<circle cx="16" cy="16" r="16" fill="#E3E3E3"/>
<g clip-path="url(#clip0)">
<path d="M17.4454 20.048C14.6714 19.1305 12.6643 16.5128 12.6643 13.4353C12.6643 11.8947 13.1576 10.4346 14.0908 9.21297C14.2129 9.0531 14.2105 8.8307 14.085 8.67347C13.9595 8.51626 13.7431 8.46455 13.5602 8.54834C12.1393 9.1982 10.9344 10.2343 10.076 11.5444C9.19474 12.8893 8.72899 14.4536 8.72899 16.0681C8.72899 20.6256 12.4368 24.3334 16.9942 24.3334C18.6089 24.3334 20.1731 23.8676 21.518 22.9864C22.8281 22.1279 23.8642 20.9231 24.5141 19.5021C24.5977 19.3191 24.5461 19.1028 24.3889 18.9773C24.2317 18.8518 24.0093 18.8494 23.8494 18.9715C22.6278 19.9047 21.1677 20.398 19.6271 20.398C19.201 20.398 18.7836 20.3595 18.3783 20.2859" fill="#B8B8B8"/>
<path d="M22.4926 22.0579C21.1477 22.9391 19.5835 23.4049 17.9689 23.4049C13.4114 23.4049 9.70364 19.6971 9.70364 15.1396C9.70364 13.5251 10.1694 11.9608 11.0506 10.6159C11.27 10.281 11.5122 9.96416 11.7747 9.66699C11.21 10.1608 10.7117 10.7317 10.2953 11.3673C9.414 12.7123 8.94825 14.2765 8.94825 15.8911C8.94825 20.4486 12.6561 24.1563 17.2135 24.1563C18.8281 24.1563 20.3924 23.6905 21.7373 22.8093C22.361 22.4007 22.9223 21.9134 23.4097 21.3618C23.1218 21.6135 22.8156 21.8463 22.4926 22.0579Z" fill="#B8B8B8"/>
<path d="M19.3169 13.1097C18.4761 13.1097 17.7944 12.4281 17.7944 11.5873C17.7944 12.4281 17.1128 13.1097 16.272 13.1097C17.1129 13.1097 17.7944 13.7914 17.7944 14.6322C17.7944 13.7914 18.4761 13.1097 19.3169 13.1097Z" fill="#B8B8B8"/>
<path d="M20.3489 16.8141C20.6847 16.8141 20.957 16.5418 20.957 16.206C20.957 15.8702 20.6847 15.5979 20.3489 15.5979C20.013 15.5979 19.7408 15.8702 19.7408 16.206C19.7408 16.5418 20.013 16.8141 20.3489 16.8141Z" fill="#B8B8B8"/>
<path d="M9.33094 23.8721C9.66678 23.8721 9.93903 23.5998 9.93903 23.264C9.93903 22.9281 9.66678 22.6559 9.33094 22.6559C8.9951 22.6559 8.72285 22.9281 8.72285 23.264C8.72285 23.5998 8.9951 23.8721 9.33094 23.8721Z" fill="#B8B8B8"/>
<path d="M16.9938 24.6219C12.2775 24.6219 8.4405 20.7849 8.4405 16.0686C8.4405 14.3978 8.92257 12.7789 9.83464 11.387C10.7229 10.0313 11.9696 8.95931 13.44 8.28681C13.7435 8.14789 14.1012 8.23303 14.3097 8.49418C14.518 8.75519 14.522 9.12286 14.3193 9.38822C13.4248 10.5592 12.9519 11.9589 12.9519 13.4356C12.9519 16.3206 14.7939 18.8681 17.5354 19.7749C17.6864 19.8249 17.7684 19.9878 17.7184 20.1389C17.6684 20.2899 17.5056 20.3718 17.3544 20.3219C15.9186 19.847 14.6833 18.9482 13.7821 17.7227C12.8621 16.4717 12.3758 14.9892 12.3758 13.4356C12.3758 11.8313 12.8895 10.3108 13.8614 9.03848C13.9033 8.98365 13.9025 8.90756 13.8594 8.85358C13.8163 8.79957 13.7425 8.78194 13.6797 8.81065C12.3081 9.43802 11.1451 10.4381 10.3165 11.7027C9.46616 13.0005 9.01662 14.5102 9.01662 16.0686C9.01662 20.4672 12.5952 24.0458 16.9938 24.0458C18.5521 24.0458 20.0618 23.5963 21.3597 22.7459C22.6244 21.9172 23.6244 20.7543 24.2517 19.3828C24.2804 19.32 24.2628 19.246 24.2088 19.2029C24.1548 19.1599 24.0788 19.159 24.0238 19.201C22.7517 20.1728 21.2311 20.6866 19.6268 20.6866C19.1905 20.6866 18.7529 20.6473 18.3265 20.5698C18.1699 20.5413 18.066 20.3914 18.0945 20.2349C18.123 20.0783 18.2728 19.9744 18.4294 20.0029C18.822 20.0742 19.2249 20.1104 19.6268 20.1104C21.1037 20.1104 22.5033 19.6376 23.6742 18.7431C23.9397 18.5404 24.3073 18.5444 24.5683 18.7526C24.8293 18.9611 24.9146 19.3187 24.7757 19.6225C24.1031 21.0928 23.0311 22.3396 21.6755 23.2278C20.2835 24.1398 18.6646 24.6219 16.9938 24.6219Z" fill="#B8B8B8"/>
<path d="M17.794 14.9204C17.6349 14.9204 17.506 14.7915 17.506 14.6324C17.506 13.9518 16.9522 13.398 16.2716 13.398C16.1125 13.398 15.9835 13.269 15.9835 13.11C15.9835 12.9509 16.1125 12.8219 16.2716 12.8219C16.9522 12.8219 17.506 12.2681 17.506 11.5875C17.506 11.4284 17.6349 11.2994 17.794 11.2994C17.9531 11.2994 18.0821 11.4284 18.0821 11.5875C18.0821 12.2681 18.6358 12.8219 19.3164 12.8219C19.4755 12.8219 19.6045 12.9509 19.6045 13.11C19.6045 13.269 19.4755 13.398 19.3164 13.398C18.6358 13.398 18.0821 13.9518 18.0821 14.6324C18.0821 14.7915 17.9531 14.9204 17.794 14.9204ZM17.2505 13.11C17.4681 13.2503 17.6537 13.4359 17.794 13.6535C17.9344 13.4359 18.12 13.2504 18.3376 13.11C18.12 12.9696 17.9344 12.784 17.794 12.5664C17.6537 12.784 17.4681 12.9696 17.2505 13.11Z" fill="#B8B8B8"/>
<path d="M20.349 17.1021C19.8548 17.1021 19.4528 16.7001 19.4528 16.206C19.4528 15.7119 19.8548 15.3098 20.349 15.3098C20.8431 15.3098 21.2451 15.7119 21.2451 16.206C21.2451 16.7001 20.8431 17.1021 20.349 17.1021ZM20.349 15.886C20.1725 15.886 20.029 16.0295 20.029 16.206C20.029 16.3824 20.1725 16.526 20.349 16.526C20.5254 16.526 20.669 16.3825 20.669 16.206C20.669 16.0296 20.5254 15.886 20.349 15.886Z" fill="#B8B8B8"/>
<path d="M9.33069 24.1601C8.83655 24.1601 8.43455 23.7581 8.43455 23.2639C8.43455 22.7698 8.83655 22.3678 9.33069 22.3678C9.82484 22.3678 10.2268 22.7698 10.2268 23.2639C10.2268 23.7581 9.82484 24.1601 9.33069 24.1601ZM9.33069 22.9439C9.15425 22.9439 9.01069 23.0875 9.01069 23.2639C9.01069 23.4404 9.15421 23.584 9.33069 23.584C9.50717 23.584 9.65069 23.4404 9.65069 23.2639C9.65069 23.0875 9.50717 22.9439 9.33069 22.9439Z" fill="#B8B8B8"/>
<path d="M17.7942 16.9286C17.9937 16.9286 18.1553 16.7669 18.1553 16.5674C18.1553 16.368 17.9937 16.2063 17.7942 16.2063C17.5947 16.2063 17.433 16.368 17.433 16.5674C17.433 16.7669 17.5947 16.9286 17.7942 16.9286Z" fill="#B8B8B8"/>
<path d="M8.36115 21.2651C8.56061 21.2651 8.7223 21.1035 8.7223 20.904C8.7223 20.7045 8.56061 20.5428 8.36115 20.5428C8.16169 20.5428 8 20.7045 8 20.904C8 21.1035 8.16169 21.2651 8.36115 21.2651Z" fill="#B8B8B8"/>
<path d="M20.11 11.3463C20.3094 11.3463 20.4711 11.1846 20.4711 10.9852C20.4711 10.7857 20.3094 10.624 20.11 10.624C19.9105 10.624 19.7488 10.7857 19.7488 10.9852C19.7488 11.1846 19.9105 11.3463 20.11 11.3463Z" fill="#B8B8B8"/>
</g>
<defs>
<clipPath id="clip0">
<rect width="16.8421" height="16.8421" fill="white" transform="translate(8 8)"/>
</clipPath>
</defs>
</svg>
