<svg width="42" height="42" viewBox="0 0 42 42" fill="none" xmlns="http://www.w3.org/2000/svg">
<circle cx="21" cy="21" r="21" fill="#E3E3E3"/>
<g clip-path="url(#clip0)">
<path d="M22.397 25.8132C18.7562 24.6089 16.1219 21.1732 16.1219 17.1339C16.1219 15.1119 16.7694 13.1956 17.9941 11.5922C18.1544 11.3823 18.1512 11.0904 17.9865 10.8841C17.8218 10.6777 17.5378 10.6099 17.2977 10.7198C15.4328 11.5728 13.8514 12.9326 12.7247 14.6521C11.5681 16.4173 10.9568 18.4705 10.9568 20.5896C10.9568 26.5712 15.8232 31.4377 21.8049 31.4377C23.9241 31.4377 25.9771 30.8263 27.7424 29.6697C29.4619 28.543 30.8217 26.9617 31.6747 25.0967C31.7845 24.8565 31.7168 24.5725 31.5104 24.4078C31.3041 24.2431 31.0121 24.24 30.8023 24.4003C29.199 25.6251 27.2826 26.2725 25.2606 26.2725C24.7013 26.2725 24.1534 26.222 23.6214 26.1253" fill="#B8B8B8"/>
<path d="M29.0217 28.451C27.2565 29.6076 25.2035 30.2189 23.0843 30.2189C17.1026 30.2189 12.2362 25.3525 12.2362 19.3708C12.2362 17.2517 12.8475 15.1986 14.0041 13.4334C14.2921 12.9939 14.6099 12.578 14.9544 12.188C14.2133 12.8361 13.5593 13.5854 13.0127 14.4197C11.856 16.1849 11.2447 18.238 11.2447 20.3571C11.2447 26.3388 16.1112 31.2053 22.0929 31.2053C24.2121 31.2053 26.2652 30.5939 28.0303 29.4373C28.8489 28.901 29.5857 28.2614 30.2253 27.5375C29.8475 27.8678 29.4456 28.1733 29.0217 28.451Z" fill="#B8B8B8"/>
<path d="M24.8532 16.7065C23.7497 16.7065 22.855 15.8118 22.855 14.7083C22.855 15.8118 21.9604 16.7065 20.8568 16.7065C21.9605 16.7065 22.855 17.6012 22.855 18.7047C22.855 17.6012 23.7497 16.7065 24.8532 16.7065Z" fill="#B8B8B8"/>
<path d="M26.2078 21.5684C26.6486 21.5684 27.006 21.2111 27.006 20.7703C27.006 20.3295 26.6486 19.9722 26.2078 19.9722C25.767 19.9722 25.4097 20.3295 25.4097 20.7703C25.4097 21.2111 25.767 21.5684 26.2078 21.5684Z" fill="#B8B8B8"/>
<path d="M11.7467 30.832C12.1875 30.832 12.5449 30.4746 12.5449 30.0338C12.5449 29.593 12.1875 29.2357 11.7467 29.2357C11.306 29.2357 10.9486 29.593 10.9486 30.0338C10.9486 30.4746 11.306 30.832 11.7467 30.832Z" fill="#B8B8B8"/>
<path d="M21.8045 31.8161C15.6143 31.8161 10.5783 26.78 10.5783 20.5899C10.5783 18.397 11.211 16.2721 12.4081 14.4453C13.5739 12.666 15.2103 11.259 17.1401 10.3763C17.5384 10.194 18.0079 10.3057 18.2816 10.6485C18.555 10.9911 18.5602 11.4736 18.2942 11.8219C17.1201 13.3589 16.4995 15.1959 16.4995 17.1342C16.4995 20.9206 18.9171 24.2643 22.5153 25.4545C22.7135 25.52 22.8211 25.7339 22.7555 25.9322C22.6899 26.1304 22.4762 26.2379 22.2778 26.1724C20.3933 25.5491 18.772 24.3694 17.5891 22.7609C16.3816 21.119 15.7433 19.1732 15.7433 17.1341C15.7433 15.0285 16.4176 13.0328 17.6932 11.3629C17.7482 11.2909 17.7471 11.1911 17.6906 11.1202C17.634 11.0493 17.5371 11.0262 17.4548 11.0639C15.6544 11.8873 14.1281 13.1998 13.0405 14.8597C11.9244 16.5631 11.3344 18.5446 11.3344 20.5899C11.3344 26.3631 16.0313 31.06 21.8045 31.06C23.8497 31.06 25.8312 30.47 27.5347 29.3539C29.1946 28.2663 30.5072 26.7398 31.3305 24.9398C31.3682 24.8574 31.3451 24.7603 31.2742 24.7037C31.2033 24.6472 31.1035 24.646 31.0314 24.7012C29.3617 25.9767 27.3659 26.651 25.2603 26.651C24.6876 26.651 24.1133 26.5994 23.5536 26.4977C23.3481 26.4604 23.2118 26.2636 23.2492 26.0582C23.2865 25.8526 23.4832 25.7163 23.6887 25.7537C24.204 25.8473 24.7328 25.8948 25.2603 25.8948C27.1988 25.8948 29.0357 25.2743 30.5725 24.1002C30.9209 23.8341 31.4035 23.8394 31.746 24.1127C32.0886 24.3863 32.2005 24.8557 32.0182 25.2544C31.1355 27.1842 29.7285 28.8205 27.9492 29.9864C26.1222 31.1834 23.9974 31.8161 21.8045 31.8161Z" fill="#B8B8B8"/>
<path d="M22.8546 19.0829C22.6458 19.0829 22.4765 18.9136 22.4765 18.7048C22.4765 17.8115 21.7497 17.0847 20.8564 17.0847C20.6476 17.0847 20.4783 16.9154 20.4783 16.7066C20.4783 16.4978 20.6476 16.3286 20.8564 16.3286C21.7497 16.3286 22.4765 15.6017 22.4765 14.7084C22.4765 14.4996 22.6458 14.3303 22.8546 14.3303C23.0634 14.3303 23.2327 14.4996 23.2327 14.7084C23.2327 15.6017 23.9595 16.3286 24.8528 16.3286C25.0616 16.3286 25.2309 16.4978 25.2309 16.7066C25.2309 16.9154 25.0616 17.0847 24.8528 17.0847C23.9595 17.0847 23.2327 17.8115 23.2327 18.7048C23.2327 18.9136 23.0634 19.0829 22.8546 19.0829ZM22.1412 16.7066C22.4268 16.8909 22.6704 17.1344 22.8547 17.42C23.0389 17.1344 23.2825 16.8909 23.568 16.7066C23.2825 16.5224 23.0389 16.2788 22.8547 15.9932C22.6704 16.2788 22.4268 16.5224 22.1412 16.7066Z" fill="#B8B8B8"/>
<path d="M26.2079 21.9464C25.5594 21.9464 25.0317 21.4187 25.0317 20.7702C25.0317 20.1217 25.5594 19.594 26.2079 19.594C26.8565 19.594 27.3842 20.1217 27.3842 20.7702C27.3842 21.4187 26.8565 21.9464 26.2079 21.9464ZM26.2079 20.3502C25.9764 20.3502 25.7879 20.5386 25.7879 20.7703C25.7879 21.0018 25.9763 21.1902 26.2079 21.1902C26.4395 21.1902 26.628 21.0019 26.628 20.7703C26.628 20.5387 26.4396 20.3502 26.2079 20.3502Z" fill="#B8B8B8"/>
<path d="M11.7465 31.2099C11.0979 31.2099 10.5703 30.6823 10.5703 30.0337C10.5703 29.3852 11.0979 28.8575 11.7465 28.8575C12.3951 28.8575 12.9227 29.3852 12.9227 30.0337C12.9227 30.6823 12.3951 31.2099 11.7465 31.2099ZM11.7465 29.6137C11.5149 29.6137 11.3265 29.8021 11.3265 30.0337C11.3265 30.2653 11.5149 30.4538 11.7465 30.4538C11.9781 30.4538 12.1665 30.2654 12.1665 30.0337C12.1665 29.8021 11.9781 29.6137 11.7465 29.6137Z" fill="#B8B8B8"/>
<path d="M22.8548 21.7186C23.1166 21.7186 23.3288 21.5064 23.3288 21.2446C23.3288 20.9828 23.1166 20.7706 22.8548 20.7706C22.593 20.7706 22.3808 20.9828 22.3808 21.2446C22.3808 21.5064 22.593 21.7186 22.8548 21.7186Z" fill="#B8B8B8"/>
<path d="M10.474 27.4103C10.7358 27.4103 10.948 27.1981 10.948 26.9363C10.948 26.6745 10.7358 26.4623 10.474 26.4623C10.2122 26.4623 10 26.6745 10 26.9363C10 27.1981 10.2122 27.4103 10.474 27.4103Z" fill="#B8B8B8"/>
<path d="M25.8943 14.3919C26.1561 14.3919 26.3683 14.1796 26.3683 13.9179C26.3683 13.6561 26.1561 13.4438 25.8943 13.4438C25.6325 13.4438 25.4203 13.6561 25.4203 13.9179C25.4203 14.1796 25.6325 14.3919 25.8943 14.3919Z" fill="#B8B8B8"/>
</g>
<defs>
<clipPath id="clip0">
<rect width="22.1053" height="22.1053" fill="white" transform="translate(10 10)"/>
</clipPath>
</defs>
</svg>
