<svg width="32" height="32" viewBox="0 0 32 32" fill="none" xmlns="http://www.w3.org/2000/svg">
<circle cx="16" cy="16" r="16" fill="white"/>
<g filter="url(#filter0_d)">
<circle cx="16.075" cy="16.075" r="5.075" fill="#F6CB43"/>
</g>
<path d="M21.157 18.2469C20.4243 20.1471 18.5804 21.4954 16.4215 21.4954C14.2626 21.4954 12.4187 20.1471 11.6855 18.2469C12.4187 16.3467 14.2626 14.9987 16.4215 14.9987C18.5804 14.9987 20.4243 16.3467 21.157 18.2469Z" fill="#FAB03C"/>
<path d="M21.0541 19.4919C21.6596 18.5799 21.9796 17.518 21.9796 16.4211C21.9796 13.3559 19.4859 10.8624 16.4209 10.8624C13.3559 10.8624 10.8625 13.3559 10.8625 16.4211C10.8625 19.4861 13.3559 21.9795 16.4209 21.9795C17.4813 21.9795 18.5137 21.6785 19.4067 21.1087C19.6321 20.965 19.6982 20.6655 19.5542 20.4403C19.4105 20.2149 19.1112 20.1486 18.8859 20.2926C18.1489 20.7628 17.2965 21.0116 16.4209 21.0116C13.8897 21.0116 11.8306 18.9523 11.8306 16.4211C11.8306 13.8898 13.8897 11.8306 16.4209 11.8306C18.9522 11.8306 21.0114 13.8898 21.0114 16.4211C21.0114 17.3269 20.7472 18.2035 20.2475 18.9564C20.0995 19.179 20.1603 19.4795 20.3829 19.6272C20.6058 19.7752 20.9061 19.7145 21.0541 19.4919Z" fill="black"/>
<path d="M16.4214 10.061C16.6889 10.061 16.9055 9.84423 16.9055 9.57699V8.48406C16.9055 8.21657 16.6889 8 16.4214 8C16.1542 8 15.9373 8.21657 15.9373 8.48406V9.57699C15.9373 9.84423 16.1542 10.061 16.4214 10.061Z" fill="black"/>
<path d="M15.9373 23.2651V24.358C15.9373 24.6255 16.1542 24.8421 16.4214 24.8421C16.6889 24.8421 16.9055 24.6255 16.9055 24.358V23.2651C16.9055 22.9976 16.6889 22.781 16.4214 22.781C16.1542 22.781 15.9373 22.9978 15.9373 23.2651V23.2651Z" fill="black"/>
<path d="M12.5797 10.7362C12.6694 10.8915 12.832 10.9782 12.9994 10.9782C13.0814 10.9782 13.1648 10.9573 13.241 10.9134C13.4724 10.7795 13.5518 10.4835 13.4182 10.2521L12.8716 9.30565C12.738 9.07395 12.4418 8.99479 12.2103 9.12841C11.9789 9.26203 11.8995 9.55802 12.0333 9.78971L12.5797 10.7362Z" fill="black"/>
<path d="M19.6018 21.9289C19.3701 22.0625 19.2909 22.3588 19.4245 22.5902L19.9711 23.5369C20.0606 23.6922 20.2232 23.7789 20.3906 23.7789C20.4728 23.7789 20.556 23.758 20.6322 23.7139C20.8636 23.5803 20.943 23.2843 20.8094 23.0528L20.2628 22.1061C20.1292 21.8747 19.8332 21.7953 19.6018 21.9289Z" fill="black"/>
<path d="M9.30532 12.8716L10.252 13.4182C10.3282 13.4623 10.4114 13.4832 10.4935 13.4832C10.6609 13.4832 10.8236 13.3963 10.9133 13.241C11.0469 13.0095 10.9675 12.7135 10.7361 12.5799L9.78938 12.0333C9.55794 11.8997 9.26196 11.9789 9.12833 12.2106C8.99446 12.442 9.07388 12.738 9.30532 12.8716Z" fill="black"/>
<path d="M22.1063 20.2626L23.0527 20.8089C23.1291 20.8531 23.2123 20.874 23.2945 20.874C23.4617 20.874 23.6243 20.787 23.714 20.632C23.8477 20.4003 23.7685 20.1043 23.5368 19.9707L22.5904 19.4241C22.3589 19.2904 22.0627 19.3696 21.9291 19.6013C21.7954 19.8327 21.8749 20.129 22.1063 20.2626V20.2626Z" fill="black"/>
<path d="M22.7811 16.421C22.7811 16.6882 22.9976 16.905 23.2651 16.905H24.3581C24.6253 16.905 24.8421 16.6882 24.8421 16.421C24.8421 16.1535 24.6253 15.9369 24.3581 15.9369H23.2651C22.9976 15.9369 22.7811 16.1535 22.7811 16.421V16.421Z" fill="black"/>
<path d="M8.48406 16.905H9.57724C9.84448 16.905 10.0613 16.6882 10.0613 16.421C10.0613 16.1535 9.84448 15.9369 9.57724 15.9369H8.48406C8.21682 15.9369 8 16.1535 8 16.421C8 16.6882 8.21682 16.905 8.48406 16.905Z" fill="black"/>
<path d="M22.3488 13.4832C22.4308 13.4832 22.5142 13.4623 22.5904 13.4182L23.5368 12.8716C23.7685 12.738 23.8477 12.442 23.714 12.2106C23.5804 11.9789 23.2842 11.8997 23.0527 12.0333L22.1063 12.5799C21.8749 12.7135 21.7954 13.0095 21.9291 13.241C22.0188 13.3963 22.1814 13.4832 22.3488 13.4832V13.4832Z" fill="black"/>
<path d="M10.2526 19.4241L9.30587 19.9707C9.07442 20.1043 8.99501 20.4003 9.12863 20.632C9.21838 20.787 9.381 20.874 9.5484 20.874C9.63034 20.874 9.71379 20.8531 9.78993 20.8089L10.7366 20.2626C10.9681 20.129 11.0472 19.8327 10.9136 19.6013C10.78 19.3696 10.484 19.2904 10.2526 19.4241Z" fill="black"/>
<path d="M19.6018 10.9134C19.6779 10.9573 19.7611 10.9782 19.8433 10.9782C20.0104 10.9782 20.1733 10.8915 20.2628 10.7362L20.8094 9.78971C20.943 9.55827 20.8636 9.26203 20.6322 9.12841C20.4007 8.99479 20.1047 9.07395 19.9711 9.30565L19.4245 10.2521C19.2909 10.4835 19.3701 10.7795 19.6018 10.9134Z" fill="black"/>
<path d="M12.5797 22.1061L12.0333 23.0528C11.8995 23.2843 11.9789 23.5803 12.2103 23.7139C12.2867 23.758 12.3699 23.7789 12.4521 23.7789C12.6193 23.7789 12.7821 23.6922 12.8716 23.5369L13.4182 22.5902C13.5518 22.3588 13.4724 22.0628 13.241 21.9289C13.0095 21.7953 12.7133 21.8747 12.5797 22.1061Z" fill="black"/>
<defs>
<filter id="filter0_d" x="1" y="1" width="30.15" height="30.15" filterUnits="userSpaceOnUse" color-interpolation-filters="sRGB">
<feFlood flood-opacity="0" result="BackgroundImageFix"/>
<feColorMatrix in="SourceAlpha" type="matrix" values="0 0 0 0 0 0 0 0 0 0 0 0 0 0 0 0 0 0 127 0"/>
<feMorphology radius="2" operator="dilate" in="SourceAlpha" result="effect1_dropShadow"/>
<feOffset/>
<feGaussianBlur stdDeviation="4"/>
<feColorMatrix type="matrix" values="0 0 0 0 0.964706 0 0 0 0 0.796078 0 0 0 0 0.262745 0 0 0 1 0"/>
<feBlend mode="normal" in2="BackgroundImageFix" result="effect1_dropShadow"/>
<feBlend mode="normal" in="SourceGraphic" in2="effect1_dropShadow" result="shape"/>
</filter>
</defs>
</svg>
