<?xml version="1.0" encoding="utf-8"?>
<!-- Generator: Adobe Illustrator 25.2.1, SVG Export Plug-In . SVG Version: 6.00 Build 0)  -->
<svg version="1.1" xmlns="http://www.w3.org/2000/svg" xmlns:xlink="http://www.w3.org/1999/xlink" x="0px" y="0px"
	 viewBox="0 0 1920 1080" style="enable-background:new 0 0 1920 1080;" xml:space="preserve">
<style type="text/css">
	.st0{fill:url(#SVGID_1_);}
	.st1{opacity:0.1;fill:#E93E3E;enable-background:new    ;}
	.st2{fill:#FFFFFF;}
	.st3{fill:#EE6E6E;}
	.st4{fill:#E93E3E;}
	.st5{fill:none;stroke:#E93E3E;stroke-width:10;stroke-miterlimit:10;}
</style>
<g id="Resto_5">
	
		<linearGradient id="SVGID_1_" gradientUnits="userSpaceOnUse" x1="818.6893" y1="534.8052" x2="1091.952" y2="523.9712" gradientTransform="matrix(1 0 0 -1 0 1081)">
		<stop  offset="0" style="stop-color:#F9CFCF;stop-opacity:0.8"/>
		<stop  offset="1" style="stop-color:#F49F9F"/>
	</linearGradient>
	<path class="st0" d="M1071,498.5c-17.1-17.6-43.9-20.1-63.7-7.3c-5.6,3.6-12.5,4.9-19,3.4c-15.5-3.4-31.7-1.1-45.5,6.4
		c-9.3,5-20.6,4.2-29.2-1.9c-5.7-4-12.4-6.9-19.8-8.2c-27.2-5-53.6,13-58.9,40.2c-5.3,27.8,13.1,54.5,40.8,59.4
		c6.8,1.2,13.5,1,19.8-0.4c10.3-2.3,21,1.5,27.6,9.7c4.2,5.2,9.2,9.8,15.1,13.6c30.3,19.8,70.9,11.2,90.6-19.1c0,0,0-0.1,0.1-0.1
		c3.6-5.6,9.2-9.5,15.8-10.9c9.5-1.9,18.5-6.6,25.9-14C1089.9,549.9,1090.1,518.1,1071,498.5z"/>
	<path class="st1" d="M1070,576.1v-35c0-2.7-2.2-4.9-4.9-4.9h-24v-53.6c0-4.1-3.3-7.4-7.4-7.4h-134c-4.1,0-7.4,3.3-7.4,7.4v38.9
		h-38.2c-2.7,0-4.9,2.2-4.9,4.9v49.7H1070z"/>
	<path class="st2" d="M988.8,623h-44.2l5.8-22.9l3.1-12.1h26.5l3.1,12.1L988.8,623z"/>
	<path class="st2" d="M1033.7,594.7h-134c-4.1,0-7.4-3.3-7.4-7.4v-96c0-4.1,3.3-7.4,7.4-7.4h134c4.1,0,7.4,3.3,7.4,7.4v96
		C1041,591.4,1037.7,594.7,1033.7,594.7z"/>
</g>
<g id="Tela_5">
	<path class="st3" d="M1020.9,539.8H912.5c-0.8,0-1.5-0.7-1.5-1.5v-35.5h111.4v35.5C1022.4,539.1,1021.7,539.8,1020.9,539.8z"/>
</g>
<g id="Linha_3">
	<path class="st4" d="M1003.1,561H995c-1.4,0-2.5-1.1-2.5-2.5c0-1.4,1.1-2.5,2.5-2.5h8.1c1.4,0,2.5,1.1,2.5,2.5
		C1005.5,559.9,1004.5,561,1003.1,561z"/>
</g>
<g id="Linha_2">
	<path class="st4" d="M977.1,561h-52.3c-1.4,0-2.5-1.1-2.5-2.5c0-1.4,1.1-2.5,2.5-2.5h52.3c1.4,0,2.5,1.1,2.5,2.5
		C979.5,559.9,978.4,561,977.1,561z"/>
</g>
<g id="Linha_1">
	<path class="st4" d="M977.1,551.2h-52.3c-1.4,0-2.5-1.1-2.5-2.5c0-1.4,1.1-2.5,2.5-2.5h52.3c1.4,0,2.5,1.1,2.5,2.5
		C979.5,550.1,978.4,551.2,977.1,551.2z"/>
</g>
<g id="Resto_4">
	<path class="st2" d="M1041,502.8v-11.4c0-4.1-3.3-7.4-7.4-7.4h-134c-4.1,0-7.4,3.3-7.4,7.4v11.4H1041z"/>
	<path class="st2" d="M892.3,575.1v12.3c0,4.1,3.3,7.4,7.4,7.4h134c4.1,0,7.4-3.3,7.4-7.4v-12.3H892.3z"/>
	<path class="st3" d="M1065.1,623h-36.3c-2.7,0-4.9-2.2-4.9-4.9v-68.2c0-2.7,2.2-4.9,4.9-4.9h36.3c2.7,0,4.9,2.2,4.9,4.9v68.2
		C1070,620.8,1067.8,623,1065.1,623z"/>
	<path class="st2" d="M1023.9,592.6v25.5c0,2.7,2.2,4.9,4.9,4.9h36.3c2.7,0,4.9-2.2,4.9-4.9v-25.5H1023.9z"/>
	<path class="st2" d="M1056.3,552l2.3-7h-23.2l2.3,7c0.3,1,1.3,1.7,2.3,1.7h14C1055,553.7,1055.9,553,1056.3,552z"/>
	<path class="st2" d="M919.9,623h-65.8c-2.7,0-4.9-2.2-4.9-4.9v-82.9c0-2.7,2.2-4.9,4.9-4.9h65.8c2.7,0,4.9,2.2,4.9,4.9v82.9
		C924.8,620.8,922.6,623,919.9,623z"/>
	<path class="st2" d="M924.8,546.3v-11.1c0-2.7-2.2-4.9-4.9-4.9h-65.8c-2.7,0-4.9,2.2-4.9,4.9v11.1H924.8z"/>
</g>
<g id="Tela_4">
	<path class="st3" d="M911.8,613.2h-24.5c-0.8,0-1.5-0.7-1.5-1.5v-27.7c0-0.8,0.7-1.5,1.5-1.5h24.5c0.8,0,1.5,0.7,1.5,1.5v27.7
		C913.2,612.5,912.6,613.2,911.8,613.2z"/>
</g>
<g id="Tela_3">
	<path class="st3" d="M911.8,575.6h-24.5c-0.8,0-1.5-0.7-1.5-1.5v-15.2c0-0.8,0.7-1.5,1.5-1.5h24.5c0.8,0,1.5,0.7,1.5,1.5v15.2
		C913.2,575,912.6,575.6,911.8,575.6z"/>
</g>
<g id="Tela_2">
	<path class="st3" d="M877.4,613.2h-15.2c-0.8,0-1.5-0.7-1.5-1.5v-52.7c0-0.8,0.7-1.5,1.5-1.5h15.2c0.8,0,1.5,0.7,1.5,1.5v52.7
		C878.9,612.5,878.2,613.2,877.4,613.2z"/>
</g>
<g id="Resto_3">
	<path class="st4" d="M907.1,490.9c-1.4,0-2.5,1.1-2.5,2.5v0.1c0,1.4,1.1,2.5,2.5,2.5c1.4,0,2.5-1.1,2.5-2.5v-0.1
		C909.6,492,908.5,490.9,907.1,490.9z"/>
	<path class="st4" d="M914.6,490.9c-1.4,0-2.5,1.1-2.5,2.5v0.1c0,1.4,1.1,2.5,2.5,2.5s2.5-1.1,2.5-2.5v-0.1
		C917.1,492,916,490.9,914.6,490.9z"/>
	<path class="st4" d="M922.2,490.9c-1.4,0-2.5,1.1-2.5,2.5v0.1c0,1.4,1.1,2.5,2.5,2.5c1.4,0,2.5-1.1,2.5-2.5v-0.1
		C924.6,492,923.5,490.9,922.2,490.9z"/>
</g>
<g id="Body">
	<path class="st4" d="M1065.1,542.6h-21.6v-51.1c0-5.4-4.4-9.8-9.8-9.8h-134c-5.4,0-9.8,4.4-9.8,9.8v25.4c0,1.4,1.1,2.5,2.5,2.5
		c1.4,0,2.5-1.1,2.5-2.5v-11.5h143.8v37.3h-9.8c-4.1,0-7.4,3.3-7.4,7.4v11.7c0,1.4,1.1,2.5,2.5,2.5c1.4,0,2.5-1.1,2.5-2.5v-11.7
		c0-1.4,1.1-2.5,2.5-2.5h4.8l1.7,5.3c0.7,2,2.5,3.4,4.7,3.4h14c2.1,0,4-1.4,4.7-3.4l1.7-5.3h4.8c1.4,0,2.5,1.1,2.5,2.5v68.2
		c0,1.4-1.1,2.5-2.5,2.5h-36.3c-1.4,0-2.5-1.1-2.5-2.5v-43c0-1.4-1.1-2.5-2.5-2.5h-96.6v-37.5c0-4.1-3.3-7.4-7.4-7.4h-65.8
		c-4.1,0-7.4,3.3-7.4,7.4v82.9c0,4.1,3.3,7.4,7.4,7.4h65.8c4.1,0,7.4-3.3,7.4-7.4v-20.9h21.3l-5.9,23.4h-5.6c-1.4,0-2.5,1.1-2.5,2.5
		c0,1.4,1.1,2.5,2.5,2.5h59.1c1.4,0,2.5-1.1,2.5-2.5c0-1.4-1.1-2.5-2.5-2.5h-5.6l-5.9-23.4h36.7v20.9c0,4.1,3.3,7.4,7.4,7.4h36.3
		c4.1,0,7.4-3.3,7.4-7.4v-68.2C1072.4,545.9,1069.1,542.6,1065.1,542.6z M894.7,500.4v-8.9c0-2.7,2.2-4.9,4.9-4.9h134
		c2.7,0,4.9,2.2,4.9,4.9v8.9H894.7z M1053.9,551.2h-14l-1.2-3.8h16.5L1053.9,551.2z M854.1,532.7h65.8c1.4,0,2.5,1.1,2.5,2.5v8.7
		h-70.7v-8.7C851.7,533.8,852.8,532.7,854.1,532.7z M922.3,618.1c0,1.4-1.1,2.5-2.5,2.5h-65.8c-1.4,0-2.5-1.1-2.5-2.5v-69.4h70.7
		V618.1z M985.6,620.6h-37.9l5.9-23.4h26.1L985.6,620.6z M927.2,592.3v-14.7h94.2v14.7H927.2z"/>
</g>
<g id="Resto_2">
	<path class="st4" d="M862.1,540.8c1.4,0,2.5-1.1,2.5-2.5v-0.1c0-1.4-1.1-2.5-2.5-2.5c-1.4,0-2.5,1.1-2.5,2.5v0.1
		C859.6,539.7,860.7,540.8,862.1,540.8z"/>
	<path class="st4" d="M869.6,540.8c1.4,0,2.5-1.1,2.5-2.5v-0.1c0-1.4-1.1-2.5-2.5-2.5c-1.4,0-2.5,1.1-2.5,2.5v0.1
		C867.1,539.7,868.2,540.8,869.6,540.8z"/>
	<path class="st4" d="M877.1,540.8c1.4,0,2.5-1.1,2.5-2.5v-0.1c0-1.4-1.1-2.5-2.5-2.5s-2.5,1.1-2.5,2.5v0.1
		C874.6,539.7,875.7,540.8,877.1,540.8z"/>
	<path class="st4" d="M965.5,520l1.1-1.1l1.1,1.1c0.5,0.5,1.1,0.7,1.7,0.7c0.6,0,1.3-0.2,1.7-0.7c1-1,1-2.5,0-3.5l-2.9-2.9
		c-1-1-2.5-1-3.5,0l-2.9,2.9c-1,1-1,2.5,0,3.5C963,520.9,964.6,520.9,965.5,520z"/>
</g>
<g id="Tela_1">
	<path class="st5" d="M1042,611.6h-6.9c-0.8,0-1.5-0.7-1.5-1.5V568c0-0.8,0.7-1.5,1.5-1.5h6.9c0.8,0,1.5,0.7,1.5,1.5v42.1
		C1043.5,610.9,1042.8,611.6,1042,611.6z"/>
</g>
<g id="Brilho_4">
	<path class="st3" d="M1029.2,470.2c-1.4,0-2.5-1.1-2.5-2.5c0-1.6-1.3-2.9-2.9-2.9c-1.4,0-2.5-1.1-2.5-2.5c0-1.4,1.1-2.5,2.5-2.5
		c1.6,0,2.9-1.3,2.9-2.9c0-1.4,1.1-2.5,2.5-2.5c1.4,0,2.5,1.1,2.5,2.5c0,1.6,1.3,2.9,2.9,2.9c1.4,0,2.5,1.1,2.5,2.5
		c0,1.4-1.1,2.5-2.5,2.5c-1.6,0-2.9,1.3-2.9,2.9C1031.7,469.1,1030.6,470.2,1029.2,470.2z"/>
</g>
<g id="Brilho_3">
	<path class="st3" d="M1058.5,533.8c-1.4,0-2.5-1.1-2.5-2.5c0-1.6-1.3-2.9-2.9-2.9c-1.4,0-2.5-1.1-2.5-2.5c0-1.4,1.1-2.5,2.5-2.5
		c1.6,0,2.9-1.3,2.9-2.9c0-1.4,1.1-2.5,2.5-2.5c1.4,0,2.5,1.1,2.5,2.5c0,1.6,1.3,2.9,2.9,2.9c1.4,0,2.5,1.1,2.5,2.5
		c0,1.4-1.1,2.5-2.5,2.5c-1.6,0-2.9,1.3-2.9,2.9C1061,532.7,1059.9,533.8,1058.5,533.8z"/>
</g>
<g id="Brilho_2">
	<path class="st3" d="M1051.7,481.1c-0.6,0-1.3-0.2-1.7-0.7l-5.4-5.4c-1-1-1-2.5,0-3.5l5.4-5.4c1-1,2.5-1,3.5,0l5.4,5.4
		c1,1,1,2.5,0,3.5l-5.4,5.4C1052.9,480.8,1052.3,481.1,1051.7,481.1z M1049.7,473.2l1.9,1.9l1.9-1.9l-1.9-1.9L1049.7,473.2z"/>
</g>
<g id="Brilho_1">
	<path class="st3" d="M869.8,516.6c-0.6,0-1.3-0.2-1.7-0.7l-5.4-5.4c-1-1-1-2.5,0-3.5l5.4-5.4c1-1,2.5-1,3.5,0l5.4,5.4
		c1,1,1,2.5,0,3.5l-5.4,5.4C871.1,516.4,870.5,516.6,869.8,516.6z M867.9,508.8l1.9,1.9l1.9-1.9l-1.9-1.9L867.9,508.8z"/>
</g>
<g id="Resto_1">
	<path class="st4" d="M1012.3,527.5c1.5,0,2.7,1.2,2.7,2.7c0,1.5-1.2,2.7-2.7,2.7c-1.5,0-2.7-1.2-2.7-2.7
		C1009.5,528.8,1010.7,527.5,1012.3,527.5z"/>
	<path class="st4" d="M1012.3,519.2c1.5,0,2.7,1.2,2.7,2.7s-1.2,2.7-2.7,2.7c-1.5,0-2.7-1.2-2.7-2.7S1010.7,519.2,1012.3,519.2z"/>
	<path class="st4" d="M1012.3,510.9c1.5,0,2.7,1.2,2.7,2.7s-1.2,2.7-2.7,2.7c-1.5,0-2.7-1.2-2.7-2.7S1010.7,510.9,1012.3,510.9z"/>
</g>
</svg>
