<svg width="1341" height="1079" viewBox="0 0 1341 1079" fill="none" xmlns="http://www.w3.org/2000/svg">
<path d="M1002.2 325.3C1001.7 325.3 1001.2 325.3 1000.7 325.3C916.9 325.2 837.4 289.1 782.3 225.9C700.3 131.8 579.3 72.5 444.4 73.1C199.7 74.2 -2.20002 279.8 0.899975 524.5C3.99997 767.9 202.3 964.2 446.4 964.2C515.3 964.2 580.6 948.5 638.9 920.6C689.1 896.5 749 902.8 793.2 936.7C850.4 980.5 921.9 1006.6 999.5 1006.7C1186.3 1007 1339.7 854.9 1340.8 668C1341.9 479.5 1190.5 326.5 1002.2 325.3Z" fill="url(#paint0_linear)"/>
<path opacity="0.1" d="M1193 251.1C1193 136 1099.7 42.7 984.7 42.7C896.9 42.7 821.9 97 791.2 173.8H164.3C139.8 173.8 120 193.7 120 218.1V796.1C120 820.6 139.9 840.4 164.3 840.4H971.5C996 840.4 1015.8 820.5 1015.8 796.1V457.1C1116.1 442 1193 355.5 1193 251.1Z" fill="#4249EE"/>
<path d="M700.9 1065.9H434.9L469.6 928.5L488.1 855.1H647.7L666.2 928.5L700.9 1065.9Z" fill="white"/>
<path d="M971.5 895.4H164.3C139.8 895.4 120 875.6 120 851.1V273.1C120 248.6 139.9 228.8 164.3 228.8H971.5C996 228.8 1015.8 248.7 1015.8 273.1V851.1C1015.9 875.6 996 895.4 971.5 895.4Z" fill="white"/>
<path d="M971.5 228.8H681.3V895.5H971.5C996 895.5 1015.8 875.7 1015.8 851.2V273.2C1015.9 248.6 996 228.8 971.5 228.8Z" fill="#7176F2"/>
<path d="M1015.9 341.7V273.1C1015.9 248.6 996.1 228.8 971.6 228.8H164.3C139.8 228.8 120 248.7 120 273.1V341.7H1015.9V341.7Z" fill="white"/>
<path d="M120 777.2V851C120 875.5 139.9 895.3 164.3 895.3H971.5C996 895.3 1015.8 875.4 1015.8 851V777.2H120Z" fill="white"/>
<path d="M209.3 298.5C202.1 298.5 196.2 292.6 196.2 285.4V285.1C196.2 277.9 202.1 272 209.3 272C216.5 272 222.4 277.9 222.4 285.1V285.4C222.4 292.6 216.5 298.5 209.3 298.5Z" fill="#4249EE"/>
<path d="M254.6 298.5C247.4 298.5 241.5 292.6 241.5 285.4V285.1C241.5 277.9 247.4 272 254.6 272C261.8 272 267.7 277.9 267.7 285.1V285.4C267.7 292.6 261.8 298.5 254.6 298.5Z" fill="#4249EE"/>
<path d="M299.9 298.5C292.7 298.5 286.8 292.6 286.8 285.4V285.1C286.8 277.9 292.7 272 299.9 272C307.1 272 313 277.9 313 285.1V285.4C313 292.6 307.1 298.5 299.9 298.5Z" fill="#4249EE"/>
<path d="M1082.3 441.6V795.4C1082.3 816.3 1059.1 828.8 1041.7 817.2L999.1 788.9C990.3 783.1 978.9 783.1 970.2 788.9L927.6 817.2C910.2 828.7 887 816.3 887 795.4V441.6H1082.3Z" fill="white"/>
<path d="M1131.8 453.4C1213.2 372 1213.2 240.1 1131.8 158.8C1050.4 77.4 918.5 77.4 837.2 158.8C755.8 240.2 755.8 372.1 837.2 453.4C918.5 534.8 1050.4 534.8 1131.8 453.4Z" fill="white"/>
<path d="M1092.9 414.6C1152.8 354.7 1152.8 257.6 1092.9 197.7C1033 137.8 935.9 137.8 875.9 197.7C816 257.6 816 354.7 875.9 414.6C935.9 474.5 1033 474.5 1092.9 414.6Z" fill="#7176F2"/>
<path d="M984.6 702.2C991.8 702.2 997.7 696.3 997.7 689.1V527.1C1113.7 520.3 1206 423.8 1206 306.1C1206 184 1106.7 84.7 984.6 84.7C894.7 84.7 817.2 138.6 782.5 215.8H164.3C132.6 215.8 106.9 241.6 106.9 273.2V341.8C106.9 349 112.8 354.9 120 354.9H768.7C782.5 415.8 821.3 467.2 873.9 497.7V764.2H133V415.5C133 408.3 127.1 402.4 119.9 402.4C112.7 402.4 106.8 408.3 106.8 415.5V851.1C106.8 882.8 132.6 908.5 164.2 908.5H461L424.6 1052.8H389.7C382.5 1052.8 376.6 1058.7 376.6 1065.9C376.6 1073.1 382.5 1079 389.7 1079H746C753.2 1079 759.1 1073.1 759.1 1065.9C759.1 1058.7 753.2 1052.8 746 1052.8H711.1L674.7 908.5H971.5C1003.2 908.5 1028.9 882.7 1028.9 851.1V824.5L1034.4 828.2C1046.5 836.2 1061.9 836.9 1074.7 830.1C1087.5 823.3 1095.4 810 1095.4 795.5V562.1C1095.4 554.9 1089.5 549 1082.3 549C1075.1 549 1069.2 554.9 1069.2 562.1V795.4C1069.2 802.5 1064.4 805.8 1062.3 806.9C1060.2 808 1054.8 810.2 1048.9 806.3L1006.3 778.1C993.1 769.4 976.1 769.4 962.9 778.1L920.3 806.3C914.4 810.2 909 808 906.9 806.9C904.8 805.8 900 802.4 900 795.4V510.6C922.3 519.8 946.3 525.5 971.5 527V689C971.5 696.3 977.4 702.2 984.6 702.2ZM684.1 1052.8H451.7L488.1 908.5H647.7L684.1 1052.8ZM913.1 834.7C920.7 834.7 928.2 832.5 934.8 828.2L977.4 800C981.8 797.1 987.5 797.1 991.9 800L1002.8 807.3V851.2C1002.8 868.4 988.8 882.4 971.6 882.4H164.3C147.1 882.4 133 868.4 133 851.2V790.4H873.8V795.5C873.8 810 881.7 823.2 894.5 830.1C900.3 833.1 906.7 834.7 913.1 834.7ZM133 328.6V273C133 255.8 147 241.7 164.3 241.7H772.7C766.5 262 763.2 283.6 763.2 305.9C763.2 313.5 763.6 321.1 764.3 328.5H133V328.6ZM789.4 306C789.4 281.3 794.1 257.6 802.5 235.8C803.4 234.4 804.1 232.8 804.4 231.1C833.8 160.5 903.6 110.8 984.7 110.8C1092.4 110.8 1180 198.4 1180 306.1C1180 413.8 1092.4 501.4 984.7 501.4C877 501.4 789.4 413.7 789.4 306Z" fill="#4249EE"/>
<path d="M777.3 590.1C774 590.1 770.6 588.8 768 586.3C762.9 581.2 762.9 572.9 768 567.8L774 561.8L768 555.8C762.9 550.7 762.9 542.4 768 537.3C773.1 532.2 781.4 532.2 786.5 537.3L801.8 552.6C806.9 557.7 806.9 566 801.8 571.1L786.5 586.4C784 588.8 780.6 590.1 777.3 590.1Z" fill="#4249EE"/>
<path d="M651.2 441.7H711.5C715.8 441.7 719.4 445.2 719.4 449.6V674.6C719.4 678.9 715.9 682.5 711.5 682.5H651.2C646.9 682.5 643.3 679 643.3 674.6V449.6C643.3 445.2 646.8 441.7 651.2 441.7Z" fill="white"/>
<path d="M711.5 695.5H651.2C639.6 695.5 630.3 686.1 630.3 674.5V449.5C630.3 437.9 639.7 428.6 651.2 428.6H711.5C723.1 428.6 732.4 438 732.4 449.5V674.5C732.4 686.1 723 695.5 711.5 695.5ZM656.4 669.4H706.3V454.8H656.4V669.4Z" fill="#4249EE"/>
<path d="M234.9 783.4C231.4 783.4 228.1 782 225.6 779.6L207.3 761.3C202.2 756.2 202.2 747.9 207.3 742.8C212.4 737.7 220.7 737.7 225.8 742.8L234.8 751.8L266.9 719.7C272 714.6 280.3 714.6 285.4 719.7C290.5 724.8 290.5 733.1 285.4 738.2L244 779.6C241.7 782 238.4 783.4 234.9 783.4Z" fill="#4249EE"/>
<path d="M533.7 742.6H500.8C493.4 742.6 487.4 736.6 487.4 729.2C487.4 721.8 493.4 715.8 500.8 715.8H533.7C541.1 715.8 547.1 721.8 547.1 729.2C547.1 736.6 541.1 742.6 533.7 742.6Z" fill="#4249EE"/>
<path d="M434.6 742.6H356.1C348.7 742.6 342.7 736.6 342.7 729.2C342.7 721.8 348.7 715.8 356.1 715.8H434.6C442 715.8 448 721.8 448 729.2C448 736.6 442 742.6 434.6 742.6Z" fill="#4249EE"/>
<path d="M234.9 629.3C231.4 629.3 228.1 627.9 225.6 625.5L207.3 607.2C202.2 602.1 202.2 593.8 207.3 588.7C212.4 583.6 220.7 583.6 225.8 588.7L234.8 597.7L266.9 565.6C272 560.5 280.3 560.5 285.4 565.6C290.5 570.7 290.5 579 285.4 584.1L244 625.5C241.7 627.9 238.4 629.3 234.9 629.3Z" fill="#4249EE"/>
<path d="M533.7 641.7H356.1C348.7 641.7 342.7 635.7 342.7 628.3C342.7 620.9 348.7 614.9 356.1 614.9H533.7C541.1 614.9 547.1 620.9 547.1 628.3C547.1 635.7 541.1 641.7 533.7 641.7Z" fill="#4249EE"/>
<path d="M533.7 588.6H500.8C493.4 588.6 487.4 582.6 487.4 575.2C487.4 567.8 493.4 561.8 500.8 561.8H533.7C541.1 561.8 547.1 567.8 547.1 575.2C547.1 582.6 541.1 588.6 533.7 588.6Z" fill="#4249EE"/>
<path d="M434.6 588.6H356.1C348.7 588.6 342.7 582.6 342.7 575.2C342.7 567.8 348.7 561.8 356.1 561.8H434.6C442 561.8 448 567.8 448 575.2C448 582.6 442 588.6 434.6 588.6Z" fill="#4249EE"/>
<path d="M234.9 475.3C231.4 475.3 228.1 473.9 225.6 471.5L207.3 453.2C202.2 448.1 202.2 439.8 207.3 434.7C212.4 429.6 220.7 429.6 225.8 434.7L234.8 443.7L266.9 411.6C272 406.5 280.3 406.5 285.4 411.6C290.5 416.7 290.5 425 285.4 430.1L244 471.5C241.7 473.9 238.4 475.3 234.9 475.3Z" fill="#4249EE"/>
<path d="M533.7 487.7H356.1C348.7 487.7 342.7 481.7 342.7 474.3C342.7 466.9 348.7 460.9 356.1 460.9H533.7C541.1 460.9 547.1 466.9 547.1 474.3C547.1 481.7 541.1 487.7 533.7 487.7Z" fill="#4249EE"/>
<path d="M533.7 434.5H500.8C493.4 434.5 487.4 428.5 487.4 421.1C487.4 413.7 493.4 407.7 500.8 407.7H533.7C541.1 407.7 547.1 413.7 547.1 421.1C547.1 428.5 541.1 434.5 533.7 434.5Z" fill="#4249EE"/>
<path d="M434.6 434.5H356.1C348.7 434.5 342.7 428.5 342.7 421.1C342.7 413.7 348.7 407.7 356.1 407.7H434.6C442 407.7 448 413.7 448 421.1C448 428.5 442 434.5 434.6 434.5Z" fill="#4249EE"/>
<path d="M700.9 121.7C697.6 121.7 694.2 120.4 691.7 117.9L662.9 89.1C660.4 86.6 659.1 83.3 659.1 79.8C659.1 76.3 660.5 73 662.9 70.5L691.7 41.7C694.2 39.2 697.5 37.9 700.9 37.9C704.4 37.9 707.7 39.3 710.2 41.7L739 70.5C744.1 75.6 744.1 83.9 739 89L710.2 117.8C707.6 120.4 704.3 121.7 700.9 121.7ZM690.6 79.8L700.9 90.1L711.2 79.8L700.9 69.5L690.6 79.8Z" fill="#7176F2"/>
<path d="M289.4 1079C285.9 1079 282.6 1077.6 280.1 1075.2L251.3 1046.4C246.2 1041.3 246.2 1033 251.3 1027.9L280.1 999.1C282.6 996.6 285.9 995.3 289.4 995.3C292.9 995.3 296.2 996.7 298.7 999.1L327.5 1027.9C330 1030.4 331.3 1033.7 331.3 1037.2C331.3 1040.7 329.9 1044 327.5 1046.5L298.7 1075.3C296.2 1077.6 292.8 1079 289.4 1079ZM279 1037.1L289.3 1047.4L299.6 1037.1L289.3 1026.8L279 1037.1Z" fill="#7176F2"/>
<path d="M1193 550.5C1185.8 550.5 1179.9 544.6 1179.9 537.4C1179.9 528.7 1172.8 521.7 1164.1 521.7C1156.9 521.7 1151 515.8 1151 508.6C1151 501.4 1156.9 495.5 1164.1 495.5C1172.8 495.5 1179.9 488.4 1179.9 479.8C1179.9 472.6 1185.8 466.7 1193 466.7C1200.2 466.7 1206.1 472.6 1206.1 479.8C1206.1 488.5 1213.2 495.5 1221.9 495.5C1229.1 495.5 1235 501.4 1235 508.6C1235 515.8 1229.1 521.7 1221.9 521.7C1213.2 521.7 1206.1 528.8 1206.1 537.4C1206.1 544.7 1200.2 550.5 1193 550.5Z" fill="#7176F2"/>
<path d="M581.9 84.6C574.7 84.6 568.8 78.7 568.8 71.5C568.8 62.8 561.7 55.8 553.1 55.8C545.9 55.8 540 49.9 540 42.7C540 35.5 545.9 29.6 553.1 29.6C561.8 29.6 568.8 22.5 568.8 13.9C568.8 6.69999 574.7 0.799988 581.9 0.799988C589.1 0.799988 595 6.69999 595 13.9C595 22.6 602.1 29.6 610.7 29.6C617.9 29.6 623.8 35.5 623.8 42.7C623.8 49.9 617.9 55.8 610.7 55.8C602 55.8 595 62.9 595 71.5C595 78.8 589.1 84.6 581.9 84.6Z" fill="#7176F2"/>
<defs>
<linearGradient id="paint0_linear" x1="0.901475" y1="539.91" x2="1340.86" y2="539.91" gradientUnits="userSpaceOnUse">
<stop stop-color="#E8E9FD" stop-opacity="0.8"/>
<stop offset="1" stop-color="#B9BBF9"/>
</linearGradient>
</defs>
</svg>
