<svg width="297" height="127" viewBox="0 0 297 127" fill="none" xmlns="http://www.w3.org/2000/svg">
<path d="M4.16 34.2859C4.16 33.3899 4.032 32.7072 3.776 32.2379C3.56267 31.7259 3.264 31.2992 2.88 30.9579C2.70933 30.7872 2.56 30.6166 2.432 30.4459C2.304 30.2326 2.24 30.0192 2.24 29.8059C2.24 29.6779 2.28267 29.4859 2.368 29.2299C2.70933 28.2486 3.264 27.3312 4.032 26.4779C4.84267 25.6246 5.67467 25.1979 6.528 25.1979C7.46667 25.1979 8.27733 25.5819 8.96 26.3499H32.576V33.7739H12.736V44.1419H27.2V51.1819H12.736V63.7259H33.152V71.1499H4.16V34.2859ZM61.103 71.7899C60.1217 71.7899 59.2683 71.5766 58.543 71.1499C57.8603 70.7232 57.391 70.1259 57.135 69.3579L48.815 43.2459L46.255 71.2139H37.615L42.031 30.8299L41.775 30.3179C41.519 29.8486 41.391 29.3366 41.391 28.7819C41.391 27.8006 41.7537 26.9686 42.479 26.2859C43.247 25.5606 44.335 25.1979 45.743 25.1979C47.4923 25.1979 48.751 25.5179 49.519 26.1579C50.3297 26.7552 50.9483 27.7792 51.375 29.2299L60.911 58.9899L70.511 29.2299C70.9803 27.7792 71.599 26.7552 72.367 26.1579C73.1777 25.5179 74.4363 25.1979 76.143 25.1979C77.551 25.1979 78.6177 25.5606 79.343 26.2859C80.111 26.9686 80.495 27.8006 80.495 28.7819C80.495 29.3366 80.367 29.8486 80.111 30.3179L79.855 30.7659L84.271 71.2139H75.631L73.071 43.1819L65.519 66.9259L65.711 67.5659C65.839 67.9499 65.903 68.2912 65.903 68.5899C65.903 69.6139 65.4337 70.4032 64.495 70.9579C63.599 71.5126 62.4683 71.7899 61.103 71.7899ZM107.16 34.2859C107.16 33.3899 107.032 32.7072 106.776 32.2379C106.563 31.7259 106.264 31.2992 105.88 30.9579C105.709 30.7872 105.56 30.6166 105.432 30.4459C105.304 30.2326 105.24 30.0192 105.24 29.8059C105.24 29.6779 105.283 29.4859 105.368 29.2299C105.709 28.2486 106.264 27.3312 107.032 26.4779C107.843 25.6246 108.675 25.1979 109.528 25.1979C110.467 25.1979 111.277 25.5819 111.96 26.3499H124.824C129.219 26.3499 132.717 27.4379 135.32 29.6139C137.965 31.7899 139.288 34.7766 139.288 38.5739C139.288 40.7926 138.84 42.6059 137.944 44.0139C137.048 45.4219 135.619 46.6379 133.656 47.6619V47.9179C135.96 48.9846 137.688 50.2859 138.84 51.8219C139.992 53.3579 140.568 55.2566 140.568 57.5179C140.568 61.8272 139.181 65.1766 136.408 67.5659C133.635 69.9552 129.837 71.1499 125.016 71.1499H107.16V34.2859ZM124.376 44.4619C126.339 44.4619 127.853 43.9499 128.92 42.9259C130.029 41.8592 130.584 40.4086 130.584 38.5739C130.584 36.8672 130.029 35.5446 128.92 34.6059C127.853 33.6246 126.339 33.1339 124.376 33.1339H115.608V44.4619H124.376ZM124.696 64.3659C127.043 64.3659 128.813 63.7899 130.008 62.6379C131.245 61.4432 131.864 59.7366 131.864 57.5179C131.864 55.5126 131.245 53.9766 130.008 52.9099C128.813 51.8006 127.043 51.2459 124.696 51.2459H115.608V64.3659H124.696ZM146.717 33.1339C146.717 32.5792 146.631 32.1739 146.461 31.9179C146.333 31.6619 146.098 31.3632 145.757 31.0219C145.287 30.6379 145.053 30.1686 145.053 29.6139C145.053 29.3152 145.074 29.0806 145.117 28.9099C145.33 27.8432 145.821 26.9686 146.589 26.2859C147.399 25.5606 148.338 25.1979 149.405 25.1979C150.599 25.1979 151.645 25.5819 152.541 26.3499H161.245C167.303 26.3499 171.911 27.5446 175.069 29.9339C178.226 32.3232 179.805 35.8646 179.805 40.5579C179.805 44.3979 178.759 47.4699 176.669 49.7739C174.578 52.0352 171.527 53.4646 167.517 54.0619L178.781 71.1499H169.053L158.237 54.7659H155.293V71.1499H146.717V33.1339ZM161.437 47.4059C164.679 47.4059 167.09 46.8939 168.669 45.8699C170.29 44.8459 171.101 43.0752 171.101 40.5579C171.101 38.0406 170.29 36.2912 168.669 35.3099C167.09 34.2859 164.679 33.7739 161.437 33.7739H155.293V47.4059H161.437ZM186.223 34.2859C186.223 33.3899 186.095 32.7072 185.839 32.2379C185.625 31.7259 185.327 31.2992 184.943 30.9579C184.772 30.7872 184.623 30.6166 184.495 30.4459C184.367 30.2326 184.303 30.0192 184.303 29.8059C184.303 29.6779 184.345 29.4859 184.431 29.2299C184.772 28.2486 185.327 27.3312 186.095 26.4779C186.905 25.6246 187.737 25.1979 188.591 25.1979C189.529 25.1979 190.34 25.5819 191.023 26.3499H214.639V33.7739H194.799V44.1419H209.263V51.1819H194.799V63.7259H215.215V71.1499H186.223V34.2859ZM236.766 71.2779C235.187 70.5952 234.398 69.6779 234.398 68.5259C234.398 67.9712 234.568 67.3952 234.91 66.7979L219.678 26.3499H228.51L239.582 57.6459L250.59 26.3499H259.358L243.678 68.5899C243.294 69.6566 242.696 70.4672 241.886 71.0219C241.075 71.5339 240.158 71.7899 239.134 71.7899C238.366 71.7899 237.576 71.6192 236.766 71.2779ZM265.785 34.2859C265.785 33.3899 265.657 32.7072 265.401 32.2379C265.188 31.7259 264.889 31.2992 264.505 30.9579C264.334 30.7872 264.185 30.6166 264.057 30.4459C263.929 30.2326 263.865 30.0192 263.865 29.8059C263.865 29.6779 263.908 29.4859 263.993 29.2299C264.334 28.2486 264.889 27.3312 265.657 26.4779C266.468 25.6246 267.3 25.1979 268.153 25.1979C269.092 25.1979 269.902 25.5819 270.585 26.3499H294.201V33.7739H274.361V44.1419H288.825V51.1819H274.361V63.7259H294.777V71.1499H265.785V34.2859Z" fill="url(#paint0_linear)"/>
<path d="M65.384 119.47C64.872 119.47 64.5307 119.246 64.36 118.798L58.536 101.07L56.872 119.182H54.6L56.776 98.0619L56.52 97.7099C56.456 97.6032 56.424 97.4646 56.424 97.2939C56.424 97.0166 56.5307 96.7606 56.744 96.5259C56.9573 96.2912 57.2773 96.1739 57.704 96.1739C58.1947 96.1739 58.568 96.3019 58.824 96.5579C59.08 96.7926 59.2827 97.1552 59.432 97.6459L65.288 115.502L71.144 97.6459C71.3147 97.1552 71.528 96.7926 71.784 96.5579C72.0613 96.3019 72.4347 96.1739 72.904 96.1739C73.3093 96.1739 73.6187 96.2912 73.832 96.5259C74.0453 96.7392 74.152 96.9952 74.152 97.2939C74.152 97.4432 74.12 97.5819 74.056 97.7099L73.832 98.0619L75.976 119.182H73.704L72.04 101.07L66.536 117.806L66.632 118.126C66.6747 118.297 66.696 118.403 66.696 118.446C66.696 118.745 66.568 118.99 66.312 119.182C66.056 119.374 65.7467 119.47 65.384 119.47ZM85.9145 119.47C84.4852 119.47 83.2585 119.118 82.2345 118.414C81.2318 117.689 80.4638 116.718 79.9305 115.502C79.4185 114.286 79.1625 112.942 79.1625 111.47C79.1625 109.955 79.4185 108.579 79.9305 107.342C80.4638 106.105 81.2425 105.123 82.2665 104.398C83.2905 103.673 84.5385 103.31 86.0105 103.31C88.2505 103.31 89.9465 104.227 91.0985 106.062V103.63H93.2425V115.246C93.2425 116.782 93.4878 117.934 93.9785 118.702L92.1545 119.47C91.6852 118.83 91.4078 117.902 91.3225 116.686L91.2265 116.654C89.9038 118.531 88.1332 119.47 85.9145 119.47ZM86.1065 117.582C87.6852 117.582 88.9118 117.07 89.7865 116.046C90.6825 115.022 91.1305 113.742 91.1305 112.206V110.606C91.1305 109.753 90.9385 108.91 90.5545 108.078C90.1918 107.225 89.6265 106.531 88.8585 105.998C88.1118 105.443 87.2052 105.166 86.1385 105.166C84.6238 105.166 83.4505 105.753 82.6185 106.926C81.8078 108.099 81.4025 109.614 81.4025 111.47C81.4025 113.283 81.7972 114.755 82.5865 115.886C83.3972 117.017 84.5705 117.582 86.1065 117.582ZM99.5298 99.7259C99.0604 99.7259 98.6551 99.5659 98.3138 99.2459C97.9938 98.9046 97.8338 98.5099 97.8338 98.0619C97.8338 97.6139 97.9938 97.2299 98.3138 96.9099C98.6551 96.5899 99.0604 96.4299 99.5298 96.4299C99.9778 96.4299 100.362 96.5899 100.682 96.9099C101.023 97.2299 101.194 97.6139 101.194 98.0619C101.194 98.5099 101.023 98.9046 100.682 99.2459C100.362 99.5659 99.9778 99.7259 99.5298 99.7259ZM98.4098 103.63H100.586V119.15H98.4098V103.63ZM111.566 119.47C110.158 119.47 108.899 119.267 107.79 118.862C106.702 118.435 105.784 117.849 105.038 117.102L106.414 115.598C107.011 116.238 107.779 116.739 108.718 117.102C109.656 117.443 110.616 117.614 111.598 117.614C113.902 117.614 115.054 116.899 115.054 115.47C115.054 114.958 114.947 114.553 114.734 114.254C114.542 113.934 114.158 113.635 113.582 113.358C113.006 113.059 112.12 112.697 110.926 112.27C108.984 111.587 107.598 110.905 106.766 110.222C105.955 109.539 105.549 108.59 105.549 107.374C105.549 106.137 106.03 105.155 106.99 104.43C107.95 103.683 109.326 103.31 111.118 103.31C112.163 103.31 113.123 103.459 113.998 103.758C114.872 104.057 115.619 104.43 116.238 104.878L115.342 106.51C114.68 106.041 114.008 105.699 113.326 105.486C112.643 105.251 111.896 105.134 111.086 105.134C109.998 105.134 109.166 105.337 108.59 105.742C108.035 106.147 107.758 106.691 107.758 107.374C107.758 107.865 107.886 108.281 108.141 108.622C108.398 108.942 108.75 109.209 109.198 109.422C109.646 109.635 110.328 109.923 111.246 110.286C111.352 110.35 111.459 110.403 111.566 110.446C111.694 110.467 111.8 110.499 111.885 110.542C113.294 111.075 114.36 111.545 115.086 111.95C115.811 112.355 116.344 112.835 116.686 113.39C117.048 113.923 117.23 114.617 117.23 115.47C117.23 116.729 116.728 117.71 115.726 118.414C114.744 119.118 113.358 119.47 111.566 119.47ZM129.462 107.566C129.462 106.627 129.398 105.913 129.27 105.422C129.163 104.931 128.971 104.483 128.694 104.078L130.646 103.31C130.88 103.566 131.083 103.95 131.254 104.462C131.446 104.974 131.542 105.539 131.542 106.158C132.16 105.283 132.907 104.59 133.782 104.078C134.678 103.566 135.702 103.31 136.854 103.31C139.03 103.31 140.704 104.057 141.878 105.55C143.051 107.043 143.638 108.974 143.638 111.342C143.638 113.774 143.051 115.737 141.878 117.23C140.704 118.723 138.976 119.47 136.694 119.47C135.606 119.47 134.624 119.225 133.75 118.734C132.896 118.243 132.192 117.571 131.638 116.718V126.19H129.462V107.566ZM136.566 117.582C138.272 117.582 139.51 117.006 140.278 115.854C141.046 114.681 141.43 113.177 141.43 111.342C141.43 109.593 141.035 108.131 140.246 106.958C139.456 105.763 138.272 105.166 136.694 105.166C135.67 105.166 134.774 105.422 134.006 105.934C133.238 106.446 132.64 107.118 132.214 107.95C131.808 108.761 131.606 109.635 131.606 110.574V112.174C131.606 113.07 131.798 113.934 132.182 114.766C132.587 115.598 133.163 116.281 133.91 116.814C134.678 117.326 135.563 117.582 136.566 117.582ZM147.554 107.374C147.554 105.923 147.319 104.825 146.85 104.078L148.802 103.31C148.973 103.609 149.133 104.014 149.282 104.526C149.431 105.017 149.538 105.561 149.602 106.158C150.114 105.219 150.711 104.515 151.394 104.046C152.098 103.555 152.951 103.31 153.954 103.31C154.423 103.31 154.839 103.363 155.202 103.47C155.586 103.555 156.002 103.726 156.45 103.982L155.554 105.614C155.042 105.337 154.445 105.198 153.762 105.198C152.503 105.198 151.511 105.71 150.786 106.734C150.082 107.758 149.73 109.017 149.73 110.51V119.15H147.554V107.374ZM164.861 119.47C163.304 119.47 161.981 119.107 160.893 118.382C159.826 117.657 159.026 116.686 158.493 115.47C157.981 114.233 157.725 112.867 157.725 111.374C157.725 109.881 157.981 108.526 158.493 107.31C159.026 106.094 159.826 105.123 160.893 104.398C161.981 103.673 163.304 103.31 164.861 103.31C166.418 103.31 167.73 103.673 168.797 104.398C169.864 105.123 170.653 106.094 171.165 107.31C171.698 108.526 171.965 109.881 171.965 111.374C171.965 112.867 171.698 114.233 171.165 115.47C170.653 116.686 169.864 117.657 168.797 118.382C167.73 119.107 166.418 119.47 164.861 119.47ZM164.861 117.55C166.44 117.55 167.645 116.985 168.477 115.854C169.309 114.723 169.725 113.23 169.725 111.374C169.725 109.518 169.309 108.025 168.477 106.894C167.645 105.763 166.44 105.198 164.861 105.198C163.282 105.198 162.066 105.763 161.213 106.894C160.381 108.025 159.965 109.518 159.965 111.374C159.965 113.23 160.381 114.723 161.213 115.854C162.066 116.985 163.282 117.55 164.861 117.55ZM178.907 99.7259C178.437 99.7259 178.043 99.5659 177.723 99.2459C177.403 98.9046 177.243 98.5099 177.243 98.0619C177.243 97.6139 177.403 97.2299 177.723 96.9099C178.043 96.5899 178.437 96.4299 178.907 96.4299C179.376 96.4299 179.771 96.5899 180.091 96.9099C180.432 97.2299 180.603 97.6139 180.603 98.0619C180.603 98.5099 180.432 98.9046 180.091 99.2459C179.771 99.5659 179.376 99.7259 178.907 99.7259ZM174.907 126.126C174.16 126.126 173.424 126.009 172.699 125.774C171.995 125.561 171.376 125.273 170.843 124.91L171.739 123.31C172.699 123.971 173.733 124.302 174.843 124.302C175.909 124.302 176.667 124.003 177.115 123.406C177.563 122.809 177.786 121.785 177.786 120.334V103.63H179.963V120.27C179.963 122.275 179.536 123.747 178.683 124.686C177.851 125.646 176.592 126.126 174.907 126.126ZM191.868 119.47C190.332 119.47 188.998 119.139 187.868 118.478C186.758 117.795 185.905 116.857 185.308 115.662C184.732 114.446 184.444 113.059 184.444 111.502C184.444 109.177 185.009 107.235 186.14 105.678C187.27 104.099 189.052 103.31 191.484 103.31C193.212 103.31 194.598 103.726 195.644 104.558C196.71 105.369 197.457 106.361 197.884 107.534C198.332 108.686 198.556 109.827 198.556 110.958C198.556 111.897 198.033 112.366 196.988 112.366H186.684C186.684 113.945 187.132 115.214 188.028 116.174C188.945 117.113 190.225 117.582 191.868 117.582C192.742 117.582 193.574 117.443 194.364 117.166C195.153 116.889 195.836 116.494 196.412 115.982L197.564 117.358C196.881 118.019 196.038 118.542 195.036 118.926C194.054 119.289 192.998 119.47 191.868 119.47ZM196.38 110.51C196.38 109.017 195.953 107.758 195.1 106.734C194.268 105.689 193.062 105.166 191.484 105.166C190.396 105.166 189.489 105.443 188.764 105.998C188.038 106.531 187.505 107.203 187.164 108.014C186.844 108.825 186.684 109.657 186.684 110.51H196.38ZM207.024 119.47C204.549 119.47 203.312 118.115 203.312 115.406V105.486H200.624L201.104 103.63H203.344V99.4699L205.424 98.5099V103.63H209.36L208.912 105.486H205.488V115.406C205.488 116.238 205.616 116.825 205.872 117.166C206.128 117.486 206.608 117.646 207.312 117.646C208.037 117.646 208.677 117.507 209.232 117.23L209.776 118.894C209.477 119.043 209.061 119.171 208.528 119.278C207.994 119.406 207.493 119.47 207.024 119.47ZM218.986 119.47C217.429 119.47 216.106 119.107 215.018 118.382C213.951 117.657 213.151 116.686 212.618 115.47C212.106 114.233 211.85 112.867 211.85 111.374C211.85 109.881 212.106 108.526 212.618 107.31C213.151 106.094 213.951 105.123 215.018 104.398C216.106 103.673 217.429 103.31 218.986 103.31C220.543 103.31 221.855 103.673 222.922 104.398C223.989 105.123 224.778 106.094 225.29 107.31C225.823 108.526 226.09 109.881 226.09 111.374C226.09 112.867 225.823 114.233 225.29 115.47C224.778 116.686 223.989 117.657 222.922 118.382C221.855 119.107 220.543 119.47 218.986 119.47ZM218.986 117.55C220.565 117.55 221.77 116.985 222.602 115.854C223.434 114.723 223.85 113.23 223.85 111.374C223.85 109.518 223.434 108.025 222.602 106.894C221.77 105.763 220.565 105.198 218.986 105.198C217.407 105.198 216.191 105.763 215.338 106.894C214.506 108.025 214.09 109.518 214.09 111.374C214.09 113.23 214.506 114.723 215.338 115.854C216.191 116.985 217.407 117.55 218.986 117.55ZM235.816 119.47C234.408 119.47 233.149 119.267 232.04 118.862C230.952 118.435 230.034 117.849 229.288 117.102L230.664 115.598C231.261 116.238 232.029 116.739 232.968 117.102C233.906 117.443 234.866 117.614 235.848 117.614C238.152 117.614 239.304 116.899 239.304 115.47C239.304 114.958 239.197 114.553 238.984 114.254C238.792 113.934 238.408 113.635 237.832 113.358C237.256 113.059 236.37 112.697 235.176 112.27C233.234 111.587 231.848 110.905 231.016 110.222C230.205 109.539 229.799 108.59 229.799 107.374C229.799 106.137 230.28 105.155 231.24 104.43C232.2 103.683 233.576 103.31 235.368 103.31C236.413 103.31 237.373 103.459 238.248 103.758C239.122 104.057 239.869 104.43 240.488 104.878L239.592 106.51C238.93 106.041 238.258 105.699 237.576 105.486C236.893 105.251 236.146 105.134 235.336 105.134C234.248 105.134 233.416 105.337 232.84 105.742C232.285 106.147 232.008 106.691 232.008 107.374C232.008 107.865 232.136 108.281 232.391 108.622C232.648 108.942 233 109.209 233.448 109.422C233.896 109.635 234.578 109.923 235.496 110.286C235.602 110.35 235.709 110.403 235.816 110.446C235.944 110.467 236.05 110.499 236.135 110.542C237.544 111.075 238.61 111.545 239.336 111.95C240.061 112.355 240.594 112.835 240.936 113.39C241.298 113.923 241.48 114.617 241.48 115.47C241.48 116.729 240.978 117.71 239.976 118.414C238.994 119.118 237.608 119.47 235.816 119.47Z" fill="#7176F2"/>
<defs>
<linearGradient id="paint0_linear" x1="148.5" y1="0.149902" x2="148.5" y2="83.1499" gradientUnits="userSpaceOnUse">
<stop stop-color="#2B32ED"/>
<stop offset="1" stop-color="#7176F2"/>
</linearGradient>
</defs>
</svg>
