<svg width="1584" height="1076" viewBox="0 0 1584 1076" fill="none" xmlns="http://www.w3.org/2000/svg">
<path d="M1494.2 278C1386.2 166.9 1217.6 151.5 1092.8 232C1057.3 254.9 1014.3 262.6 973.1 253.4C875.5 231.7 773.4 246.5 686.5 293.7C628 325.4 556.9 319.9 502.3 281.9C466.1 256.6 424 238.5 377.8 230C206.4 198.4 39.8001 312.1 6.80007 483.2C-26.8999 658.2 89.1001 826.4 264 857.6C306.7 865.2 349 863.9 388.9 855.1C453.6 840.7 521.3 864.8 563 916.2C589.4 948.7 621.2 977.7 658.1 1001.8C849 1126.3 1104.6 1072.6 1229.1 881.7C1229.2 881.5 1229.4 881.3 1229.5 881.1C1252.3 846 1287.8 821 1328.8 812.7C1388.6 800.6 1445.7 771.3 1491.9 724.6C1613.7 601.8 1614.7 402 1494.2 278Z" fill="url(#paint0_linear)"/>
<path opacity="0.1" d="M1302.5 515.7V518.9H1305.7H1457.2C1472.5 518.9 1485 531.3 1485 546.7V764.3H100V453.8C100 438.5 112.4 426 127.8 426H368.3H371.5V422.8V177.8C371.5 153.9 390.9 134.6 414.7 134.6H1259.2C1283.1 134.6 1302.4 154 1302.4 177.8V515.7H1302.5Z" fill="#4249EE" stroke="#4249EE"/>
<path d="M976.2 1063H697.8L734.3 918.6L753.5 842.4H920.5L939.7 918.6L976.2 1063Z" fill="white"/>
<path d="M1259.3 884.6H414.7C389.1 884.6 368.3 863.8 368.3 838.2V233.6C368.3 208 389.1 187.2 414.7 187.2H1259.2C1284.8 187.2 1305.6 208 1305.6 233.6V838.3C1305.6 863.9 1284.9 884.6 1259.3 884.6Z" fill="white"/>
<path d="M1066.6 669.2H1015.5C1008.7 669.2 1003.2 663.7 1003.2 656.9C1003.2 650.1 1008.7 644.6 1015.5 644.6H1066.6C1073.4 644.6 1078.9 650.1 1078.9 656.9C1078.9 663.7 1073.3 669.2 1066.6 669.2Z" fill="#4249EE" stroke="#4249EE"/>
<path d="M902.7 669.2H573.4C566.6 669.2 561.1 663.7 561.1 656.9C561.1 650.1 566.6 644.6 573.4 644.6H902.7C909.5 644.6 915 650.1 915 656.9C915 663.7 909.5 669.2 902.7 669.2Z" fill="#4249EE" stroke="#4249EE"/>
<path d="M902.7 607.3H573.4C566.6 607.3 561.1 601.8 561.1 595C561.1 588.2 566.6 582.7 573.4 582.7H902.7C909.5 582.7 915 588.2 915 595C915 601.8 909.5 607.3 902.7 607.3Z" fill="#4249EE" stroke="#4249EE"/>
<path d="M1178.6 538.2H495.4C490.3 538.2 486.1 534 486.1 528.9V305.4H1187.9V528.9C1187.9 534 1183.7 538.2 1178.6 538.2Z" fill="#7176F2"/>
<path d="M1305.6 305.4V233.6C1305.6 208 1284.8 187.2 1259.2 187.2H414.7C389.1 187.2 368.3 208 368.3 233.6V305.4H1305.6Z" fill="white"/>
<path d="M368.3 761V838.3C368.3 863.9 389.1 884.7 414.7 884.7H1259.2C1284.8 884.7 1305.6 863.9 1305.6 838.3V761H368.3Z" fill="white"/>
<path d="M1457.2 1063H1228.4C1211.3 1063 1197.5 1049.2 1197.5 1032.1V602.3C1197.5 585.2 1211.3 571.4 1228.4 571.4H1457.2C1474.3 571.4 1488.1 585.2 1488.1 602.3V1032.1C1488.1 1049.2 1474.3 1063 1457.2 1063Z" fill="#7176F2"/>
<path d="M1197.4 871.4V1032.1C1197.4 1049.2 1211.2 1063 1228.3 1063H1457.1C1474.2 1063 1488 1049.2 1488 1032.1V871.4H1197.4Z" fill="white"/>
<path d="M1401.6 615.3L1415.9 571.3H1269.5L1283.8 615.3C1285.9 621.7 1291.8 626 1298.5 626H1386.8C1393.6 626 1399.5 621.7 1401.6 615.3Z" fill="white"/>
<path d="M542.2 1063H127.8C110.7 1063 96.8999 1049.2 96.8999 1032.1V509.5C96.8999 492.4 110.7 478.6 127.8 478.6H542.2C559.3 478.6 573.1 492.4 573.1 509.5V1032.1C573.1 1049.2 559.3 1063 542.2 1063Z" fill="white"/>
<path d="M573.1 579.6V509.5C573.1 492.4 559.3 478.6 542.2 478.6H127.8C110.7 478.6 96.8999 492.4 96.8999 509.5V579.6H573.1Z" fill="white"/>
<path d="M449.5 246.1C449.5 239.3 455 233.8 461.8 233.8C468.6 233.8 474.1 239.3 474.1 246.1V246.5C474.1 253.3 468.6 258.8 461.8 258.8C455 258.8 449.5 253.3 449.5 246.5V246.1Z" fill="#4249EE" stroke="#4249EE"/>
<path d="M496.9 246.1C496.9 239.3 502.4 233.8 509.2 233.8C516 233.8 521.5 239.3 521.5 246.1V246.5C521.5 253.3 516 258.8 509.2 258.8C502.4 258.8 496.9 253.3 496.9 246.5V246.1Z" fill="#4249EE" stroke="#4249EE"/>
<path d="M544.3 246.1C544.3 239.3 549.8 233.8 556.6 233.8C563.4 233.8 568.9 239.3 568.9 246.1V246.5C568.9 253.3 563.4 258.8 556.6 258.8C549.8 258.8 544.3 253.3 544.3 246.5V246.1Z" fill="#4249EE" stroke="#4249EE"/>
<path d="M1317.9 555.9V559.1H1321.1H1457.2C1481 559.1 1500.4 578.5 1500.4 602.3V1032.1C1500.4 1055.9 1481 1075.3 1457.2 1075.3H1228.4C1204.6 1075.3 1185.2 1055.9 1185.2 1032.1V900.1V896.9H1182H951H947L948 900.8L985.2 1048.3L985.8 1050.7H988.3H1023.4C1030.2 1050.7 1035.7 1056.2 1035.7 1063C1035.7 1069.8 1030.2 1075.3 1023.4 1075.3H650.7C643.9 1075.3 638.4 1069.8 638.4 1063C638.4 1056.2 643.9 1050.7 650.7 1050.7H685.8H688.3L688.9 1048.3L726.1 900.8L727.1 896.9H723.1H588.6H585.4V900.1V1032.1C585.4 1055.9 566 1075.3 542.2 1075.3H127.8C104 1075.3 84.6001 1055.9 84.6001 1032.1V509.5C84.6001 485.7 104 466.3 127.8 466.3H542.2C566 466.3 585.4 485.7 585.4 509.5V745.6V748.8H588.6H1197.4C1204.2 748.8 1209.7 754.3 1209.7 761.1V1032.2C1209.7 1042.5 1218 1050.8 1228.3 1050.8H1457.1C1467.4 1050.8 1475.7 1042.5 1475.7 1032.2V602.3C1475.7 592 1467.4 583.7 1457.1 583.7H1427.1H1424.8L1424.1 585.9L1413.3 619.2C1409.6 630.7 1399 638.4 1386.9 638.4H1298.6C1286.5 638.4 1275.9 630.7 1272.2 619.2L1261.4 585.9L1260.7 583.7H1258.4H1228.4C1218.1 583.7 1209.8 592 1209.8 602.3V675.9C1209.8 682.7 1204.3 688.2 1197.5 688.2C1190.7 688.2 1185.2 682.7 1185.2 675.9V602.3C1185.2 578.5 1204.6 559.1 1228.4 559.1H1290.2H1293.4V555.9V320.9V317.7H1290.2H383.8H380.6V320.9V393.5C380.6 400.3 375.1 405.8 368.3 405.8C361.5 405.8 356 400.3 356 393.5V233.6C356 201.2 382.3 174.9 414.7 174.9H1259.2C1291.6 174.9 1317.9 201.2 1317.9 233.6V555.9ZM380.6 289.9V293.1H383.8H1290.2H1293.4V289.9V233.5C1293.4 214.7 1278.1 199.4 1259.3 199.4H414.7C395.9 199.4 380.6 214.7 380.6 233.5V289.9ZM1386.9 613.7H1389.2L1389.9 611.5L1397.6 587.8L1398.9 583.7H1394.6H1290.8H1286.5L1287.8 587.8L1295.5 611.5L1296.2 613.7H1298.5H1386.9ZM557.6 567.3H560.8V564.1V509.5C560.8 499.2 552.5 490.9 542.2 490.9H127.8C117.5 490.9 109.2 499.2 109.2 509.5V564.1V567.3H112.4H557.6ZM112.3 591.9H109.1V595.1V1032.2C109.1 1042.5 117.4 1050.8 127.7 1050.8H542.1C552.4 1050.8 560.7 1042.5 560.7 1032.2V595V591.8H557.5H112.3V591.9ZM956.3 1050.7H960.3L959.3 1046.8L922.1 899.3L921.5 896.9H919H754.9H752.4L751.8 899.3L714.6 1046.8L713.6 1050.7H717.6H956.3ZM585.4 869.2V872.4H588.6H1182H1185.2V869.2V776.5V773.3H1182H588.6H585.4V776.5V869.2Z" fill="#4249EE" stroke="#4249EE"/>
<path d="M190.1 529.2C190.1 536 184.6 541.5 177.8 541.5C171 541.5 165.5 536 165.5 529.2V528.8C165.5 522 171 516.5 177.8 516.5C184.6 516.5 190.1 522 190.1 528.8V529.2Z" fill="#4249EE" stroke="#4249EE"/>
<path d="M237.5 529.2C237.5 536 232 541.5 225.2 541.5C218.4 541.5 212.9 536 212.9 529.2V528.8C212.9 522 218.4 516.5 225.2 516.5C232 516.5 237.5 522 237.5 528.8V529.2Z" fill="#4249EE" stroke="#4249EE"/>
<path d="M284.9 529.2C284.9 536 279.4 541.5 272.6 541.5C265.8 541.5 260.3 536 260.3 529.2V528.8C260.3 522 265.8 516.5 272.6 516.5C279.4 516.5 284.9 522 284.9 528.8V529.2Z" fill="#4249EE" stroke="#4249EE"/>
<path d="M839.2 404.1L837 401.9L834.8 404.1L827.7 411.2L829.9 413.4L827.7 411.2C822.9 416 815.1 416 810.3 411.2C805.5 406.4 805.5 398.6 810.3 393.8L828.3 375.8C833.1 371 840.9 371 845.7 375.8L863.7 393.8C868.5 398.6 868.5 406.4 863.7 411.2C861.3 413.6 858.1 414.8 855 414.8C851.8 414.8 848.7 413.6 846.3 411.2L839.2 404.1Z" fill="#4249EE" stroke="#4249EE"/>
<path d="M1311.9 990.9H1268.6C1263.5 990.9 1259.3 986.7 1259.3 981.6V716.3C1259.3 711.2 1263.5 707 1268.6 707H1311.9C1317 707 1321.2 711.2 1321.2 716.3V981.7C1321.1 986.8 1317 990.9 1311.9 990.9Z" fill="white"/>
<path d="M1124.3 464.4C1132.1 464.4 1138.4 470.7 1138.4 478.5C1138.4 486.3 1132.1 492.6 1124.3 492.6C1116.5 492.6 1110.2 486.3 1110.2 478.5C1110.2 470.7 1116.5 464.4 1124.3 464.4Z" fill="#4249EE" stroke="#4249EE"/>
<path d="M1124.3 412.1C1132.1 412.1 1138.4 418.4 1138.4 426.2C1138.4 434 1132.1 440.3 1124.3 440.3C1116.5 440.3 1110.2 434 1110.2 426.2C1110.2 418.4 1116.5 412.1 1124.3 412.1Z" fill="#4249EE" stroke="#4249EE"/>
<path d="M1124.3 359.8C1132.1 359.8 1138.4 366.1 1138.4 373.9C1138.4 381.7 1132.1 388 1124.3 388C1116.5 388 1110.2 381.7 1110.2 373.9C1110.2 366.1 1116.5 359.8 1124.3 359.8Z" fill="#4249EE" stroke="#4249EE"/>
<path d="M491.1 1000.7H336.5C331.4 1000.7 327.2 996.5 327.2 991.4V816.6C327.2 811.5 331.4 807.3 336.5 807.3H491.1C496.2 807.3 500.4 811.5 500.4 816.6V991.4C500.4 996.6 496.2 1000.7 491.1 1000.7Z" fill="#7176F2"/>
<path d="M491.1 764.2H336.5C331.4 764.2 327.2 760 327.2 754.9V659.1C327.2 654 331.4 649.8 336.5 649.8H491.1C496.2 649.8 500.4 653.9 500.4 659.1V755C500.4 760.1 496.2 764.2 491.1 764.2Z" fill="#7176F2"/>
<path d="M274.7 1000.7H178.9C173.8 1000.7 169.6 996.6 169.6 991.4V659.1C169.6 654 173.8 649.8 178.9 649.8H274.7C279.8 649.8 284 653.9 284 659.1V991.5C284 996.6 279.8 1000.7 274.7 1000.7Z" fill="#7176F2"/>
<path d="M1311.9 990.9H1268.6C1263.5 990.9 1259.3 986.7 1259.3 981.6V716.3C1259.3 711.2 1263.5 707 1268.6 707H1311.9C1317 707 1321.2 711.2 1321.2 716.3V981.7C1321.1 986.8 1317 990.9 1311.9 990.9Z" fill="#4249EE" stroke="#4249EE" stroke-width="10" stroke-miterlimit="10"/>
<path d="M1231.2 99.9C1222.7 99.9 1215.7 93 1215.7 84.4C1215.7 74.2 1207.4 65.9 1197.1 65.9C1188.6 65.9 1181.6 59 1181.6 50.4C1181.6 41.9 1188.5 34.9 1197.1 34.9C1207.3 34.9 1215.7 26.6 1215.7 16.4C1215.7 7.90002 1222.6 0.900024 1231.2 0.900024C1239.7 0.900024 1246.7 7.80002 1246.7 16.4C1246.7 26.6 1255 34.9 1265.3 34.9C1273.8 34.9 1280.8 41.8 1280.8 50.4C1280.8 58.9 1273.9 65.9 1265.3 65.9C1255.1 65.9 1246.7 74.2 1246.7 84.4C1246.6 93 1239.7 99.9 1231.2 99.9Z" fill="#7176F2"/>
<path d="M1415.9 500.6C1407.4 500.6 1400.4 493.7 1400.4 485.1C1400.4 474.9 1392.1 466.6 1381.8 466.6C1373.3 466.6 1366.3 459.7 1366.3 451.1C1366.3 442.6 1373.2 435.6 1381.8 435.6C1392 435.6 1400.4 427.3 1400.4 417.1C1400.4 408.6 1407.3 401.6 1415.9 401.6C1424.5 401.6 1431.4 408.5 1431.4 417.1C1431.4 427.3 1439.7 435.6 1449.9 435.6C1458.4 435.6 1465.4 442.5 1465.4 451.1C1465.4 459.6 1458.5 466.6 1449.9 466.6C1439.7 466.6 1431.4 474.9 1431.4 485.1C1431.4 493.7 1424.5 500.6 1415.9 500.6Z" fill="#7176F2"/>
<path d="M1372.6 168.5C1368.6 168.5 1364.7 167 1361.7 164L1327.7 130C1321.7 124 1321.7 114.2 1327.7 108.1L1361.7 74.1C1367.7 68.1 1377.5 68.1 1383.6 74.1L1417.6 108.1C1423.6 114.1 1423.6 123.9 1417.6 130L1383.6 164C1380.6 166.9 1376.6 168.5 1372.6 168.5ZM1360.5 119L1372.6 131.1L1384.7 119L1372.6 106.9L1360.5 119Z" fill="#7176F2"/>
<path d="M226.8 392.4C222.8 392.4 218.9 390.9 215.9 387.9L181.9 353.9C175.9 347.9 175.9 338.1 181.9 332L215.9 298C221.9 292 231.7 292 237.8 298L271.8 332C277.8 338 277.8 347.8 271.8 353.9L237.8 387.9C234.7 390.9 230.7 392.4 226.8 392.4ZM214.6 342.9L226.7 355L238.8 342.9L226.7 330.8L214.6 342.9Z" fill="#7176F2"/>
<defs>
<linearGradient id="paint0_linear" x1="-95.4508" y1="578.763" x2="1626.45" y2="647.03" gradientUnits="userSpaceOnUse">
<stop stop-color="#D0D1FB" stop-opacity="0.8"/>
<stop offset="1" stop-color="#B9BBF9"/>
</linearGradient>
</defs>
</svg>
