<svg width="42" height="42" viewBox="0 0 42 42" fill="none" xmlns="http://www.w3.org/2000/svg">
<circle cx="21" cy="21" r="21" fill="white"/>
<path d="M27.7132 21.0531C27.7132 24.7314 24.7314 27.7132 21.0528 27.7132C17.3745 27.7132 14.3927 24.7314 14.3927 21.0531C14.3927 17.3745 17.3745 14.3927 21.0528 14.3927C24.7314 14.3927 27.7132 17.3745 27.7132 21.0531Z" fill="#F6CB43"/>
<g filter="url(#filter0_d)">
<circle cx="20.5984" cy="20.5984" r="6.66094" fill="#F6CB43"/>
</g>
<path d="M27.2686 23.4491C26.307 25.9431 23.8867 27.7128 21.0532 27.7128C18.2197 27.7128 15.7995 25.9431 14.8372 23.4491C15.7995 20.9551 18.2197 19.1858 21.0532 19.1858C23.8867 19.1858 26.307 20.9551 27.2686 23.4491Z" fill="#FAB03C"/>
<path d="M27.1334 25.0831C27.9283 23.8862 28.3482 22.4924 28.3482 21.0527C28.3482 17.0296 25.0752 13.757 21.0525 13.757C17.0297 13.757 13.757 17.0296 13.757 21.0527C13.757 25.0755 17.0297 28.3481 21.0525 28.3481C22.4442 28.3481 23.7993 27.953 24.9713 27.2052C25.2672 27.0165 25.3539 26.6234 25.1649 26.3279C24.9763 26.0321 24.5835 25.9451 24.2877 26.134C23.3205 26.7512 22.2017 27.0778 21.0525 27.0778C17.7302 27.0778 15.0277 24.3749 15.0277 21.0527C15.0277 17.7304 17.7302 15.0276 21.0525 15.0276C24.3747 15.0276 27.0775 17.7304 27.0775 21.0527C27.0775 22.2416 26.7307 23.3922 26.0749 24.3802C25.8807 24.6724 25.9604 25.0669 26.2526 25.2608C26.5451 25.455 26.9392 25.3753 27.1334 25.0831Z" fill="black"/>
<path d="M21.0531 12.7051C21.4042 12.7051 21.6884 12.4205 21.6884 12.0698V10.6353C21.6884 10.2842 21.4042 10 21.0531 10C20.7023 10 20.4178 10.2842 20.4178 10.6353V12.0698C20.4178 12.4205 20.7023 12.7051 21.0531 12.7051Z" fill="black"/>
<path d="M20.4178 30.0354V31.4698C20.4178 31.8209 20.7023 32.1051 21.0531 32.1051C21.4042 32.1051 21.6884 31.8209 21.6884 31.4698V30.0354C21.6884 29.6843 21.4042 29.4 21.0531 29.4C20.7023 29.4 20.4178 29.6846 20.4178 30.0354V30.0354Z" fill="black"/>
<path d="M16.0108 13.5911C16.1286 13.795 16.3421 13.9088 16.5618 13.9088C16.6693 13.9088 16.7788 13.8813 16.8788 13.8238C17.1825 13.6481 17.2868 13.2596 17.1114 12.9558L16.394 11.7136C16.2186 11.4095 15.8298 11.3056 15.526 11.481C15.2223 11.6564 15.118 12.0448 15.2938 12.3489L16.0108 13.5911Z" fill="black"/>
<path d="M25.2273 28.2817C24.9232 28.4571 24.8193 28.8459 24.9947 29.1496L25.7121 30.3922C25.8296 30.596 26.043 30.7098 26.2627 30.7098C26.3706 30.7098 26.4798 30.6824 26.5797 30.6245C26.8835 30.4491 26.9877 30.0606 26.8123 29.7569L26.0949 28.5143C25.9196 28.2105 25.5311 28.1063 25.2273 28.2817Z" fill="black"/>
<path d="M11.7132 16.394L12.9558 17.1114C13.0557 17.1693 13.1649 17.1967 13.2728 17.1967C13.4925 17.1967 13.7059 17.0826 13.8237 16.8787C13.9991 16.575 13.8949 16.1865 13.5911 16.0111L12.3486 15.2937C12.0448 15.1183 11.6563 15.2222 11.4809 15.5263C11.3052 15.8301 11.4095 16.2186 11.7132 16.394Z" fill="black"/>
<path d="M28.5145 26.0946L29.7567 26.8117C29.857 26.8696 29.9662 26.8971 30.0741 26.8971C30.2934 26.8971 30.5069 26.7829 30.6247 26.5794C30.8001 26.2753 30.6962 25.8868 30.3921 25.7114L29.1499 24.994C28.8461 24.8187 28.4573 24.9226 28.2819 25.2267C28.1065 25.5304 28.2108 25.9192 28.5145 26.0946V26.0946Z" fill="black"/>
<path d="M29.4002 21.0524C29.4002 21.4032 29.6844 21.6878 30.0355 21.6878H31.47C31.8207 21.6878 32.1053 21.4032 32.1053 21.0524C32.1053 20.7014 31.8207 20.4171 31.47 20.4171H30.0355C29.6844 20.4171 29.4002 20.7014 29.4002 21.0524V21.0524Z" fill="black"/>
<path d="M10.6353 21.6878H12.0701C12.4209 21.6878 12.7055 21.4032 12.7055 21.0524C12.7055 20.7014 12.4209 20.4171 12.0701 20.4171H10.6353C10.2846 20.4171 10 20.7014 10 21.0524C10 21.4032 10.2846 21.6878 10.6353 21.6878Z" fill="black"/>
<path d="M28.8328 17.1967C28.9404 17.1967 29.0499 17.1693 29.1499 17.1114L30.3921 16.394C30.6962 16.2186 30.8001 15.8301 30.6247 15.5263C30.4493 15.2222 30.0605 15.1183 29.7567 15.2937L28.5145 16.0111C28.2108 16.1865 28.1065 16.575 28.2819 16.8787C28.3997 17.0826 28.6131 17.1967 28.8328 17.1967V17.1967Z" fill="black"/>
<path d="M12.9565 24.994L11.7139 25.7114C11.4102 25.8868 11.3059 26.2753 11.4813 26.5794C11.5991 26.7829 11.8126 26.8971 12.0323 26.8971C12.1398 26.8971 12.2493 26.8696 12.3493 26.8117L13.5918 26.0946C13.8956 25.9192 13.9995 25.5304 13.8241 25.2267C13.6487 24.9226 13.2603 24.8187 12.9565 24.994Z" fill="black"/>
<path d="M25.2273 13.8238C25.3272 13.8813 25.4364 13.9088 25.5443 13.9088C25.7637 13.9088 25.9775 13.795 26.0949 13.5911L26.8123 12.3489C26.9877 12.0452 26.8835 11.6564 26.5797 11.481C26.2759 11.3056 25.8875 11.4095 25.7121 11.7136L24.9947 12.9558C24.8193 13.2596 24.9232 13.6481 25.2273 13.8238Z" fill="black"/>
<path d="M16.0108 28.5143L15.2938 29.7569C15.118 30.0606 15.2223 30.4491 15.526 30.6245C15.6263 30.6824 15.7355 30.7098 15.8434 30.7098C16.0628 30.7098 16.2765 30.596 16.394 30.3922L17.1114 29.1496C17.2868 28.8459 17.1825 28.4574 16.8788 28.2817C16.575 28.1063 16.1862 28.2105 16.0108 28.5143Z" fill="black"/>
<defs>
<filter id="filter0_d" x="3.9375" y="3.9375" width="33.3219" height="33.3219" filterUnits="userSpaceOnUse" color-interpolation-filters="sRGB">
<feFlood flood-opacity="0" result="BackgroundImageFix"/>
<feColorMatrix in="SourceAlpha" type="matrix" values="0 0 0 0 0 0 0 0 0 0 0 0 0 0 0 0 0 0 127 0"/>
<feMorphology radius="2" operator="dilate" in="SourceAlpha" result="effect1_dropShadow"/>
<feOffset/>
<feGaussianBlur stdDeviation="4"/>
<feColorMatrix type="matrix" values="0 0 0 0 0.964706 0 0 0 0 0.796078 0 0 0 0 0.262745 0 0 0 1 0"/>
<feBlend mode="normal" in2="BackgroundImageFix" result="effect1_dropShadow"/>
<feBlend mode="normal" in="SourceGraphic" in2="effect1_dropShadow" result="shape"/>
</filter>
</defs>
</svg>
