<svg width="42" height="42" viewBox="0 0 42 42" fill="none" xmlns="http://www.w3.org/2000/svg">
<circle cx="21" cy="21" r="21" fill="#232323"/>
<g filter="url(#filter0_d)">
<path d="M22.397 25.5234C18.7562 24.3191 16.1219 20.8834 16.1219 16.8441C16.1219 14.8221 16.7694 12.9058 17.9941 11.3024C18.1544 11.0925 18.1513 10.8006 17.9865 10.5943C17.8218 10.3879 17.5378 10.3201 17.2977 10.43C15.4328 11.283 13.8514 12.6428 12.7247 14.3623C11.5681 16.1275 10.9568 18.1807 10.9568 20.2998C10.9568 26.2814 15.8233 31.1479 21.8049 31.1479C23.9241 31.1479 25.9772 30.5365 27.7424 29.38C29.4619 28.2532 30.8217 26.6719 31.6747 24.8069C31.7845 24.5667 31.7168 24.2827 31.5105 24.118C31.3041 23.9533 31.0122 23.9502 30.8024 24.1105C29.199 25.3353 27.2826 25.9827 25.2606 25.9827C24.7013 25.9827 24.1534 25.9322 23.6215 25.8355" fill="#EDE21B"/>
</g>
<path d="M29.0216 28.1613C27.2564 29.318 25.2033 29.9293 23.0841 29.9293C17.1025 29.9293 12.236 25.0628 12.236 19.0812C12.236 16.962 12.8473 14.9089 14.004 13.1437C14.2919 12.7042 14.6098 12.2884 14.9543 11.8983C14.2131 12.5464 13.5591 13.2957 13.0125 14.13C11.8559 15.8953 11.2446 17.9484 11.2446 20.0675C11.2446 26.0491 16.1111 30.9156 22.0927 30.9156C24.2119 30.9156 26.265 30.3042 28.0302 29.1477C28.8488 28.6113 29.5855 27.9718 30.2252 27.2478C29.8473 27.5781 29.4455 27.8836 29.0216 28.1613Z" fill="#EAC71C"/>
<path d="M24.8534 16.4168C23.7499 16.4168 22.8552 15.5221 22.8552 14.4186C22.8552 15.5222 21.9605 16.4168 20.857 16.4168C21.9606 16.4168 22.8552 17.3115 22.8552 18.415C22.8552 17.3115 23.7499 16.4168 24.8534 16.4168Z" fill="#F29F26"/>
<path d="M26.2079 21.2789C26.6487 21.2789 27.006 20.9215 27.006 20.4807C27.006 20.0399 26.6487 19.6826 26.2079 19.6826C25.7671 19.6826 25.4098 20.0399 25.4098 20.4807C25.4098 20.9215 25.7671 21.2789 26.2079 21.2789Z" fill="#F29F26"/>
<path d="M11.7469 30.5424C12.1877 30.5424 12.545 30.1851 12.545 29.7443C12.545 29.3035 12.1877 28.9462 11.7469 28.9462C11.3061 28.9462 10.9487 29.3035 10.9487 29.7443C10.9487 30.1851 11.3061 30.5424 11.7469 30.5424Z" fill="#F29F26"/>
<path d="M21.8044 31.5266C15.6142 31.5266 10.5782 26.4905 10.5782 20.3004C10.5782 18.1074 11.2109 15.9826 12.408 14.1557C13.5738 12.3764 15.2101 10.9694 17.14 10.0868C17.5383 9.90444 18.0078 10.0162 18.2815 10.3589C18.5549 10.7015 18.5601 11.1841 18.2941 11.5324C17.12 13.0693 16.4994 14.9063 16.4994 16.8446C16.4994 20.6311 18.9169 23.9747 22.5152 25.1649C22.7134 25.2305 22.821 25.4444 22.7554 25.6426C22.6898 25.8408 22.4761 25.9483 22.2777 25.8829C20.3932 25.2595 18.7718 24.0799 17.589 22.4714C16.3815 20.8294 15.7432 18.8837 15.7432 16.8446C15.7432 14.7389 16.4175 12.7433 17.6931 11.0733C17.7481 11.0014 17.747 10.9015 17.6905 10.8307C17.6339 10.7598 17.537 10.7366 17.4546 10.7743C15.6543 11.5977 14.128 12.9103 13.0404 14.5702C11.9243 16.2735 11.3343 18.255 11.3343 20.3004C11.3343 26.0736 16.0311 30.7704 21.8044 30.7704C23.8496 30.7704 25.8311 30.1805 27.5346 29.0643C29.1945 27.9767 30.5071 26.4503 31.3303 24.6503C31.3681 24.5678 31.3449 24.4707 31.2741 24.4142C31.2032 24.3577 31.1034 24.3565 31.0313 24.4116C29.3616 25.6872 27.3658 26.3614 25.2601 26.3614C24.6875 26.3614 24.1132 26.3099 23.5535 26.2082C23.348 26.1708 23.2117 25.974 23.249 25.7686C23.2864 25.5631 23.4831 25.4267 23.6886 25.4642C24.2039 25.5578 24.7327 25.6053 25.2602 25.6053C27.1987 25.6053 29.0356 24.9847 30.5724 23.8106C30.9208 23.5446 31.4034 23.5498 31.7459 23.8231C32.0885 24.0967 32.2003 24.5662 32.0181 24.9648C31.1354 26.8946 29.7284 28.531 27.9491 29.6968C26.1221 30.8939 23.9973 31.5266 21.8044 31.5266Z" fill="#231F20"/>
<path d="M22.8546 18.7935C22.6459 18.7935 22.4766 18.6242 22.4766 18.4154C22.4766 17.5221 21.7497 16.7953 20.8564 16.7953C20.6476 16.7953 20.4783 16.626 20.4783 16.4172C20.4783 16.2084 20.6476 16.0391 20.8564 16.0391C21.7497 16.0391 22.4766 15.3123 22.4766 14.419C22.4766 14.2102 22.6459 14.0409 22.8546 14.0409C23.0634 14.0409 23.2327 14.2102 23.2327 14.419C23.2327 15.3123 23.9595 16.0391 24.8528 16.0391C25.0616 16.0391 25.2309 16.2084 25.2309 16.4172C25.2309 16.626 25.0616 16.7953 24.8528 16.7953C23.9595 16.7953 23.2327 17.5221 23.2327 18.4154C23.2327 18.6242 23.0634 18.7935 22.8546 18.7935ZM22.1413 16.4172C22.4268 16.6014 22.6704 16.845 22.8547 17.1306C23.0389 16.845 23.2825 16.6015 23.5681 16.4172C23.2825 16.233 23.039 15.9893 22.8547 15.7038C22.6704 15.9893 22.4268 16.233 22.1413 16.4172Z" fill="#231F20"/>
<path d="M26.208 21.6568C25.5594 21.6568 25.0318 21.1292 25.0318 20.4807C25.0318 19.8321 25.5594 19.3044 26.208 19.3044C26.8566 19.3044 27.3842 19.8321 27.3842 20.4807C27.3842 21.1292 26.8566 21.6568 26.208 21.6568ZM26.208 20.0607C25.9764 20.0607 25.788 20.2491 25.788 20.4807C25.788 20.7123 25.9764 20.9007 26.208 20.9007C26.4396 20.9007 26.6281 20.7123 26.6281 20.4807C26.6281 20.2491 26.4396 20.0607 26.208 20.0607Z" fill="#231F20"/>
<path d="M11.7465 30.9205C11.098 30.9205 10.5703 30.3928 10.5703 29.7443C10.5703 29.0957 11.098 28.5681 11.7465 28.5681C12.3951 28.5681 12.9227 29.0957 12.9227 29.7443C12.9227 30.3928 12.3951 30.9205 11.7465 30.9205ZM11.7465 29.3243C11.5149 29.3243 11.3265 29.5127 11.3265 29.7443C11.3265 29.9759 11.5149 30.1644 11.7465 30.1644C11.9782 30.1644 12.1665 29.9759 12.1665 29.7443C12.1665 29.5127 11.9782 29.3243 11.7465 29.3243Z" fill="#231F20"/>
<path d="M22.8549 21.4291C23.1167 21.4291 23.3289 21.2169 23.3289 20.9551C23.3289 20.6933 23.1167 20.4811 22.8549 20.4811C22.5931 20.4811 22.3809 20.6933 22.3809 20.9551C22.3809 21.2169 22.5931 21.4291 22.8549 21.4291Z" fill="#231F20"/>
<path d="M10.474 27.1209C10.7358 27.1209 10.948 26.9086 10.948 26.6469C10.948 26.3851 10.7358 26.1729 10.474 26.1729C10.2122 26.1729 10 26.3851 10 26.6469C10 26.9086 10.2122 27.1209 10.474 27.1209Z" fill="#231F20"/>
<path d="M25.8943 14.1023C26.1561 14.1023 26.3683 13.8901 26.3683 13.6283C26.3683 13.3665 26.1561 13.1543 25.8943 13.1543C25.6325 13.1543 25.4203 13.3665 25.4203 13.6283C25.4203 13.8901 25.6325 14.1023 25.8943 14.1023Z" fill="#231F20"/>
<defs>
<filter id="filter0_d" x="0.956799" y="0.377808" width="40.7701" height="40.7701" filterUnits="userSpaceOnUse" color-interpolation-filters="sRGB">
<feFlood flood-opacity="0" result="BackgroundImageFix"/>
<feColorMatrix in="SourceAlpha" type="matrix" values="0 0 0 0 0 0 0 0 0 0 0 0 0 0 0 0 0 0 127 0"/>
<feOffset/>
<feGaussianBlur stdDeviation="5"/>
<feColorMatrix type="matrix" values="0 0 0 0 0.929412 0 0 0 0 0.886275 0 0 0 0 0.105882 0 0 0 1 0"/>
<feBlend mode="normal" in2="BackgroundImageFix" result="effect1_dropShadow"/>
<feBlend mode="normal" in="SourceGraphic" in2="effect1_dropShadow" result="shape"/>
</filter>
</defs>
</svg>
